<mxfile host="app.diagrams.net" agent="Mozilla/5.0 (Windows NT 10.0; Win64; x64) AppleWebKit/537.36 (KHTML, like Gecko) Chrome/139.0.0.0 Safari/537.36" version="28.1.1">
  <diagram name="PÃ¡gina-1" id="KdWT9EPL8nUVjp-u0MvK">
    <mxGraphModel grid="0" page="0" gridSize="10" guides="1" tooltips="1" connect="1" arrows="1" fold="1" pageScale="1" pageWidth="850" pageHeight="1100" math="0" shadow="0">
      <root>
        <mxCell id="0" />
        <mxCell id="1" parent="0" />
        <mxCell id="8-Jn06f8nxEGg-OneQiQ-5" value="Diagrama de Clases" style="shape=umlFrame;whiteSpace=wrap;html=1;pointerEvents=0;recursiveResize=0;container=1;collapsible=0;width=190;height=26;fillColor=#bac8d3;strokeColor=#23445d;" vertex="1" parent="1">
          <mxGeometry x="400" y="12" width="340" height="448" as="geometry" />
        </mxCell>
        <mxCell id="8-Jn06f8nxEGg-OneQiQ-16" value="Usuario" style="swimlane;fontStyle=1;align=center;verticalAlign=top;childLayout=stackLayout;horizontal=1;startSize=32;horizontalStack=0;resizeParent=1;resizeParentMax=0;resizeLast=0;collapsible=0;marginBottom=0;fillColor=#fff2cc;strokeColor=#d6b656;" vertex="1" parent="8-Jn06f8nxEGg-OneQiQ-5">
          <mxGeometry x="51" y="268" width="230" height="136" as="geometry" />
        </mxCell>
        <mxCell id="8-Jn06f8nxEGg-OneQiQ-17" value="+String curp" style="text;strokeColor=none;fillColor=none;align=left;verticalAlign=top;spacingLeft=4;spacingRight=4;overflow=hidden;rotatable=0;points=[[0,0.5],[1,0.5]];portConstraint=eastwest;" vertex="1" parent="8-Jn06f8nxEGg-OneQiQ-16">
          <mxGeometry y="32" width="230" height="32" as="geometry" />
        </mxCell>
        <mxCell id="8-Jn06f8nxEGg-OneQiQ-18" value="+String telefono" style="text;strokeColor=none;fillColor=none;align=left;verticalAlign=top;spacingLeft=4;spacingRight=4;overflow=hidden;rotatable=0;points=[[0,0.5],[1,0.5]];portConstraint=eastwest;" vertex="1" parent="8-Jn06f8nxEGg-OneQiQ-16">
          <mxGeometry y="64" width="230" height="32" as="geometry" />
        </mxCell>
        <mxCell id="8-Jn06f8nxEGg-OneQiQ-19" style="line;strokeWidth=1;fillColor=none;align=left;verticalAlign=middle;spacingTop=-1;spacingLeft=3;spacingRight=3;rotatable=0;labelPosition=right;points=[];portConstraint=eastwest;strokeColor=inherit;" vertex="1" parent="8-Jn06f8nxEGg-OneQiQ-16">
          <mxGeometry y="96" width="230" height="8" as="geometry" />
        </mxCell>
        <mxCell id="8-Jn06f8nxEGg-OneQiQ-22" value="..." style="text;strokeColor=none;fillColor=none;align=left;verticalAlign=top;spacingLeft=4;spacingRight=4;overflow=hidden;rotatable=0;points=[[0,0.5],[1,0.5]];portConstraint=eastwest;" vertex="1" parent="8-Jn06f8nxEGg-OneQiQ-16">
          <mxGeometry y="104" width="230" height="32" as="geometry" />
        </mxCell>
        <mxCell id="8-Jn06f8nxEGg-OneQiQ-23" value="&lt;&lt;Abstract&gt;&gt;&#xa;Persona" style="swimlane;fontStyle=1;align=center;verticalAlign=top;childLayout=stackLayout;horizontal=1;startSize=56.727272727272734;horizontalStack=0;resizeParent=1;resizeParentMax=0;resizeLast=0;collapsible=0;marginBottom=0;fillColor=#fad7ac;strokeColor=#b46504;" vertex="1" parent="8-Jn06f8nxEGg-OneQiQ-5">
          <mxGeometry x="80" y="36" width="172" height="178.72727272727275" as="geometry" />
        </mxCell>
        <mxCell id="8-Jn06f8nxEGg-OneQiQ-24" value="+String nombre" style="text;strokeColor=none;fillColor=none;align=left;verticalAlign=top;spacingLeft=4;spacingRight=4;overflow=hidden;rotatable=0;points=[[0,0.5],[1,0.5]];portConstraint=eastwest;" vertex="1" parent="8-Jn06f8nxEGg-OneQiQ-23">
          <mxGeometry y="56.727272727272734" width="172" height="38" as="geometry" />
        </mxCell>
        <mxCell id="8-Jn06f8nxEGg-OneQiQ-25" value="+String correo" style="text;strokeColor=none;fillColor=none;align=left;verticalAlign=top;spacingLeft=4;spacingRight=4;overflow=hidden;rotatable=0;points=[[0,0.5],[1,0.5]];portConstraint=eastwest;" vertex="1" parent="8-Jn06f8nxEGg-OneQiQ-23">
          <mxGeometry y="94.72727272727273" width="172" height="38" as="geometry" />
        </mxCell>
        <mxCell id="8-Jn06f8nxEGg-OneQiQ-26" style="line;strokeWidth=1;fillColor=none;align=left;verticalAlign=middle;spacingTop=-1;spacingLeft=3;spacingRight=3;rotatable=0;labelPosition=right;points=[];portConstraint=eastwest;strokeColor=inherit;" vertex="1" parent="8-Jn06f8nxEGg-OneQiQ-23">
          <mxGeometry y="132.72727272727275" width="172" height="8" as="geometry" />
        </mxCell>
        <mxCell id="8-Jn06f8nxEGg-OneQiQ-28" value="..." style="text;strokeColor=none;fillColor=none;align=left;verticalAlign=top;spacingLeft=4;spacingRight=4;overflow=hidden;rotatable=0;points=[[0,0.5],[1,0.5]];portConstraint=eastwest;" vertex="1" parent="8-Jn06f8nxEGg-OneQiQ-23">
          <mxGeometry y="140.72727272727275" width="172" height="38" as="geometry" />
        </mxCell>
        <mxCell id="8-Jn06f8nxEGg-OneQiQ-29" value="" style="curved=0;startArrow=block;startSize=16;startFill=0;endArrow=none;rounded=0;entryX=0.5;entryY=0;entryDx=0;entryDy=0;" edge="1" parent="8-Jn06f8nxEGg-OneQiQ-5" source="8-Jn06f8nxEGg-OneQiQ-23" target="8-Jn06f8nxEGg-OneQiQ-16">
          <mxGeometry relative="1" as="geometry">
            <Array as="points" />
            <mxPoint x="568" y="180" as="targetPoint" />
            <mxPoint x="443" y="130" as="sourcePoint" />
          </mxGeometry>
        </mxCell>
        <mxCell id="8-Jn06f8nxEGg-OneQiQ-15" value="" style="shape=image;verticalLabelPosition=bottom;labelBackgroundColor=default;verticalAlign=top;aspect=fixed;imageAspect=0;image=data:image/png,iVBORw0KGgoAAAANSUhEUgAAAigAAASwCAYAAADR6LGRAAAQAElEQVR4AeydB7xP5R/Hv+fae48mDaW9o4lEUiGptI2GNCjtUlTakqZCWZF/EUVoiCQhGUWFzFDmtTf/8344P7973Xtd3PE7v/vx8vzOes4z3s/J8znf7/c5JezUHxEQAREQAREQARGIMQIJpj8iIAIiIAIiIAIZTEDFHSwBCZSDJaj7RUAEREAEREAEMpyABEqGI1WBIiACIhB+AuqBCGQ3AQmU7B4B1S8CIiACIiACIrAXAQmUvZDohAiIQPgJqAciIAJhJyCBEvYRVPtFQAREQAREIA4JSKDE4aCqS+EnoB6IgAiIQE4nIIGS058A9V8EREAEREAEYpCABEoMDkr4m6QeiIAIiIAIiMDBEZBAOTh+ulsEREAEREAERCATCEigpABVp0RABERABERABLKXgARK9vJX7SIgAiIgAiKQUwjsVz8lUPYLlzKLgAiIgAiIgAhkBQEJlKygrDpEQAREQATCT0A9yFICEihZiluViYAIiIAIiIAIpIeABEp6KCmPCIiACISfgHogAqEiIIESquFSY0VABERABEQgZxCQQMkZ46xeikD4CagHIiACOYqABEqOGm51VgREQAREQATCQUACJRzjpFaGn4B6IAIiIAIisB8EJFD2A5ayioAIiIAIiIAIZA0BCZSs4Rz+WtQDERABERABEchCAhIoWQhbVYmACIiACIiACKSPQE4RKOmjoVwiIAIiIAIiIAIxQUACJSaGQY0QAREQAREQgTASyLw2S6BkHluVLAIiIAIiIAIicIAEJFAOEJxuEwEREAERCD8B9SB2CUigxO7YqGUiIAIiIAIikGMJSKDk2KFXx0VABMJPQD0QgfglIIESv2OrnomACIiACIhAaAlIoIR26NRwEQg/AfVABERABFIjIIGSGhmdFwEREAEREAERyDYCEijZhl4Vh5+AeiACIiACIpBZBCRQMousyhUBERABERABEThgAhIoB4wu/DeqByIgAiIgAiIQqwQkUGJ1ZNQuERABERABEcjBBEIsUHLwqKnrIiACIiACIhDnBCRQ4nyA1T0REAEREAER2C8CMZJZAiVGBkLNEAEREAEREAER2ENAAmUPC+2JgAiIgAiEn4B6ECcEJFDiZCDVDREQAREQARGIJwISKPE0muqLCIhA+AmoByIgAo6ABIrDoB8REAEREAEREIFYIiCBEkujobaIQPgJqAciIAIikCEEJFAyBKMKEQEREAEREAERyEgCEigZSVNlhZ+AeiACIiACIhATBCRQYmIY1AgREAEREAEREIFoAhIo0TTCv68eiIAIiIAIiEBcEJBAiYthVCdEQAREQAREIL4IxJZAiS+26o0IiIAIiIAIiMABEpBAOUBwuk0EREAEREAEwkIgjO2UQAnjqKnNIiACIiACIhDnBCRQ4nyA1T0REAERCD8B9SAnEpBAyYmjrj6LgAiIgAiIQIwTkECJ8QFS80RABMJPQD0QARHYfwISKPvPTHeIgAiIgAiIgAhkMgEJlEwGrOJFIPwE1AMREAERyHoCEihZz1w1ioAIiIAIiIAI7IOABMo+AOly+AmoByIgAiIgAuEjIIESvjFTi0VABERABEQg7glIoMT8EKuBIiACIiACIpDzCEig5LwxV49FQAREQAREIOYJZLpAiXkCaqAIiIAIiIAIiEDMEZBAibkhUYNEQAREQAREYJ8E4j6DBErcD7E6KAIiIAIiIALhIyCBEr4xU4tFQAREIPwE1AMR2AcBCZR9ANJlERABERABERCBrCcggZL1zFWjCIhA+AmoByIgAplMQAIlkwGreBEQAREQAREQgf0nIIGy/8x0hwiEn4B6IAIiIAIxTkACJcYHSM0TAREQAREQgZxIQAIlk0d9586dtmnTJtuwYYNt2bIlk2vLuOJp9/bt241txpWaYSVlWEE7duww+hmdOJdhFaggERABERCBAyIggXJA2NJ30x9//GHPPvus3Xbbbda4cWO744477J133rHly5enr4BszPXzzz/bfffdZ0uWLMnGVmR+1Z9//rndc889SVLr1q3tjTfesHnz5mV+A1SDCIiACIhAigRCLVBi+U33iy++sPPOO886duxoM2bMcFaUkSNH2mOPPWZ169a1tWvXpjggsXLy77//tt69e1tiYuJ+NwlhVrNmTfvhhx/2+960brj33nvtiSeeSCvLfl+bNGmSffLJJ66t48aNM9KgQYPs6aeftrPPPtt+/PHH/S5TN4iACIiACBw8gdAKlFmzZlnLli1twoQJB08hg0uYOXOmPfzww1alShX7+uuvbcqUKW7LpN+jRw9bs2aNXX311bZixYoMrjk2itu4caNNnz7dVq9enaENwqIxf/78DC2Twg499FD76quvbOrUqS7NnTvXRowYYeXKlbOXX3457t1cMFASAREQgVgjcCACJdv7sHTpUmvYsKH179/fYtGKcvfdd1vBggVd+6pWrWq5cuVyzPLmzeva3apVK/v111/tp59+cueDH2JUcDlgZXnllVcMERZcY0s8CG/43bp1c3ETWGkef/xx69mzp23dupUstmjRInvttdeM81gH3MndP7hrevXqZQsWLHCum1dffdXlGzJkiCtvd7Y0N9RDGym/U6dO9u+//ybJP2zYMBs8eLBrD+KMtjLhR2fCovTSSy+5uv/3v//Z+vXroy/vtf/PP/8Ywo72I1IoEwFBRmJ7OEZccBwkzn/66ac2atSo4FS6t4wX1i/6iAWFPkffTJ/fffdde/TRR61Pnz5OcEZfD/b//PNPYxzJBxPGN7gWbHl+v//+e+cKbN++veFa41xwnTEfPXq0G2M4de3a1dq0aWOrVq2y2bNnG33nv4cgf7Bl7LlGW4Nz7H/wwQdOPL/33nv233//BZe0FQEREIGYIxA6gcI/+g0aNHBv5/wDjACIJapYT8aPH2/16tWzYsWK7dU0z/Ps+uuvdy6Eww8/PHL9999/t1q1atkjjzxikydPNkRD9erV7cknn0wSXDto0CBD4JAPIUJdDz30kN100032/vvv2+WXX+6sNd98843bf/vttyMWAIQC4ofJ/qqrrjLExMSJE61FixZ2zTXXWEoTXdBAJkomvRo1ajg3FW1EIJ5wwglOEAWTL5Ptt99+a9u2bXPuEkRCYPXAskK8x8UXX+wsFtOmTbP2/qR84YUX2m+//RZUtdcWYTJw4EAnhhYuXGiUiXAgIxM1PBBDHAcJK9ULL7xgffv2DU7t97Z8+fKOPUHOwc0IknPOOcc+/PBDZ23BwkJ/6HeQh/zPP/+84eYaPny48cwiKi677LIkcS1YmJo1a+bGDhEyZswYa9Sokd11111OgFAe3Pv162cPPvigO08ME2O2efNmlwd+iA7yBomx4NmgDYULF3an33rrLTvjjDOMvAhEngH+24EPdbhM+hEBEchmAqo+mkCoBAoT6C233GLEOPAGi1CJ7kws7POPf0JCgp122mnmeV6KTSpZsqS1bt3aTRhkIGgW0cKkjjBhAuaNu0OHDu4Nmbdd8kWnfPnyGZM26cUXXzQmwjfffNMQMJ999pl9+eWXhph45pln9hIeTLLt2rVz9w8YMMBIuGSaNGmSqkWKNiKKmMwomzbSViwhJMQG7aM+jgsUKODe1Ml3wQUXcMmJEo4RlrQTgcMEyQqatm3bGmW7jMl+mFg//vhjO+WUU4xJlTKwbiTLluGHCK2yZctaoUKFXNk8d7jusJAh7rD+wKBChQp25513Gi48MiIaCbJFjDE+9JF8WH9gRx4SooO8lEU+xgEBgdiCYzQPRMcRRxzhxplng3adfPLJduSRRxrtRJBRJgkhiKWNIGcEyuLFi41n5Oabb3ZjAHf4n3vuufbUU085axr3KYmACIhALBFIiKXGpNUW3kLr1q3rJlve/q688sqI6ySt+7L6Gm/FnucZIiS9dTMh4XbBEnL88cdb0aJFrUSJEnbttde6OJbu3bvbypUrkxTXvHlzK126tBUvXtx4C8+TJ497+z766KPd/YcccohhmWBiw7QffTPuC97muRcrDxMVK41wOQVCIzo/+5zHytGlSxc77rjjrEiRIq5+3vYJJkUckY/JnMQ+bi76Qts4xkpDPA7WG/gweTLJHnXUUcbkDTvyJU+5c+d29bGlLMqk7OT5DvQYawQWIdwrJCwZWEYQhljCEJyIBUQRFiMESpkyZRxnxAnWkWXLlkXioRgrxCb9gi88Kleu7Nx6BPrSTsQOQgF+p556qrO2kbdOnTpWrVo1F7SL5Yi8pPz58zsRhFWHZ4M2IQJvuOEGmzNnThJ34NChQ52LDdHEvcTYMH7PPfecIWzgzvOB2MNthIAhn5IIHCwB3S8CGUkgISMLy6yysJwwISNS2PImScxBagk3ABNKZrUnrXI9b5fVBKtAWvmCa7STfhF3cP755wen3ZaJjXNM3PTJndz9wwSze9eYrJi8mfSDc2yxsrClbLZBokwm+uDY8zxDpNBmXFTB+egtb/qIAgQGq3uik+d5e8XTRN8bvc9kSewDFgWsDEzYiAPywIJtVieeL0QHcU0khBSxI7fffrtzsXme5+JMeN5gjRUkuv+IDeJUAlcWFh9EFO4XLC5YOLBqICw8b9fzgWDwPM8JbixaQXlYiuCARSQ6iJp6k48vnLCKILDGjh3LoUudO3d21jOEiDvh/yBmEU2srMIVSFwMdfqXUrWacU1JBERABLKLQCgECm+ZTIz8w82b7UUXXWRMsqkl/PiJiYnZwpS4EgQBgZ2pNYB+EMTJpMY+kxd5S5UqxSZJ4k2dfOSPvsCEFX28P/u8qSfPjzWFc6ktf4YnkybLppMn3vRZ8cL9aSWsDMTK4P7CWsQEiVsEIZbWfZl9DasCsTq4bEjEAmGdQFxwjfrXrVvn4mpw4b3++utu+XjAAUtLpUqVnJWHvBUrVnSrgE466STnksEtiTWF8nCVkYfYGcYe105QTrDFUoVlBtFJ3rQS44aljXIo75dffnEu0EsuuSTiYiQmBpcRbWzatKlhBcNahohKq+ycd009FgERiCUCoRAovO0x8QMOCworGdJKBEdGvz1yX1YlzPWY43mjxSKRUr1YTIg5+e6779wkEkzQvMknz885rB1BnuTXD+QYoZD8Ps55nudcDcmvcczbOwKKeImUEvET5EsrYZHACkGAKRYUVuKwvBfBktZ96bmGKIzOh7Ug+bno69H7WJpwU+ESIxEPw7kWLVo4Vwl5eZ5Y3YP7BRdKSgxuvfVWsrqEK4jvq9A/2BBzhKsO6wYZEBaITD7kl1JZ3HvssceSdZ8Jqw/PFMIG6w7iisDd4EZWeSFK+IYM8SvUh1sR60uQR1sREAERiDUCoRAo+Mp5S8WawMfOEAE33nijpZZYPcGknh2wMaUTnMgSYL7RknyS5G2WFRUsMw5M/sRhMPkR+8BbcNBurCYIHcQBbq3g/MFuR40a5T4cF5SDkOIcbSBWIjgfvcVahYghPEM/+AAAEABJREFU4V6KTsQxMKFH5/c8L4nrACsQdSAAWGnE5AsreCDCou9Naz85T8QgEz3Lq6OvEdMS7SJJq8zk12gb8U6MB4nrWJ0I0sXVhmUjuv8IAtxwnCcv+wSp0i6CWGHH6inEDZYL8vAMsyV+hLiSoDz24clzwHiQZ18JMUQ9iB9ccQQl04fgPvpwzDHHuK8Z86xRB+PFqq4gj7YiIAIiEGsEQiFQgFajRg3jDZSJjjdVghk5H4sJ9wVv5MQysNSTZaF804Slv4gXVtnw2XtiFWg/5njcASwNZTIhpoBJG5M/JnvevhEz5M2IxNs2q6Bw2+C6YJUJK2Pq169vqQkUJjbiVLBgEVNBG5mIP/roI6P9WAqCtjFhk7A0sHwaoYVgPOuss1ygKDEbiAmCSQmu5Ti4N60tggYLDEuMg8BOxBsCFkGIVQ0XDBYLVq0gftIqL7VrCA3GieuUiVhgH2sHAgULC+OJsJs/f74x3jDAgkE+3C2IMFYr0QYClbEW4aY888wzyeI48xyTh7gTxgKrD/kYB2JzYOwy7+MH9xoiiJU58GG1VfQtjBvtRiDy3w9tghH5o/NpXwREQARiiUBoBIrnee67ErgHeDPGrx9MCLEElLYQTNqjRw87/fTTjY+ZMXkxMSFYMMFjam/Xrp3x4TbyM8ni7uGNmRUuuFJ44+WNmBUirLAhH4m3ciZQ9qMT57gWfY5jznversDM4BorPxAWWGXKly9vTIa0jzaTn3ye5xn7nrfrXtqIFQuxQT9o42GHHWYPPPCAW3WCm4H7SLSdOA7iOVgxhFDhPMGgjB2TKfcTl8G1E0880XLlyuXcXeRLLbEqhfqxbgQCwvM890l+2BHjgVhB/CEQKZ/zqZXH+dQYsVKJ8li+TUAreRGUiEjajNjCqoJwQ5AwpggB8hEDRV5ck4gqBMR1111n9JmvH5OHehlf7qEvuDCLFy/uvpHjeZ4RQIzIC/JGjwXnohNl4TJE4LCKCwbR11nujEUFcUkbaA+iinxplRtdhvZFQAREIKsJhEagBGCY3FiF4HmeW16b3rfv4P6s2jIx8VbPBIdIIbiXOAA+yHX//ffv1QxEDVYIBBhWFyZCjhEAQWbP84y4ASb6QNwE13jTZ+IOjtleeumlbvJmouY4SEy+TKoEexKvQ4wCgiW4zpYYBoJYmTg5JiE8cFGQn2+00CdECOMRTKbko21MvlxjiwDhPCt4sBBQL0t2CUzlq7R8N4X+7ivOBrFD7AouMpZWUyYJkYXrD6sQ14ivoHxW4hBgTZ7UEm5Cxgf3YfI8fAAOBoEFheuID8qn7VhUuHfUqFFO5HGdxBJsrGXEkWDJaeeLUZjRxuixQDwxblivYMkyYMaBlTYBd8/z3PJiLC3RjKknOiE2eC74kFv0efapB6sdZfD/GII3cSjscw7xQj4lERABEYglAqETKJ7nGd+KwC1BPAQuhFgAmlIbeDvl/8dDcChvzkyGfOeEN96U8mOlwDrRunVr99VQ3q4pIzovriCsLMnLQJwgIKLzVqxY0fheDG/60efZZ0UHlgbEUoMGDfYKjsW6wr1MtuQPEmWRn8mbN/PatWu7z/oH14MtsSFcQ0jQ5uA8kyH14obACsYqGb7MigsPN1CQL6Wt53mGxQKL0hVXXJEkC6teEG9cw3pC/ZSJFStJxmQHiCdilhCIyS4ZggAG0WV4nmf0B/cMH1pjbIN4kuj7GTeeU6wjsIJZSqtmEGUISVgiRrFE8RwEZXmeZ9SPyygtPp7nGc8FeYN7o7dYTrDiYDlhSTX9hhnlZqT7MLpO7YuACIjAwRAInUAJOouJHX87SyyDc9qKgAiIgAiIgAjEB4HdAiV8nfE8b6+3/vD1ImtbzFs9FhG2WVuzahMBERABERCB/SMQWoGyf91UbgjgMvrrr7/c/1GZYyUREAEREIFMJqDiD5iABMoBo9ONIiACIiACIiACmUVAAiWzyKpcERABEQg/AfVABLKNgARKtqFXxSIgAiIgAiIgAqkRkEBJjYzOi4AIhJ+AeiACIhBaAhIooR06NVwEREAEREAE4peABEr8jq16Fn4C6oEIiIAI5FgCEig5dujVcREQAREQARGIXQISKLE7NuFvmXogAiIgAiIgAgdIQALlAMHpNhEQAREQAREQgcwjIIGSOltdEQEREAEREAERyCYCEijZBF7VioAIiIAIiEDOJJC+XkugpI+TcomACIiACIiACGQhAQmULIStqkRABERABMJPQD3IGgISKFnDWbWIgAiIgAiIgAjsBwEJlP2ApawiIAIiEH4C6oEIhIOABEo4xkmtFAEREAEREIEcRUACJUcNtzorAuEnoB6IgAjkDAISKDljnNVLERABERABEQgVAQmUUA2XGht+AuqBCIiACIhAeghIoKSHkvKIgAiIgAiIgAhkKQEJlCzFHf7K1AMREAEREAERyAoCEihZQVl1iIAIiIAIiIAI7BeBHCZQ9ouNMouACIiACIiACGQTAQmUbAKvakVABERABEQgbghkQkckUDIBqooUAREQAREQARE4OAISKAfHT3eLgAiIgAiEn4B6EIMEJFBicFDUJBEQAREQARHI6QQkUHL6E6D+i4AIhJ+AeiACcUggTYGyfft2UxIDPQN6BvQM6BnQM6BnIDOegbR0VZoCZenSpaYkBnoG9Axk8jOgf2f0b62egRz4DCxbtiwtfWJpCpQ079RFERABERABERABEcgkAmkKlIIFC5qSGOgZ2MczoP9O9O+EngE9A3oGDugZSEvbpClQihUrZkpioGdAz4CeAT0Degb0DGT0M1C0aNG09IlcPGnSyRkX1UsREAEREAERiDkCaVpQYq61apAIiIAIiIAIiECOIBB+gZIjhkmdFAEREAEREIGcRUACJWeNt3orAiIgAiIgAukikN2ZJFCyewRUvwiIgAiIgAiIwF4EJFD2QqITIiACIiAC4SegHoSdgARK2EdQ7RcBERABERCBOCQggRKHg6ouiYAIhJ+AeiACOZ2ABEpOfwLUfxEQAREQARGIQQISKDE4KGqSCISfgHogAiIgAgdHQALl4PjpbhEQAREQAREQgUwgIIGSCVBVZPgJqAciIAIiIALZS0ACJXv5q3YREAEREAEREIEUCEigpAAl/KfUAxEQAREQAREINwEJlHCPn1ovAiIgAiIgAnFJICYFSlySVqdEQAREQAREQATSTUACJd2olFEEREAEREAEQk0gVI2PeYGyc+dO27Ztm23ZssU2b96sJAZ6BvQM6BnQM6Bn4ACfAeZS5lTm1lhXKzEpUHbs2GEbN260FStW2H///WfLli2zlStX2qpVq5TEQM+AngE9Azn1GVC/D/rZZy5lTmVuZY5lrmXOjUXBElMCBQtJYmKiEyRr1661XLlyWeHCha148eJWokQJJTHQM6BnQM+AngE9Awf5DBT351TmVuZY5loEy+rVq51VKpasKjEhUFBvWEdQdlu3brVixYpZ2bJlnTABYoECBSxfvnxKYqBnQM9AmJ8BtV3Pb0w8A8ypzK0IlTJlyrg5F9cPczBGAubkWBAq2S5QNm3a5Fw527dvd5BKly5t+fPnjwU2aoMIiIAIiIAIxDUBz/PcnItQKVq0qGEkQKjg0cjujmerQMH3hVrDzIQLp2DBguZ5XnYzUf0iIAIpEdA5ERCBuCXgeZ4VKlTISpYsaQkJCS7WhTk6OzuckF2V0/E1a9YYpibECSIlu9qiekVABERABERABMzFfjInMzczR+PlyC4u2SJQMB0RkIMrB5OS53nZ1X/Vm3MIqKciIAIiIALpIOB5njE3E/vJXM2cnY7bMjxLlgsUljKtW7fO8uTJ4wB4nsRJho+qChQBERABERCBgyDgeZ6LC8W7wZzN3H0QxR3QrQkHdNdB3ERHCYgletjzJE7SjVIZRUAEREAERCALCXie55Z0M2czd2dh1a6qLBUofL2OThIMiypzLdCPCIiACIiACIhATBJgriYehbmbOTwrG5lVAsX1icBYz/NcYKw7oR8REAEREAEREIGYJoBRwfM894X3rGxolgkU/FcE2tBRFFlWdlJ1iYAIiIAIiEB8Esj8XjFnY0VhDmcuz/wad9WQZQIFHxbmIdZZ76pavyIgAiIgAiIgAmEgwJdnmcdJWdXeLBMorKVGhZGyqnOqRwREQAREILYJqHXhIMDczQfc+CR+VrU4ywQKnWJpcVZ1TPWIgAiIgAiIgAhkHIHcuXNn6f9QMMsECu4dFFjGoVJJIiACIpDdBFS/COQcAszhzOVZ1eMsEyj4rTxP3z3JqoFVPSIgAiIgAiKQkQRw8WTl/+k4ywQKkDxPAgUOSiIQKwTUDhEQARGIVQJZKlBiFYLaJQIiIAIiIAIiEFsEJFBiazzUmv0ioMwiIAIiIALxSkACJV5HVv0SAREQAREQgRATkEDJxsFT1SIgAiIgAiIgAikTkEBJmYvOioAIiIAIiIAIZCOBgxAo2dhqVS0CIiACIiACIhDXBCRQ4np41TkREAEREIHQEVCDHQEJFIdBPyIgAiIgAiIgArFEQAIllkZDbREBERCB8BNQD0QgQwjEhUBZvHix/f7770nSn3/+aevWrcsQSDm5kBUrVtgff/yRYQhmz56dZJymT59u8+fPN/5XCBlWiQoSAREQAREIPYG4EChvvfWW1a1bN0m67LLL7JJLLrEvv/wy9IOUnR34/PPPrWHDhhnWhLvvvjvJOF1++eVWo0YNq1evns2ZMyfD6lFBInDABHSjCIhATBCIC4Gyfv16Zy1p166dderUyV577TV7+OGHrVy5cnbbbbfZJ598EhOww9iIjRs32sqVKzOs6atXr7ZTTjnFjRNj9dJLL9mtt95qixYtsuuvv95WrVqVYXWpIBEQAREQgfASiAuBAv7cuXPbFVdcYddcc41dd911du+991qPHj3suOOOs/fee88SExPJphQDBI466ig3TozVjTfeaAjLDz74wP777z/r1q1bDLRwVxN27txpCLRdR6H5VUNFQAREIC4IxI1ASWk0SpUqZVWrVjXiKII3cyYd4lVuueUW43qZMmWcy2HkyJG2bdu2SDFbtmyxPn362HnnnWdly5a18uXLW8uWLe3ff/+N5Onbt68rP3Ji987bb79t1157rW3evNmdGTx4sNWpU8e+/fZbJ6Ko95hjjnHlEyfTvn17Y9LmPPcRp+Fu3P2zYcMGN3GffPLJVqJECeNe7lm6dKkFf7jn0ksvddaiZ555xg4//HArWbKkc5+MHz/e6HeQN6UtE/Gnn35q5557rqvjpJNOMvoXzSS4D4tVv3797Oyzz3Z5K1WqZE888YT9888/QZb93tKnChUq2Lhx4yL30qaBAwfaBRdc4MaqYsWK9sADD9jcuXOT9AcLT7t27RxDxrNy5cr27rvvJhEXxLj89NNPVr9+fSMP1jWE7KRJkyJlMV633367E7jdu3e3o48+2mC+Y8cO6/FEyJIAABAASURBVNKli5122mk2b968SPvYoW7Kad68OYcu8SzhujrkkEPcs1OzZk0bMWJEpB6XST8iIAIiIAJpEohrgULPmUBy5cplJI6DSQqLykcffWSkQw891Jo0aWKjR4+24M+QIUPskUcecbER/fv3N97wp0yZYggbxAv51qxZ4yZL9qMTdS5cuDAyIa1du9YmT55sjz32mF155ZXWs2dPq169uiv/rrvusuXLl9v7779vzz//vI0dO9ad556gzCeffNI6dOhgTZs2Ndry9NNPG2Li5ptvdq4t8tEmJk8mZurHEvHmm2+69hH3gaggX0qJyZv7mJyrVKniRE7btm2tc+fORgxK9D3U8+qrr9o999wTYUO/BgwYYC1atHB9ic6f3n2EEAKhWLFikVtgwsR/4YUXOrEEn1GjRhn9nj9/vsvHfbjxBg0aZC+88IL973//M/pLXli5TP7PxIkT3dgVKVLEPvzwQ5cQHlhxvv/+ez+HufEi4HrMmDGGMIIBYtPzPDvxxBONazwXLvPunwULFhj3N2rUyJ35+uuvXT3Fixd3oubjjz82xB5sf/jhB5dHPyIgAiIgAvsmkLDvLOHIgYVg06ZN7q2ZN28sE0xKP//8sx177LEuHoUJkIm4YMGC1qNHDzfBIhiYzKtVq2aPP/64MWnRYyZmLAScq7E7iJOYCQJGmaTJsz+JtlEWkyd1EnvBWzxtfPnll6127dpuYr3jjjvcqhmsPpQ/2hdNtPW5556zNm3auHxMyB07djTe/mkn+YKUP39+Q0BgsWEi/+677wzrCgIpyJN8i3Wpd+/e1qBBAydKCDBu3LixCzBG9ETnJ1aECf7FF180hBLtRkQgELDURFtAou+L3kdUMEZBQixiXaKdBMuSF14IJMQPfGgT/fnss88cH/pFPu5BIMDkhhtucBajVq1a2RtvvGEVK1Yki1shhKA6//zzndXqqquucpYsrCLFfEGECKEtLrP/ky9fPmN8mjVrZlhCPM9z1iKsaNRF2/xs7i9ChnEkHyd4thCdCF+sNbVq1bKHHnrIWbOwOpFHSQREQAREYN8E4kagID6IO8HCQWKCJegStwkuDyYdJv2pU6e6N30mEialIDEBzpw50wVrgg3z/m+//ebepJlAOYd1AYFRuHBhDlNKqZ7D3cKbdJAhb968zj1yzjnnGG0JzuPqYALHqsE5Jn5cTEyuQVvZ4m6gHViEEGfkJRGHg0hhnxS4jhAWHKeUcJlgkUB0JCTseSSol0k2+h7cF1ghbrrppogYpD0VK1a0M88807AgROdPaX+UbwVhjEiIDupAVLAfCJRhw4YZcUUE0FJ+kLB2YVHBykHZpUuXNvr7zTff2C+//BJx0+F2wUpFHlx69JGyg3LYFipUyAkQ+o5IIy8JN1pl303EfpAYI8QjzwSxMpzH9YYbMLCecI62IdxoE2OIG47nClETXQd5lURABERABFInsGc2Sj1PaK7gFmGVCEKEN/kjjzzShg4daqeeeqrrA5MS7pTHfFcLb73RifgSrCeY8cnMMXEcvEVjgeGtG7HARMP1/U1M/KTk9yFUkp8LjhEe8+bNc7Edp59+urMCBW0m+JcJj/4iaIJ7mHSD/WBLvfQtOE6+ZQItWrSoMfknv0Y90ef4JgoTOnmDtgRbmAeTd/Q9yfcRk7SbhHDCuoMLBKtH4IrDOrRkyRI7/vjjk/SbuhA4TPyUi0AhVoYyWFbOWCF2ZsyY4Swn5MHKQp2MJfdHJyxqCA2uk5cErzx58rCbJGEZwa2HVY4LxJXwTFEvxyTGApGGNaqiL9rgh1DmuWI8yaMkAiIgAiKwbwJJBcq+88dsDt5YiTngTZq3fATGX3/9ZdOmTYu0mYmHt3JiJYjPSClhceAGJrEvvvjCcH2wZLl48eJ23333uQBKYjzIkxWJCZugTtwcKbWXiZ08B9MWRBITa0plMHlHn4chwi+ltnDuzjvvjM6e4j5WHsaJxHdqzjjjDBdEGi1uaBMulVdeecUoN3liLILCcTNhUXnnnXeMVUF8pI/AVGJ9yIPYwIKGmyd5ORy3a9fOBeGSN61EGVh7unbt6iw1uHcOO+wwF0gb3Pfoo48alhbOEztEG3BLIbSCPNqKgAiIgAjsm0DcCJTornqeZ+3btzdEBeb24FqBAgWMN27ON2nSxJqkkHBrBPkx9WM5YdJhoiHwkpiQ6GBH4lEw5Qf3sCVAlu3BJs/zXPwMogoXVErt5e0d0XAwdfFdEiwDuL+Sl4N7JPoc1ijie1JqC+dYSRSdf1/7iC9EDVaO6ABUVhMhjnDVUW7yFMR8BOVjOcFlRDAxVjNEC6KO67jNGCOEUPJyOMbCgQWJvPtKxA/9+uuvxjOA+OX5wH3HfcuWLXPBzriXED4IYQQNK4EOdowoX0kERCC8BNTy/ScQlwIFDEwIrMJhEiFgEfM6EwnLhlkdwiRDPhLmfVZs8IYduEJYMUNgKhMbeSiPCZN94hHYHnXUUWzcGz6uH/J+9dVXhuXFXciAHyZP6sWSgxgKisRKxCRMcGlw7kC3LIfFhcQSXtwqlENfcFXgxuA4SAQMY60i8BMXDedhO2XKFBd4ioDj3P4kllZfdNFFxheBgzIROohJrBC47CiPenAxEQCM5YVzBBnTJpZyc93zPBfozD6ClDwnnHCCW6qM5QOXGedILBkn7oVx5hng3L4SsT9Y1xCrtAu3UXAPFhasNayYon7Os4Uhq304VhIBERABEUgfgbgVKHSft11EBKs1cB/gNmDCYyK5+uqr3XLV+++/35gc+ZgbAY4IEe4leJWYCN7UuYcVIlhlOM+ESB6CQgmmZIKrWrWqcQ1rC3m5nhEJ4cBkyORNoGzr1q3dcmOCR/k0PG/nB1sP1gMEB6twmPwffPBB91VXVucgkKLLR8wQ44HIY4UKK4toC5YExE3FihWjs6drn3GBIYIB1tyE1Yhvq7DyBXcN44Q7izHF2hLUwzdYiGNBXBIkzUqp6tWr2/Dhw92qLMpiTHH/0D6useIHMUZfETZYWGgDefeVjjjiCGMcJkyYYBdffLFxbLv/wBF3IF8uZvkyfaG9LH9GuOzOpo0IhJCAmiwCWU8gLgQKpntM6bzZRyPEfcAKHibxIKiSwFeCHDHt87ZOgCjuAawsvMkH9zM588l8Jh0CNrFiMKkxoQWTDeVj2WDCq1hx1yoWluAieLAAMDFSHh8gI+6C1S8ckygDoYMrg+MgUQ7/XyFW6HDO8zyjfJYaE8dAfAWuhKZNmxqCgjgN8tFO6mD1EcfRifO0Ifpc9L7nee4DZvQNCwFuHdqHOGBZNWyD/PQJMcB3T/g2CHlZ5YSQISYjrXooAy4IO/ajE1YORAgWrCDGB/cObWK5N+OEyEQIYaXCLcX9uOsYTxhhpSBYFlHK0nFEAnlInKN9CFMsH1hizjrrLMOtRNyK53nuWzmIDixTlsofz/PccnC4wCF5NgQSQpZ+YN3hGUEg87whbJLn17EIiIAIiEDKBOJCoDBZY77nmxbJu8lqCr4KSuxEcI2lxwRGElTLB8969eplTHy8tQd5sLJQLitEyMNbMdaR5KtkEDevv/66+7gZH3PDisLEiNUjeCtHsBCTgPUhKB83EW4lli0H59gyQfL9D9wIHJMIguVNnDgY2kK7n3322SSBnQgv7iMmhXuChKCgbr7GGpxLbYt4gBV1IIiwKNWoUcN9pC75PUziiADy0h6+vYK4Sp4v+THWhGi3SHAdHk899ZT7AiyuuOA87LDWBPXAmpUxwXW25Ic3Y0Q+xpMlxdHjST4EHt+yob3ko1y+f8M1EqKMFV4st+Y4tYRgoo6UmHqe5/43C7SF4FgYMaZYiLB+pVamzmcuAZUuAiIQPgJxIVAOBLvnee77I1g1kk9k0eUhMsgTxDNEXwv2Pc9z3+JADATnMmNLO2kLIsnzvMyowpikEXoItH1VQHuw3CAuPC9z2kMbEGhBv1Nj7HmewYV85Oe+1FKQj/anludgznverrbAJrPqOJj26V4REAERCAOBHCtQwjA4aqMI7CKgXxEQARHIeQQkUHLemKvHIiACIiACIhDzBCRQYn6Iwt9A9UAEREAEREAE9peABMr+ElN+ERABERABERCBTCcggbJPxMogAiIgAiIgAiKQ1QQkULKauOoTAREQAREQAREw2wcDCZR9ANJlERABERABERCBrCcggZL1zFWjCIiACIhA+AmoB5lMQAIlkwGreBEQAREQAREQgf0nIIGy/8x0hwiIgAiEn4B6IAIxTkACJcYHSM0TAREQAREQgZxIQAIlJ466+iwC4SegHoiACMQ5AQmUOB9gdU8EREAEREAEwkhAAiWMo6Y2h5+AeiACIiACIpAmAQmUNPHoogiIgAiIgAiIQHYQkEDJDurhr1M9EAEREAEREIFMJSCBkql4VbgIiIAIiIAIiMCBEMiZAuVASOkeERABERABERCBLCMggZJlqFWRCIiACIiACMQ3gYzsnQRKRtJUWSIgAiIgAiIgAhlCQAIlQzCqEBEQAREQgfATUA9iiYAESiyNhtoiAiIgAiIgAiLgCEigOAz6EQEREIHwE1APRCCeCEigxNNoqi8iIAIiIAIiECcEJFDiZCDVDREIPwH1QAREQAT2EJBA2cNCeyIgAiIgAiIgAjFCQAIlRgZCzQg/AfVABERABLKLQGJioq1fvz67qs+UekMvUHbu3GmJiav9tCZTAKlQERABEYhVAps2bbLt27en2LwtW7bY1q1bU7x2ICepq3///v6/tYkHcvt+3UOfqI9/3/frxmSZd+zYYZSzdOlS1+7NmzfbwZaZrIp0HW7bts02btyYaXXPmTPHjjjiCPv444/T1Z6wZAq9QOE/wP79h9iQId+FhXmMtlPNEgERCBuB8847zwYNGpRis++55x7r0KFDitcO5OQPP/xgzZs3twEDBhzI7ft1z7Bhw6xevXq2fPny/bovOjOi5JFHHrEqVarYFVdcYRdddJFdfPHF1rNnzwwVbtF1prb//vvv25lnnmnr1q1LLcsBn2cOfOedd+zSSy+1G2+88YDLicUbQy9QYhGq2iQCIiACWUFgzZo1qU62mPt5a8+odtSsWdMmT55st9xyS0YVmWo5TLpr1649YIsDlpOXX37ZBg4caH379rUxY8bYhAkTrHXr1oZomT59eqp1Z8YFLDeMVWZYb2B17LHHWq9evaxw4cKZ0fxsKzNuBEpaBBMT19i4cZOSZNmwYaONHv2zrVy5OnKec7/8Ms1ZY777bqwtXbrCfvvtD5s3b2Ekz5YtW23atD9s2LBR9tVX39ukSb/5prtNkevz5v1jEydOtYULF9vw4aPcPv+x0IbFi/+L5NOOCIiACGQlASYyJmkmso8++sj/9+srY9KMbgPukNGjR9uHH37oJrwpU6ZEXEi8/f/666+2atWqyC2U+f3337v8uBf++OOPyDUm4x9//NFmzJjh/zv6m/Xo0cOjiVA+AAAQAElEQVSVmZI4+Ouvv5x7onv37jZ+/PhInZHC/J0FCxbYZ599Zt26dbP//e9/tmjRIv9syn/pF21v0aKFnXTSSZY/f34rUKCA3XDDDfbAAw/YihUrIjcihIYPH27U3adPH//f7InGv9lkwDXz5ZdfuvbDDi7koZ/0jzwHmjZs2GBBvf369bPZs2cnKYryYYfAos8jRozw55qNSfL8+++/row8efIY15csWZLketgPcoRAWb58lT+Io5OM1dq16+yLL761Zct2Pajr12/w/wP61BcnI/03km1OnPTr94X98MME++OPXQ/OFt+n++GH/e3zz0cY+Tdv3mJffvmtffLJF8aDTAV//fW3DR36vf8f0jC/7JW+/3MLp23w4K/t3Xd729q18RXE5DqnHxEQgZgngEBo2LCh/+9cD//fw+F2++232zPPPGNMhLb7T9u2bd0kjhuna9eudvXVV0dcSAiCFv6Ez+RMdiZYymjWrJnL88EHH9jll1/u/xs6hMtuku/SpYu99dZb1qRJE/+lbph17NjR5Zk0ac8LIwKndu3a7trXX39td911lyEuLOrP1KlTDQvOc889579YjrZXXnnFuWv+/vvvqFx7dnPnzu1EyS+//LKX2MGCUqNGDeMPAqtRo0auTiZ4xBt9xvLCdQTbE088YU8++aThMsP1RBu4hzaR50DSypUrrX79+nbvvff688VQe/PNN61OnToGi6A86uIcomjs2LHWsmVLe/TRR4PLhji5+eabnUWIvI899phdd911tnr16kieDNrJtmISsq3mGKv4999nOlHSosVN/n+Ul/n/kdbzfZbn2N9/L4i0dN26Db4JrZB/rb41alTX5WvY8HLfwvKP/fffLqFD5nXr1lvdujV8U2hDV0ZCQoIdc0wFO/HESlaoUAGyKImACIhAhhCYOXOmYalInqKtBFQ0ceJEe/XVV23kyJFGsOs333zjhAWTNNeHDBniv3B96b+4feEmTdwiWBuYtLmOkCEvW46/+OIL5zbBmsH+t99+a4gV7vnnn3/I4sQBk+enn37q6kQEHHrooU6MUA6WjhdeeMEQDLSfdn3yySf+C95n7n5+yPfdd985QULbe/fu7aw/tIW6yZM84epAPP3+++8ulgWrB/3H+pMrVy7j32Tu4VyxYsVcnykLi8aVV17pLDSUTx5ePrkPSwr9oC1YWOgL1w8kIf6wCFEfYoh+EXODC2rx4sX+S/JWo65zzz3XWUawePX1XVW0IzEx0VX54osvWpkyZZx1B0H522+/WenSpa1Vq1ZJRKfLHNKfhJC2O8ObPWvWXDv99JOsfPkykbJPO+1EK1q0cOS4ZMniduON9a1SpYru3MaNm3yT2ybferLdf6B2WUq4kDdvnkgejkkXXHC2NW58VeQ/DM4piYAIiMDBEsBy0bRpU0uesB5El/3uu++6N2zOMcEyUTP5/vfff5wyYjaqVatmZ5xxhjvmB2vG66+/zu5eCYGDCDjnnHPcNdwMd999t3MBTZs2zZ3jB4vE0Ucfza7/72t5O/vss30X+ELDIs2Ei3unc+fOVrBgQZencuXK/kvgDW6fH8/zXOwIlphSpUpxymh7kSJFfCv1slQn4wYNGjjhUcO3lnDvNddcY1hqcEXRbwo6//zzrYfvejr11FM59P8d32qHHHKIKxdG7qT/c+GFF7q2+7t2+OGHW61atQyBwfGBJMQc1hBiR7gf9xNWGsYCdp7nGTznz58fqQfOCJXixYsbIgVRyPhwb1DGtdde6/rMdc6FPSWEvQMZ1f41a9ZZ2bKlkxSXK1eCIUqCkzzU06fP9P2t/a1Dh7fttdc+8E1y49zlnTvdxv3wYCX4VhN3sPvH8zyJE9MfERCBjCbw2muv2axZs/ZKl112WZKqmPhwV1xyySV22mmnGZPZunXr/BesbYa7BqvHUUcd5Sb/4MZ8+fL51t9jgsMkW5a2sjoFQRMkBABCg/KCzEWLFg123TZv3rxOVLCUeNmyZcaEixXDXdz9Q9zI7l23IbaCGJEGDRrYWWedZQgpLERYV1yGFH48zzMEwEMPPeTiWhBUrHp66qmnbNSoUe4O2olbCXGHWKEfxIMgTqLLDkSAu8n/gUtgYfEP9/sv7jJWF0XfiPjCIkK/cFHhTmMuYbxwb2H9mjdvnruFscJNhNuHNgfp+eefd64tCRSHKbw/27fvSNL4/PnzGcFSSU76B+t8d42/cX9nzJhlffp8bkcfXcFuvrmB77e8yW3dRf2IgAiIQMYTyJASZ8+ebTfddJMTBsSdYEXApcGESAWIhly+64OVPxynJ+XPn993Y99i7733XpKEawIBkZ4ymPgRCcnzRrdjnS+i2rRp4//b28ctc0YUDR482E4//fTkt6V5fPzxxxuWGoQbriQy03ZcUhdccIFhKcJV8vjjj3MpQxOCJ7pABA7urehz7MOCsWCfZcm4gBgnLCXjxo0zrEBYbsiDECSehj4EiXgVXEZYgSgj7ClHWFBy5UowAlpXr14bGa8lS5b6+3vMHkcddYRNnDjNBb/6F9x/yH//Pd8IsOWYxH7hwoWsevWqVqHC4b7FpZQRl8K1faUtW7b6bykb95VN10VABEQgwwkQi8HbOIGeiAdcGsRpBC9lvLHznRCsLNHigMmQN/eUGkQZCB8sGlWrVjUSIoByk1tEUrqfcyVLljTP84zJN7BYYJlgkuU6KXADPfzww3bVVVc5F9Fhhx2216oX8gZp7ty5zvKDKyUol2tYwaNFAPEktPuOO+5w7ce9hJuFvAeaCJ699dZb/blh1zdPECfElcAfYUG5J598smGpwYrEMYlVQgTl4kLiHmKLaC+uHYJf+aYNooa4mWOOOcawTFEe7Q/SkUce6VxUiEfKDHuKG4HCapyxY3+x6IQ7hoEuVqyIP5hFrHfvgfbzz5Ptm2/GGMuJo90yp556gqFqu3X7xIYO/c73431rI0f+ZGXKlIyMcenSJZyAoY6FC5fYr7/+7sqKZEhjhyXHXbv2czEraWTTJRGILwLqTUwQYELE7M/bOEuFCfgkXoTvcwQNxPWBIGElD6tGCG7lzT1YtRPkC7a4iMiHxYEAV5YnsyqFlSW4KYJ8aW0J6mQ1Cx+AIwiUtr300kv+v7N7VjsWL17cTboEulIHEzlt3bJlT9xf8jrKlSvngmoJOuUjZrSTPtM+7r/tttvcLUz+U6ZMsc8//9x94wVLRM+ePd21A/3BssFS6QcffNCtXCLIeOjQoS5GKBAOLHfG0sRqJNqD5Ya2EtuC8KNvjAPfnGFlD6ueKIf5jLHM5Vu74I54xPVFGViVEDK4/A607bF2XxwIFM8XFnmdpYPvkkSnCROmGq4c4kjq1avlVukMHvyNLyymG0GrBQsWiMSFlCpV3B58sLnvs6xoM2fO88tb6av1S61QoYKRMTv55OPtvPPOMup4552e/sM3yv+PoIrv88sXKYc3EdxFkZt279AOgmq5vvuUNiIgAiJwUASCt+iUCmGixIXCNWIxmMwIlMXFwUoPrAa8iSfsjpdjv2vXri4+g+XITZo0MawhCAbKYFJELAT/hhHsyndJiOfA9cDkSGwFQiBwMRQqVMj/9zE/t0cSbaJcz9sVCMoqHlwsuHFYVsvH4JisCYL1PM/Y0nasIogiVrtgjahSpYr7tkmk4Kgd+s4S57p16xrtb9CggVtWPXr0aIMBwoTsBKbiKiLeAy4Ihfbt27t+e57nrDswDoQF95A4pg72k6dKlSoZrhZEWxOfIXE/rAzCtRbkpV0ICwJ0uXb//fe7L81yLmCGxQRrTuPGjd3SbFYNITCxUlEOQpAxRKxRBmLyhBNOcK4qrsdDSgh7J1gxc8stDa19+wf2Srfe2tDy5MntunjyycdZ27b32+OPt7RHHrnLTjrpOGvXrrUvSCq46yjTFSsS7YorLrEHHmju+zqvt3LlStvatev8MvK4PPyHXL9+LXvssZZ+nttdOvXUyq7MI4881OWpUeM8e/jhO91+9E+9epf6AugOv6xd7Ym+pv2YJaCGiUBME+BNnck3pUZiDWDyCq4hIHAPMEljqcBywSTK/8MlyIPo+Pnnn53Lhbd2YjXKli3rLjMx8t0RxIQ74f8wuf/000++Zfpnt+SYQFRcFP4lF2yLSHjYd81wHCQEACtQmOQ5h5uClUgIE1w9uD6YwFn2jIWFPATN0lfaSx8IBiWO5tlnn3UigjzJExZxViZNnTrVfTuFfuHqIujU8zyXnbqxzFAmVhYsHYgzLCrcj1hgufWDvjXE3bD7B7GBaNp9uNcGRvSHNk/xLTQpWTXoI+NAu1hxxbdQEIFBYYhKzpPgQkKUBdcRigTJsgqKa5QFxzx5ds1XQb4wb0MvUIDPoDJYyRPnuR6kPL5YYdmw53nuoSa/53nu8h9/zLI33uhuv//+l4s/2bFjp/9Q/2yrV6+z6KXHZKYMxEvBgvn3KgcRQ7nki060BTEVfU77IiACInAwBJhg+TcnpTLy+BNV9L9Fnue572SceOKJVtx3m3APk3Dy+ymTZcEIjehrnuf51uo91mLuJ5Gf1T8VKlTwX8CSTo7UTyJfkDjmHs/b9W8v5z3Pc24crDhBm5LnyZ8/vx133HHuf4q369/TvEZZ3J9a8jzPWB1Dn2ljSvkpi9gNLB/UQZ+pOyiT/eT3cQzfIE9KW/pRsWJFQ+B53p6+RudFAMEaixP1Rl8L9hGQcMHyFJyL3mLh4Trfl/G8lOuJzh+m/YQwNTYz23rMMRXtoovOteHDR9urr75vHTt+YFOmzHAfXKtc+djMrDrzylbJIiACIiACIhBSAhIouweOuJE6darZPffcanfffbO1aLErVa9e1VfpuXbn0kYEREAEREAERCArCMSyQMmK/iepw/M8K1AgvxUpUthPBHflS3JdByIgAiIgAiIgAllDQAIlazirFhEQAREQARGIEQLhaIYESjjGSa0UAREQAREQgRxFQAIlRw23OisCIiAC4SegHuQMAhIoOWOc1UsREAEREAERCBUBCZRQDZcaKwIiEH4C6oEIiEB6CEigpIeS8oiACIiACIiACGQpAQmULMWtykQg/ATUAxEQARHICgISKFlBWXWIgAiIgAiIgAjsFwEJlP3CpczhJ6AeiIAIiIAIhIGABEoYRkltFAEREAEREIEcRkACJWQDruaKgAiIgAiIQE4gIIGSE0ZZfRQBERABERCBkBHIYoESMjpqrgiIgAiIgAiIQLYQkEDJFuyqVAREQAREQAQykEAcFiWBEoeDqi6JgAiIgAiIQNgJSKCEfQTVfhEQAREIPwH1QAT2IiCBshcSnRABERABERABEchuAqEXKNu3b7fffvvTxoyZsFf688/ZGcJ348bN9uOPEy0xcU2GlKdCREAE4oyAupNpBDZu3GjffPON9erVy0aPHm3btm3bq65169bZV199Zb1797Zx48btdZ0TiYmJNnjwYOvTp4/99NNPxtzBc1za1gAAEABJREFU+SAtXbrU1UNdQRo1apRt2rQpyJLmdseOHfbrr7+68r/44gtbvnx5ivkXLFhglLtly5YUr6d0krLp+9y5c5Ncnjp16l5tpu1JMoX4IPQChYcVcTJ8+GhfRPySJP35598ZMjQbNmywzz8fYUuXrsiQ8lSICIiACIjAvgkgTq666iq7/vrr7amnnrL69etbgwYNDEES3M3kfdttt9kNN9xgTzzxhNWpU8fuu+++JEJm7dq1dumllxr5HnvsMbv88svtgQcesM2bNwfF2JAhQ6xhw4Z27bXXRlKzZs1SFRqRG3fvvPvuu66ORx55xJo0aeLaMW/evN1XzWgnAun000937VizJn0vvEuWLLFatWrZFVdcYZ999lmkPNrevn17u+aaayLtDdoeyRTyndALlID/eeedZY8/3jJJatDgsuCytiIgAqkT0BURiDkCO3futCeffNKJiF9++cXmz5/vW8nH2N9//219+/Z17WXSb9Omjf333382adIkl2fgwIE2YsQI+/LLL10eyrnxxhutUqVKhmCgnGHDhtnIkSNt/PjxLg8/s2bNsltuucXlIR9pypQpduihh3I5zUSb3nvvPfvggw8MC8mff/5plStXthdeeCFy3+OPP26vv/66vfTSS5Fz+9r5448/nDg766yz7Nxzz02SHfGGyHnxxReTtJl2J8kY4oO4ESj7GoMZM2b5D0c3a9u2o3344f98VbwyyS2o0aFDR9qzz77p0ogRo23Llq1J8qxdu9433w10ZbzxRnf/P5T5Sa7jAurZc4C7/tJL7/qmxl8j1/mPZPbsebZw4ZLIOe2IgAiIgAikTGCL7wLB7YJoOProo83zPDvllFMMi8qMGTOMf1OxLgwYMMCwWBx77LGWkJBgNWvWtJtvvtkQKpTMRL5s2TInPooXL265cuWy888/38444wybPn06WVxCoBxxxBFGniAVLVrUlekypPGDEDnttNNc23Lnzm1ly5Z1FhqEEHVzK+399NNPneDgOD2J/iFAEDVlypRJcgv9Wr16tWMStDfYJskY4oMcIVAmTfrNV9Pf2oknHuubyS6xAgXyGUJi9eq1buhQ4X37fmFz5y60atWqWPXqVW3GjNnuHpfB/+HhmjBhipUpU8rq1q1uxYoVtX798DPuEjqLFv1rnTp18x9mz+rVq+Wr3dMNwYP7iXsRL//73xD79NOh7o3AL1J/M4qAyhEBEYg7Avny5fNfCPvYnXfeGekbL5ITJ060I4880gmWOXPmuBiRCy64IJKHHVw4U6dOZdcKFixoP//8s//vdl13zA9uewQJwodj0syZM40J//3337dXXnnFxatgoeBaWon5g7gPxBNtDvIecsghVq5cOfvxxx/dKcpEuLiDdP5ccsklRt8QXslvQaDQPkRc586drWPHjs7CRHuS5w3rcdwIlGnT/vAtI/2TpOXLV7pAKKwhdepU932C1a1q1TOsUaMrfKFR0r75ZteDQ5DtsmUrfB9mPSdQLr74XLvxxvq+kNjq/IbB4J50UiWrXftiw510000N3OkgLqVUqRLWuHF9u+66K+2cc061GjXOtzPPPNlmz57v2lCsWBHfT3ilf/0Ky5s3r7tXPyIgAiIgAukjwIte9+7dDSFx5ZVXupsSExNdrAliwJ3Y/YPlIzpOZfdptyE4tm3btoalA9cJJ7HWzJs3z4jxQABNmzbNbr/9dnvsscecACIPQapPP/20RScEDfWQECPkCxLCqHDhws79EpxLbfvyyy8nKReRlFre4DwChfoRJjBBCBGH061btyBL6LdxI1Dy5s1jPAzRKSEhly1a9J//gG2xjRs32R9/zHZp9ux5zsw3Y8ZMN4CTJ8/wlW5p37RXzB3zU65caV+k1PMtIrsQeZ7n5ynjVDvXqa9o0cK+iNkViZ0/fz476qjDbenS5a6OX36Z6vtD/3ECx3elunIqVapohx9+SKQMyjEzbURABERABPZBYMSIEcbETTruuONc7sBakMt327gTUT+e50Ud7dlF5AwdOtRwm5QuXdpd4KXxr7/+MmJdmOBZ6UOMytdff22BJWbFihVGnui0dWvSMABXWLIfz0u5HdHZiGGJLnf+/PnRl1PcP/74410MzdixY+2dd95xLi3icQjSxTqU4k0hO7lr9g1Zo1NqbuXKxzrrxHXXXRHZlixZzDDloY4nT55uP/00KZIQLBUrHu6KWr9+g+XLl9cXLWnj8LzUH7RFvovn3Xd728cfD7KxY3+xxYv/s9KlS7ry9SMCIiACInDgBBALrVq1svvvv98C6wmlYSlBnODm4DhIWBfy5MkTHEa2/fv3d5P5W2+9ZRdeeGHkPDtYYYjhYJ+Ey+aiiy5yAbccs8KH+6MTAoeXYgQOAoZ8QWJ5Mu0oX758cCrVLcG10eUS05Jq5t0XsABVqFDBvfxyyvM8t6KHfk+YMIFToU9pz8jp6V6M5yFWpECB/NagQW1r3vz6SGrS5Fq79dZrXOvLlClpBMBGq+Ht23dYYuJqd31fP5geR40a57tydvj/ATX1TYONrX792layZPF93arrIiACIiACaRCYPHmyPfjgg9a0aVOXorMSi5IvXz7DLRN9HnfHSSedFH3KsJoEFgaWHEdf5EWWFTu4aqLPe563T4t3QkKCVatWzVlXoucQRNPKlSt9l/850UVm2D7uHVb5RBdIWzhGtLENe4p7gYKrBpHy66+/R8Zq27bt/sM60llTOHnBBWc5i0f0ChvcQR9/PNhFipMnrYQLhzJx+SCGyLt27TqbMmUGuy5hipw4carNmDHLHetHBERABEQgbQK4KrCcNG7c2B5++OGItSC4CwtC9erV3QfaEhMT3WkCZ1nyG21pQeS0a9fOBb8Sp+F5nssb/CBM6tWr54Jyg3N8dA33Se3atYNTqW5ZQjxmzJjIqiD+ve/SpYuxsic6EDfVAlK5kNbp2bNn29VXX22//faby8aL8qBBg1xYwXnnnefOhf0nLgQKqjEhIekDFwwM166++jJDoLA0+LPPvrLOnT/0hcJMO+GEY122ww47xAh8/fDD/v6DPtB69Rpg/foNtlNPrRxRz5TjeUnroE5OsT3jjJPtn38WW9eu/WzQoK+tW7f+LhCXa1SyatUaF5Q7fPhoFw/DOSUREAEREIGUCWDVYAUPsRl8Jfayyy5zH0LD+kGcBRMybg7iL/gOClYMliSTD+HCR90oGeHCOSwaxJcgOCiDxMoa8rC6hmBT4lL40FujRo3cx9zq1q1rp59+OlnSTORp0KCB8TG1m266yZ9PzrMffvjBEC6el3TeoCDa7Xl7n+daagmrCPNQcP3EE0+0iy++2Gjvdddd51xfr776qj+H9Tb6H+QL8zb0AiV37jx2ySUX+Er1hFTHoUKFw+yOO26wKlXOsOLFi9oFF5ztjkuUKBa5p0aNqnbzzQ3tiCMONWJTbrutkf+QnemuFy5cyBo3rmdYY9yJ3T+XXnqRHXnkYe7olFOOt2bNrrfjjz/aihQp5Lt4atlVV11qF11UxcW2sIqH5cdXXnmJEVDrbtKPCIiACMQtgYPrWO7cuQ0hwhLali1b+q7z2yMJ4RCUXqxYMfv888+dhaVKlSrGipiPP/7Yd7GXdFmID3nzzTfdeQQPq3OChKhxmfyfIMYEocG3VHr27Ok+tIYLyb+8z7+s7iEAl2+s3H333fa///3PzjzzzL3uK1CggFsSTOzKXhfTOEGZLJ8OslDOG2+84b8Md7MaNWoYFiA4ROcJ8oZ1G3qBkitXgh133FF22GHl0xyD8uXLOMFx6aUXuqXGyQNYCSyqXPkYq169qq9Kq7gy+Q+EQvPly2tnnXWy4cLhOEjkD+JMPM+zo446wvdFVrWaNS+wo48+0g45pKwde+yuIKbcuXPZyScf55d7dMQqE5SjrQiIgAiIQFICCAsmW9w7yRNuHc/bY4HgA2t8nO3ee+91n6svUaJEpDCW+ya/PzhG0AQZc+XK5b/EVrEWLVoYYgDLBCIguL6vbaFChZw145577rEmTZoYFg7P29PG4H76hQjKly9fcCpdWwJ2KTM6M32DEe296667nCDyvL3rjL4nTPsJYWqs2ioCIiACWUVA9YiACGQvAQmU7OWv2kVABERABERABFIgIIGSAhSdEoHwE1APREAERCDcBCRQwj1+ar0IiIAIiIAIxCUBCZS4HNbwd0o9EAEREAERyNkEJFBy9vir9yIgAiIgAiIQkwQkUDJlWFSoCIiACIiACIjAwRCQQDkYerpXBERABERABEQgUwikKFAypSYVKgIiIAIiIAIiIALpJCCBkk5QyiYCIiACIiACB0lAt+8HAQmU/YClrCIgAiIgAiIgAllDQAIlazirFhEQAREIPwH1QASykIAEShbCVlUiIAIiIAIiIALpIyCBkj5OyiUCIhB+AuqBCIhAiAhIoIRosNRUERABERABEcgpBCRQcspIq5/hJ6AeiIAIiEAOIiCBkoMGW10VAREQAREQgbAQkEAJy0iFv53qgQiIgAiIgAikm4AESrpRKaMIiIAIiIAIiEBWEZBASS9p5RMBERABEciRBLZs2WKJiYk5su/Z2em4Eijbt2+3xYv/sz/+mG3z5y+yrVu3ZSfbNOvesWOHLV++0pYuXZ5q2rp1a5plHMxF/oOj/m3bth9MMbpXBERABOKewJ9//mlvvvlm3PczuzqYWr1xI1BWr15rH3zQ13+IPrLevQfae+/1sddee9/mzl1oO3fuTK3/B3Q+MXG1rVix6oDuDW5av36jffTR/6xTpw9deuWV943UqVN3d8x5xFaQP63typWrbNmyFWll2evanDkL7Z13ejmRtNdFnRABERABEbANGzZYz5497c4777QuXbpY/fr1bezYscbLcICHF8lhw4bZJZdcYqeccoq1aNHCFi5cGFxOcUuZV199tTVs2DCSmjVrliTvmjVr7KmnnrJzzz3XzjrrLOvWrZtt2rQpSR6OO3XqZFWqVLHTTz/d/zf9Hdu8eXOSPGE+iAuBwkT+1ls9LH/+/Nas2fV2//1N7a67brQTTqhkPXp8ZtOnz8zQMfr++3E2YsQPB1VmwYIF7JZbrrF77rnVpWOPrWDHHHOk/3Df7I45X7582XTVMWTISBs4cHi68iqTCIiACIhA+gg8/PDD1qtXL7v44ovtzDPPtHPOOcfuuOMOJwR48SV17drV7r77bmvUqJG1a9fOcuXKZY0bN7YlS5akWsnPP/9s+fLls8suuyySqlWrFsmP8GjTpo2NHj3an8/ud+nDDz+0l19+OZIH8fToo49a3759rWXLlkZb+/fvbw8++GASARW5IYQ7oRcouErGjJlgCQkJduON9e24446y8uXL2FFHHeGr3VpWseLh9u23P/qqcktkeLZv3+FEy5gxE/2HaGmKFhasJD//PNkmTfrNV9Eb3b3UNXfuAktMXGNr166z2bPn2fr1G9w1fnbs2GkLFiyyH3QwiJoAABAASURBVH6Y4FtuFqRYLvlIuXIluHYefnh5IyFYChTIb4cdVs4dcy5fvrxktS1bttrUqX/YuHG/+paSle5c8LNo0RJbt269ayPtWbVqdXDJtm3bZn/9NcdX/JNszpwFabaHm/iPja2SCIiACOR0AitXrrQvv/zSWVCuvfZa/wXyGGfRaNq0qb377ru2atUq/9/mLTZo0CB79dVXnUi45ppr7MUXX3Tn+/rCITWGixcvdpaTu+66y3+Z3pVuu+22SHYsMFhlvvnmG7v55puNa+3bt7e3337bn3dmu3zz5s2zwYMHu/q5ftNNN1mHDh2sX79+Nn78eJcn7D+hFygbNmy0efP+sXr1avqKdNeEHgyK53lWt24Nq169anDK/vxztv8wvW+jRv1s8+f/Y336fO4r5IG2Zs06lwcx8OWX3/oPQi+bNWuuTZv2p9uf59eBWQ+RsHjxUvvvv+X2448TbeXKXYKA4/ff72OffTbMlTt48DfWufNHvqkvdRXtKkzjB8EzefJ056qi3pkz51r37p/Yp59+ZRs37jL1TZv2lxMtq1atce1ZtOhfVyKC5PXXu9l3343d3Z6vfRdYPydkXIaoH4QJFqEOHd6y4P6oy9oVARGIYwLqWsoEcN3kyZPHfwHcNTcEuVq1amUTJkyw4sWLW+7cuQ0rxuWXXx5cdhaUBP+F2fO8yLnkO//9958df/zx/gvtAps5c6ZRV3QexE2tWrWcVyA4f9ppp1mZMmV86/0IdwpXEy6lww47zB3zg4WnVKlS/kvyDxyGPoVeoGzZss2IP6lcuVKKg1GuXGk7/fSTnHhZv36jDR8+2ipVquj7FG+wG26ob7ff3tjmzl1oI0f+5CwMK1eu8q0mv/uq9WrfItPAd8M0tCpVTjcmfB7W66+/yipXPsaOPrqCu4alg2DcoUNH+v7BLa7cG29s4Fw1uXPnsm++GbPXw5diQ1M4iTVk+PBRvg/ydGve/Hq/TQ3s1lsb+f9xTDGsO9xSu/bFVtG3Eh16aFnXnhNPPI7T9vff8+zkkyv75sgbrHHjq5zbiL4hylyGqB/P86xgwfz+f1i5/f8g8pn+iIAIiEBOJ1C2bFkX+3HFFVfYJ5984izSMMmbN68VLVrUWe1z+e6cmjVrWuHChbnk0pQpU/wX04X+y3Fdd5zSDwLl/vvv9+eWKs59hKtnwYIFkawTJ07055ijI8fsIE5KlizpBA3HM2bM8P+NP5ndSMqfP7+deuqp/kvpfNuxY0fkfFh3Qi9QePv3PM9Xsrn2OQarV6+xRN89c9VVNQ2xkStXgpUoUcy3sFRxVpgNGzb5k3QuV9bff8/38672jxOsWrUqdskl57vyc/kPZEKC5z+cnn8tl3me59w9xMFcccUl/oNayD+f4Cb666670n9QF/tWi13WDtvPP0uW/Of7Ene4uvPkye2Xm8sQIuedd6YTTLhwcvl98DzPtSPX7rZRTa1aF/v/gVT3d3c669Dy5YlOpAUWH/9Ckr8XXXSuPf54SytVqkSS8zoQgdgmoNaJQOYQ8DzPWLmDiwWLycCBA61BgwbO5bNhwwZL6c883+3y9NNPu5iRypUrp5TFnbvqqqv8F8fG9vnnn/sW/F7OGkOQ7Pr16911ys+XL+nLoud5VqxYMf+FfJfVHhdTtDByN/o/iCdiWCRQfBjZ/Rex4HlexOWRVntWrkz0H4SihgKOznfMMRV9EbHBWTqYoKtXP8/Frbz9dk/fTfOhjR37S3T2vfZxC/FAHHNMhSTXypYt5avu7X7aluR8eg+woBBPk5CQVEcSUItLCpdTamXhAhowYJjvHvrA/4/sI9+987EhUhB0qd2j8yIgAiIgAnsIlC9f3tq1a2fPP/+81alTx6UXXnjBxZskd8sQV3LjjTcaLpf77rtvTyEp7HXu3NkF1latWtVq165tlMn9o0aNcrkLFCjgv5xud/vRPwgYrnEOcbJx40Z2kyTOMcclnzeSZArJQdKZLySNjm5mvnx5rWTJ4vbrr79Hn47sYwkZM2aC737Z7AuTPL6Q2Ry5FuwgLhhMz/N8y0iCXXjh2da2bStr2PByO/LIw5xY6dfvC+cCshT+JDiLSoKrI/oywbi7jr1dm/38xWqycePe7d24cZNvAcrtl5ZyubicEFdLliy1yy6r5txDTzxxr9+XQ/179DeWCKgtIiACsUlg3bp1lpiY6BpXsGBB59Zp0aKFPffcc4aQmDNnjrvGz9q1a+2hhx6yww8/3N566y0rVKgQp1NMvFhiIYl+WcSdhPtm9uzZ7h7cNNEuH06uXr3aVqxY4YJ1OSaGhfgV9oOEVX369OlWrlw5N5cF58O6Db1AKVAgvx1//NH29ddj3Efaogdiw4aNRmwIH24jmAnrCGvEmbiDfDwk48dPca6eAgXyuVU5M2bMcjEZp5xyvF199WWGS4XVPJs3bwluS7It4KvdYsWKutiQ6AvTp//lP6gFfddKnujT6d4vV66M+4gb1pLgJsx2Y8dOsjJlSu4WKbuuRH/qZfXqtb61ZKXVqHG+nXnmyb6iL+/EWWLi6l2Z9SsCIiACIpAmAVbwYAnheyTRGT0v6YshQqZ58+b+y+9Ge++995wbJjp/8v358+cbK4EQNcG1lStXGunEE090p/hGyg8//OBWA7kT/g+xLcuWLTNiXvxDf146zyZNmmTEs3BM+vXXX23RokXuGsdhT6EXKJ7nGS6ZokULWe/enztLCitR/vrrb/941+qcevVqubiSYsWKWOXKx1r37v1t9uz5/uS/wrlv/vzzbxeIills5crV9sknX/piY6rx8bNFi/6zv/9eYFhS8uff5RMsWrSIC6xlZc+mTZutSJFCdvrpJ9rIkWNt6tQZrtzff59p/fsP8c+f4ETKgTwouHeOPPJQ+/DD/sbyZVYKff31D058nHHGyRGFjDhatSrRWOWzbt16X+kX9gVWQZs1a45ry7//LvN9nSP8t4E1KTYDkUYw71NPvebnX55inpRP6qwIiIAIxCcBPrxG7AnfHsGykZiY6FvTv7WXXnrJzj//fBfEijWE5b/ffvut3XrrrS44FZFAmjVrlgODK6hnz5726aefuuOjjz7a5WP1D9aOadOmueXLhx56qD+XVXd5TjrpJFd+gwYNjOtTp051y5fr1q1rZ5xxhstTqVIlt3/99dfbL7/8Yr/99pu98sor/kvpmcYKIJcp5D+hFyjwL1SogN1110129tmnGB9R69btE/fhMib4O+64wdiSDysKy47PPvtUGzRohHXt2s8f/D/suuuusNNOO4EsdsghZa1+/do2fvxkJ2Q+/vhzd65p00buOj/Uc/TRR1rfvoN98TKfU3bxxVWMskeNGu/KZcLHvVK9+nkugNVlSuMH6w7J8/ao8wK+dahRo7pWocLhTjTRLwRT06bXuZVIQXEE8BL/MnDgMJs8eYazljRp0sh944U+9u07yFmIEDWFC+8yPVL2oYeWi1hh8uXL5+JzcHUF5WorAiIgAjmVAG4ShMU///xjzzzzjA0fPtyefPJJ45soBM/myZPHxRf++++/bjVNp06drHXr1pGEqwd2xISwbJgYE45JH3zwgYt7RNTwDRPESffu3f1/j3dZ2wv5LqLXXnvNiGfB2kIALV+TRSxxP6lYsWLWsWNHt9KID8VRVsWKFa1Pnz7+CzkhAOQKd4oLgcIQMPHWrHmBtWlzh/8wtbbHH7/HCY1y5UpzOZKKFi1sdepU8/2Fd9qTT95rLVveaqeeekLEGpE7dy5/wE+2++5rYo891tIeffRua9Cgtm8l2bOMrFixonbDDfXsiSfusZNO2rWsN0+e3L5Z7Sxr1aqp/xDfaw880NwXLee61TyRytPYYQXQVVdd6lbqRGdjlRFupkceaeHKZbkxy6Q9b4+QwYLDiiHae9FF57jbK1Q4zO6++xZ3z4MP3mHVq1e166+/0rD0kIHriLdAFF188bmOSenSJbmsJAIiIAI5nkDVqlXdKhs+foaQ4ANojz32mJUuvWte4cWud+/e7rsjuGSiEyIGgAgUVtywcodjEt80Qfzgopk8ebK9/vrrVqFC0kUWxJh07drVuXHIx0fYWGrM/UHiHkQKy5IpB1FTvnz54HLotwmh74E6IAIiIAIiIAKZSAB3yu23335ANWzYsMH4eBqunQMqIJw3ZUirJVAyBKMKEQEREAERiFcCfFvkuON2Wcv3t49FihTxLdlP7u9tyu8TkEDxIeivCIiACIiACEQIZOAO7qALL7wwA0vMOUVJoOScsVZPRUAEREAERCA0BCRQQjNUaqgIiIAIpIuAMolAXBCQQImLYVQnREAEREAERCC+CEigxNd4qjciEH4C6oEIiIAI+AQkUHwI+isCIiACIiACIhBbBCRQYms81JrwE1APREAEREAEMoCABEoGQFQRIiACIiACIiACGUtAAiVjeYa/NPVABERABERABGKAgARKDAyCmiACIiACIiACIpCUQLwJlKS905EIiIAIiIAIiEAoCUighHLY1GgREAEREAERyEoCWV+XBErWM1eNIiACIiACIiAC+yAggbIPQLosAiIgAiIQfgLqQfgISKCEb8zUYhEQAREQARGIewISKHE/xOqgCIhA+AmoByKQ8whIoOS8MVePRUAEREAERCDmCUigxPwQqYEiEH4C6oEIiIAI7C+BLBMonufZzp0797d9yi8CIiACIiACIpADCWSZQMmVK5ft2LEjByJWl8NPQD0QAREQARFgDk9IyDLZYFlWU+7cuSVQ9HyLgAiIgAiIQEgJbN++3fLkyZNlrc8ygZIvXz7bunVrlnVMFe0hoD0REAEREAEROFgC27ZtM+bygy0nvfdnmUDJmzevob7oYHobp3wiIAIiIAIiIALZT4C5GxcPc3lWtSbLBAoxKJiG1q1bt599U3YREAEREAEREIHsJLB27VojVCMuY1A8z3OmoU2bNjlLSnaCVt0iIAIiIAIikOMJpBMA1pPNmze7OdzzvHTedfDZEg6+iPSXUKBAAbfUeMOGDem/STlFQAREQAREQASyjQBzNp8JYQ7PykZkqUDBzVO0aFHbuHGjAmazcpRVlwiIgAjEHwH1KAsIsLiFObtYsWLGHJ4FVUaqyFKBQq0FCxZ0fqxVq1Zp2TFAlERABERABEQgBgkQFMtcTfwoc3dWNzHLBYrneVa4cGHn6lm9erVESlaPuOoTARGIDQJqhQjEMAHECXM0TSxSpAibLE9ZLlDoIcuUSpQoYVu2bDEAAILzSiIgAiIgAiIgAtlLgDk5MTHRzdHM1VhQsqNF2SJQ6CgipXjx4g4AJiT8XJxXEgERCAUBNVIERCAOCTAXr1y50li5wxydXeIEtNkmUKicL9KVLFmSXUOksM4a5eZO6EcEREAEREAERCBLCDD3MgczF3ueZ1hOmKOzpPJUKslWgUKbUGeIFECsX7/eli1bZmz56izLmsijJAIZTkAFioAIiEAOJ8D1MXoGAAAQAElEQVQcy1zLnBvMvfnz5zfmZObm7MaT7QIFAJ7nGUuYSpUqZayzBtby5cudVYUYFb4+yzpsljopbXTLtMVBHPQM6BnQM6BnYH+fAeZS5lTmVqwlzLWcY5UOczCfAvE8j6k521NMCJSAAooNOGXLlnXmJT6py5dnMTsBk6AdpURLTExUShSHRDHQfwd6BvQM7OczwFzKnMrcyhxLnEmZMmWMlTrMwcF8HAvbmBIo0UCCINpy5coZggWApUuXNiUx0DOgZ0DPgJ4BPQMH9gwwlzKnMrciTgiviJ57Y2k/ewTKfhLg63X8T4pQd0p5TAzEQM+AngE9A3oGDuQZYC5lTt3PaThbsodCoGQLGVUqAiIgAiIgAiEjEE/NlUCJp9FUX0RABERABEQgTghIoMTJQKobIiACIhB+AuqBCOwhIIGyh4X2REAEREAEREAEYoSABEqMDISaIQIiEH4C6oEIiEDGEZBAyTiWKkkEREAEREAERCCDCEigZBBIFSMC4SegHoiACIhA7BCQQImdsVBLREAEREAEREAEdhOQQNkNQpvwE1APREAEREAE4oeABEr8jKV6IgIiIAIiIAJxQ0ACJWaGUg0RAREQAREQAREICEigBCS0FQEREAEREAERiBkCGSZQYqZHaogIiIAIiIAIiEDoCUighH4I1QEREAEREIE4JpBjuyaBkmOHXh0XAREQAREQgdglIIESu2OjlomACIhA+AmoByJwgAQkUA4QnG4TAREQAREQARHIPAISKJnHViWLgAiEn4B6IAIikE0EJFCyCbyqFQEREAEREAERSJ2ABErqbHRFBMJPQD0QAREQgZASkEAJ6cCp2SIgAiIgAiIQzwQkUOJ5dMPfN/VABERABEQghxKQQMmhA69ui4AIiIAIiEAsE5BAyczRUdkiIAIiIAIiIAIHREAC5YCw6SYREAEREAEREIHMJJCWQMnMelW2CIiACIiACIiACKRKIOYFyo4dO2z79u22bds2JTHQM6BnQM+AnoE4eAaydz5jTmVuTVUZxMiFmBQogNuwYYOtWrXKVq5caStWrIhs2Vda4ZiIgzjoGdAzoGdAz8D+PAPRcypzLHMtc26MaJIkzYgpgYKVZPXq1bZ06VJbu3atU8l58uSxwoULW9GiRa148eJKYqBnQM+AnoFsfgaKq/7QPoPMpcypuXPndnMscy1zLnMvc3AShZDNBzEhUFBva9ascVYSAAGwZMmSVrp0aStWrJgVLFjQ8ufPb/ny5VMSAz0Degb0DOgZ0DNwgM8AcylzanFfZDLHMtcWKVLEtm7d6izzzMW4gLJZm7jqs12gIEiWL19uGzdutEKFChmwgIflxPM810j9iIAIiEDGEVBJIiACEPA8z5hrmXtLlSrlvBW4fHADMTeTJztTQnZWvmnTJqfYMDUBB0ieJ1GSnWOiukVABERABHIeAc/znJGAuThXrlzOo8EcnZ0ksk2gbN682RITEy1v3rzOaoJIyU4QqlsEwkJA7RQBERCBzCKARaVEiRLGnMwcvWXLlsyqap/lZotAocNED+MLww+2z1YqgwiIgAiIgAiIQJYQ8DzPECnM0czVxKdkScXJKskWgULUMCYkgmE9Ty6dZGMS54fqngiIgAiIQKwT8DzPrZ71PM+tqs2O9ma5QFm/fr1b2oQ6S0jI8uqzg7HqFAEREAEREIHQEWCOZuEKAbMEz2Z1B7JUIdBJrCes0sG/ldWdzYj6VIYIiIAIiIAI5BQCzNUFChQwlh8zh2dlv7NUoLCUmM7RWbZKIiACIiACIiACsU0gmLODOTyTWrtXsVkmUHbu3Gms3KGjKLK9WqITIiACIiACIiACMUeAOZu5mwUuzOVZ1cAsEyh8LRbzEF+sy6rOqR4REAEREAERyBICcV4J3yljNQ9zeVZ1NcsECh98YeUOQTdZ1TnVIwIiIAIiIAIicPAEsKIwh+MJOfjS0ldClgkUTEN0MH3NUi4REAEREIEsJKCqRGCfBJjDmcv3mTGDMmSZQME0ROcyqN0qRgREQAREQAREIAsJYEFhLs+qKrNMoOC38jx9lC2rBlb1iECOIqDOioAIZDoBQjSYyzO9ot0VZJlAIfLX8yRQdnPXRgREQAREQAREIA0CWSZQ0miDLolATieg/ouACIiACCQjIIGSDIgORUAEREAEREAEsp+ABEr2j0H4W6AeiIAIiIAIiEAGE5BAyWCgKk4EREAEREAERODgCUigmB08RZUgAiIgAiIgAiKQoQQkUDIUpwoTAREQAREQARHYReDgfiVQDo6f7hYBERABERABEcgEAhIomQBVRYqACIiACISfgHqQvQQkULKXv2oXAREQAREQARFIgUBcCJQFCxbY+PHjk6S//vrLNmzYYNu2bUuh2+E/NWvWLJsxY8YBdWTKlCn2zz//pOtevgC8ceNG+/777+2tt96yDz/80GbOnGkp/Q+j5s6da5QdFPzTTz/ZTTfdZGvWrAlOaSsCIpBlBFSRCISbQFwIlHfeecdq1qxp9evXt6uvvtql8847zypXrmzNmzc3JkomWjuAP4icLl262KJFiw7g7sy7pW3btnbvvfceUAU333yzffDBB/u8d/v27fb222/bWWedZddcc42754UXXrCqVas6xmPGjElSxptvvmm33XZb5NwXX3xhpOT5IhkyaOerr76yzz//3GhvBhWpYkRABERABLKZQFwIFBjmz5/fvvnmG/v7779dwkLw3HPP2Xfffefe4idNmkS2/U7r1q2zJ5980rAO7PfNIb/h2WeftSeeeMJOP/10++2332zixIlu27t3bxs3bpw1a9YsTevIM8884/JffvnlmUqiZ8+e9v7778ettSxT4cVw4WqaCIhAziYQNwKFYcyXL58VKFDApYIFC7q3+dGjR1uJEiWcyNi6dSvZIon/KyOuIN7wf/75Z/vvv/8i17C44Dr6448/jHxz5syx33//3RITEyN52MHCMm3aNPvhhx9s8uTJzq3E+eRp8+bNNn36dJdvwoQJe5WTPH/08fr16+2XX34x+oIAi76WfB+XFm0m76+//mq4Z5LnSc8x9XXr1s1ZSrAgHXbYYYYIhO8VV1xhP/74o3meZy1btjRYpVQmvBF4/B8wk1+nH3BH9KxevTr5Zfvzzz9t4cKFruzZs2c7bvRn06ZNkbxBX7mfeuCL64vzQSbahvULK9rYsWOdJYzxDK5rKwIiIAIiEJsE4kqgpIT4mGOOsaefftrFp4waNSqSBTHSoEEDq1Wrll177bVuIr7gggvs448/dpMik9iLL75oN954o4u3eOSRRwxLABaZoBAmUMqoW7euK+PKK680jhcvXhxkcVviNW6//XarU6eOy0eeSy+91AkelyGNHyZq3Ff16tWz6667zmrXrm2ffvppinesWrXKbr31Vrvssstc3quuuspwdTGxp3hDGieHDx9uTPxYUYoWLbpXTtxnd9xxhy1ZssTWrl2713VOIAhgxn6QEBJ33XWXc8k1atTIueXOP/98+/bbb4Msbtu0aVN75ZVXrH379i4vY0R/GjdubIFIWblypXGMuMTCAyMEU3TMS9++fQ3WuKhI1apVM4QXwsVVlGk/KlgEREAEROBgCMS9QAHOKaecYoceeqgNGzaMQ+PN/rHHHjMmNibLwYMHG24LJl0mRKwqvPXfd9999t5771nevHmNmA/Ey8UXX+zKYPIm3mL58uVuEh04cKAhaBAJTILz5s1z+XibJw6GyRpX0ddff+3KxNrz+OOPuzyp/eCmog6sILRryJAh9tBDD1m7du2SBKNyP5YdxAkWiQceeMDFfrz66quWJ08eZ+VYtmwZ2dKdsKBUrVrVKlasmOI98Hn44YedCy0lAcNNCDNEBPtBQvAQM4IAGTBggL377ruuDtxFBDoH+eDLeHHu9ddfN/jecMMNBkfEIvEmxYsXdyzPPvtsO+GEE6xnz5720ksvWZEiRZzVizGFRY0aNQyh0qdPHydIYZmayAvq11YEREAERCB7CeQIgcKEVaxYsUgcSa5cuaxFixbOWvKYL1SqVKni3rI7depkWD8QKJ7n2YknnugCQj3Ps9NOO80QJ2XKlHEjRkAo7gS2CBCsL7fccotxjFWByZC3dCZaXDpMolgcKIdg3k8++cSo2xWWyg9WDOro1auXYYE555xzXLuZbJcuXZrkLurAjYE7plWrVkafsP4MGjTIVqxYYf3790+Sf18HuEVOPvnkfWXbr+v//vuv0ZfOnTs7wXfhhRca1iSEBa4jmEQXiJsOaweWD/gSU0TALq4hhA/CEetLyZIljfGlPK4jyhjHN954wy655BLr2LGjIVKwpDA+WHVghDUnuj7ti4AIiIAIxA6BHCFQeNsn8dYNevaZwHHvEN+BpQJRwvJZRAVxJeRLLWEZ+PLLL+24445zwiXI53mec6kgbAjKxVJTuHBhZ70hfgXrCW4hXBRHHHGEMelaGn+wIDABI2o8z3M5PW+XWDr11FPdcfCDi+TYY4+1SpUquSXExM+QsOBUrlzZsFYEedOz5T6EXHrypjdPv379DDEBN5jTPhK8ERBYS6LLIl/p0qUjpxAxuOzgzz2RCynszJs3z3FADGI9oh4S4hFGuKUOdJl2CtXplAiIgAiIQAYTiFOBkpQSkxlCpGzZspELiJF77rnHxZ4Qu0D8CO6ASIY0drCK8PZdrlw5Q4Akz4r4wcJBHAuuHL4fQt1YWKiLeApcEVg2kt8bfYyYQXREnwv2cVkF+2wJOiWQl/KjExM0bh9ibsiX3oQwwAqR3vzpyUecCO3AshPdRvaHDh1quMeiy8FC4nm7hFn0+fTsM0aMO1YXyo9OrPhBiJInPWUpjwiIgAiIQNYTyBEChbdm3Au4AEDM2zOxHVhBiE9hKS2uENwkXN9Xyp07t2GFwcqQUl5W7HjenokVVwkWDiZhhBDxIrgdiLtAxKRUBueYoJlk2U+esM5En6NNxx9/vBHjkTzxzRNcG9H597WP1WXUqFGGsEspLxP81KlTDYb0N6U8yc/RRoQVsTjJ28i3bPjmSvJ7DvTY8zy3yghXXvK6cP1gzcEydaDl6z4REAERyJEEsrDTcS9QEBHElhDPgDUBtsR18DaP24PJitUkJ510UqpLhLknOhEUykSLm4Ig2ehruG9Gjx5tFStWNCZkriFCmNCxrPBGz0qgl19+2QWY4loiT0oJVxErcLg/+XWWEkefQ2jhymCVT7S1gH2WBRN/EZ1/X/usHMKVQkxLSvVzrXXr1sa3TtLrCrrooovcih/cObQrOrESijr31a70Xi9VqpQLliX+KLoe9qmLLVat9JanfCIgAiIgAllLIK4ECmIEywKJt3osJ3w1lWBTVuHwPRTwBhMqAa8IB85xDytK2E+eyD9//nz3ITDyc4y7hiXAfAI+iG1hy+oQXCNMtggUvs2BBQUhxHXK5vzhhx/u3vCDc5xPnlhWzDdAunfv7urmm++ORgAAEABJREFUOn3E2kB7OA4SwaCJiYlGPfSF87QVtwnCiEBUzqU3IXQQPZTHB/AQXrSV+rFA3X///YZ4QvzRn/SUyyoc2OHeYny4hzbiamHFUIcOHTi13wk3GkuLKZM2UgBxJhUqVDAEFtYz6uE8/XjwwQdd8CxsOKckAiKQYwiooyEiEDcChTd6lu02adLEmviJOA/e2AlWff755+3666+PDAuTFyticLdgAXjttdeMZa8EskYy7d4pVKiQ+9Q7ZeMu4GNsXCKOgkTcCsuRWWLMFiHE5/YbNmxINmOSZGUJLhYmRpbMtmnTxljezFs84sVlTOGHNpIHlwjxMtTBffz/cLgWfcsZZ5zhykQw4Drik/S0mZVHWEBY+hydf1/7WJxYiUQ9LF+mT619iwkMcJV99tlnznoC432VFVxHyNAmVvIwPrhe2rVrZ3zfBOsPQirIuz9b3HXE4DDuWKZwSxGMyz7ih1VAjAvPAXmwnGFVCgTr/tSlvCIgAiIgAllDICFrqsncWo4++mi3eoa3Y1wuBJ8y+TAZIlCY3Jlwg1awz+SLOCDuAbcLQoRvnjD5Rpv+Oc9SV1bcYC0JVppgCcC6gGjgPJMfcSZMuj169HDLXqmPIFqsF4gSvmPCR+OIReGDYl27diVLqomls5SFQMGKgeigb6NGjXLf84iOoWCFS/v27Y1+EQCMNQIhwIfaWA1U0Xc5BRWx5Dn6ODiffIuVh+XJLAsmKJjvitB2RAscEGfE4gT3scIGMRYcE2gLz+CYLUuy4YWVhzgcAogPOeQQ96VYrE7kIdFG4mCiy+c8QcNc46u2HJO4D0sJrjusZUHcDuKJL/xSDoGxfPgNtxzjgVjkXiURCBUBNVYEchCBuBAoWBVGjBhhQWKSYhJiMiRexPO8vYaUT7fz3Q1WlSBqmMCYKCmDCS/6BiZqgip5S7/77rsjl7AIYF0gHgT3CsKA4+STKsdYH7if73cQd8JHzhBKkcJS2eFevtnBvYgTgnmJq0B8YS2Jvs3zPCdcEA+0h8mYAFlWG0XnQ/RgZYk+l9o+3xTha618e4QycZsh2BAKnpeUK//zQqw7QVmIOngGx2w9zzNcR4gm+oPlBBGEpcnz9pSHuELMwZj7goQoYmyj++R5nmGxIq4IQYLrLsiP2MRFxqoqXDp8op94HM/bU1eQV1sREAEREIHYIRAXAuVgcDIBkw6mDO5NbxmszPG8/Z8cPc9zX7SlrvQk2oO4SU/e7MqD+MASlRX1e55nWVWX6U9qBHReBERABNJNICHdOZVRBERABERABERABLKIgARKFoFWNXFAQF0QAREQARHIMgISKFmGWhWJgAiIgAiIgAikl4AESnpJhT+feiACIiACIiACoSEggRKaoVJDRUAEREAERCDnEAiPQMk5Y6KeioAIiIAIiECOJyCBkuMfAQEQAREQARHIyQRite8SKLE6MmqXCIiACIiACORgAhIoOXjw1XUREAERCD8B9SBeCUigxOvIql8iIAIiIAIiEGICEighHjw1XQREIPwE1AMREIGUCUigpMxFZ0VABERABERABLKRgARKNsJX1SIQfgLqgQiIgAhkDgEJlMzhqlJFQAREQAREQAQOgoAEykHA063hJ6AeiIAIiIAIxCYBCZTYHBe1SgREQAREQARyNAEJlFAPvxovAiIgAiIgAvFJQAIlPsdVvRIBERABERCBUBPIVoESanJqvAiIgAiIgAiIQKYRkEDJNLQqWAREQAREQASyhUBcVCqBEhfDqE6IgAiIgAiIQHwRkECJr/FUb0RABEQg/ATUAxHwCUig+BD0VwREQAREQAREILYISKDE1nioNSIgAuEnoB6IgAhkAAEJlAyAqCJEQAREQAREQAQyloAESsbyjKnS1q5da7///rvNnj3bduzYEVNtU2NimICaJgIiIAIxQCD0AoVJ+PLLL7cSJUrYsGHDUkRarlw5u/LKK1O8lhknZ82aZYUKFbKOHTtmRvFplrlz504nSO644w475phjrEqVKnbaaae5/TfeeMNWr16d5v3ZdfGiiy6yM888c7+rX7x4sf3222/Gc7DfN+sGERABERCBmCUQeoESkN2yZYu99NJLtnnz5uBUjtzOmzfPbrjhBvvf//5nNWrUsNdff93atWtnpUuXtmeeecZatGhhW7dujRs27777rtWtW9cmTpwY9ElbERABERCBOCAQNwKFsfj111+tTZs2tm3bNg7TTFgaEhMTbdGiRS6xH+0GYX/lypW2bNkyN6H/+++/9s8//9iqVauMe7m+fPlyd47t9u3bU6xv06ZNtmTJkkgd0ZkQVf/995+tW7fO1q9f7/JQZ5AHIcH1hQsXGlvyB9dS2tKmxx57zGbOnGnPPvus9evXz+666y57+OGH3QTesGFD+/LLL+3jjz9OcjvlUn5QT3KRt2HDBlu6dKmRD0sFzOhTkC9oO9aMjRs3RsqmPStWrHAM4UMZMGSb3jGCN/WR1qxZk8RVxdjAC6sQ+/SBeoIG0F7qol+0N7ptQR5tRUAEREAEYpNA3AiUvHnzGm6Cnj172sCBA52ISA05k1ifPn2sQYMGdt5551nVqlWtXr161q1bt8gEyER87733Wv369e2tt96y6tWru7xXXXWVff31184yUbt2bTv33HONLWLAkv1hEn7kkUfswgsvdHVQ36effhqpA0GFlaN9+/Z28803u/Kfe+45VwoTcqtWreySSy5xbhry3X333TZnzhx3PaWf6dOnOzdXnTp17P7777eEhKTDS3+qVavmykA8UMY83+Jy5513unroC/1s3ry5/fHHH1x26bPPPnN97NGjh1133XV2/vnnG+W88MIL9vfff7u2c4502223OUHGjYg+yoYZ9wZ9ufTSS52AgjH5UkswhT/lMk7XXHON0ZYgP21hrBlPhBmMECpcR1AiVqkLNxftpV9//fUXl5VEQAREQARinEDSGSzGG5tW83Lnzm2PP/64FShQwF5++WXDqpFa/smTJ7sJnMn5lVdesS5dujgryYMPPmgfffSRu40JnEmOINOhQ4fa888/78TKtGnTrEmTJta7d29DQNxzzz1uwm/durWzMLibd/98+OGH9ueff7pYFPIRrPrQQw8Z9ZMF68r8+fNdnVgfKKNWrVrOmkId/fv3d8Ip2CJunnzyyVTF13fffefED/E2nudRRZJ01llnGX3BuoJ4wSKB6Bk0aJAxkX/yySfOXTJkyBDXN65TAEICYcR9J598siGosCLhPqKuQw891Dp16mSVKlWyr776ynC1cR8MsVzMmDHDMcaS89prrxljRXwODMmXUho/fry1bNnSxZYQO4NIxFrSrFkzGzdunLsF1xXij77cfvvtjnOxYsUcnyeeeMIQRcS1sL311ltt5MiRrp+wdgXoRwREQAREIGYJZLRAydaOVqhQwfr27WuY9B999FEnOpI3iLdt3urLlCljY8aMscaNG9sVV1xhiIny5cu7bbS4KViwoL366qvWqFEjNwEee+yxTgRgqcFagGBA2OA+mDJlSpLq8uTJ49qD5YT2UA5lDx48OEk+3vBHjx5tlEM8xc8//2xTp041RM1zvkUFy9CLL75oj/nuG6w3CKskBew+QFBhSSpVqtTuM2lvJk2aZBMmTLCbbrrJEGpYGdgSYEsbEAlBCXDjPH1o4gs0+oAAOfLII+3NN9803EeIDrgiSHCvBPciSBA38CI+5vvvv7fKlSs7rriPgnzBFpYIEfKMGDHCrr76aicOsXoddthhToDi/qK9jLnneXb22WcbwdIIVPqFpQVR0r17d2f9QbBgUcGqQ3xOUJe2IiACIiACsUkgrgQKiLEEIECYhLp27cqpJGnBggWGmR9RcPjhh0euMRked9xxxts1b/3Bhfz58xuihON8+fJZ2bJl3Yohgk45R2LSZIulgW2QmPiDfJ7nOTHE6p6xY8cGWdz21FNPNcp2B/4PQoe4DupCkGCVYIUSlgqsLogZP9tef7EkeJ5nnuftdS2lEwg0ysMdFNSfK1cuQ0whSIYPH57ktjPOOCNyfMQRR7j9k046ybiHA8Qc5eDa4n7OkRANiCz2SVg5LrvsMhfXgpjhXHTCWoMIY/UVAor+k8jLeHANa0r0PdH7X3zxhWMA/6BtsMHVhKjCCsY2+h7ti4AIiEBsE8h5rYs7gcIQslLlhBNOsHfeece5WDgXJAIq2WeSZBskz/OMCZHAT1Jwnq3npW/Cx+1B/iAlt2R4nucETnIhE+QPtrzls8/bP5aHIOGKOuWUU5KIGfIFCWsCbScQNTgXvcXqgJWFwFXaGkzyCKHofIgqhAABptHnU9r3vH2zQRwgXqLvD/gH4xF9LXAt4QrDtRb0H+sNYgdXEmVG3xO9z/1YkpLXWbRoUZcNCw39dwf6EQEREAERiEkCcSlQsIwQ8Mpk/MADD1j023wgGoLJORgVJiysJ0zMpOD8wWyxBETfHwiEkiVLRp/eaz+4jlsHy0nyhMtjr5v8EwSh0g/cL/7hXn9x2WBhwlVEPtwxZMIiwTZIcEDolPddXsG5g9nCn9U40WUEVirEUPR59oP+16xZ04iHSd5/hFswjuRPnhBcWIYQKtHXAsFVuHBhZ2GJvqZ9ERCBzCWg0kVgfwnEpUABAh8nI2iWgEremDlHwh3DNc4TwMo5EitqWJ6LFQJXCucONhF0SjwM5eD2IACXiZPATs6llmgfriBcLFgM+Ahd8eLF3VLhXr16pRhbQ1lYFm688UYbNWqUscKGZbecx51BgG7nzp1t/vz5LhAWC0T16tUNKwPBrkEsCO0jyJX4GeJhuP9gE/y//fbbSDEIN1xXhxxyiOFai1zYvXPUUUcZCVcM1ib6T6IcAl5//PHHiMCgH9xGu9mScOVgQQl4cw7+BAOTn2BhtpxXEgEREAERiE0CcStQwN20aVMjvoP9IDExvf/++27FDUtYCZ7EUsEqEKwqBFIGb/DBPQe6RTAQhNu+fXtjtQxbJuXULCBBPcTHIGIICmVpLK4qVvgQOMo3TAg6DfIm31IHy4VZyUScB0txmbBZbUPAKStp2Oe+008/3a1q4dsosCLYlS0BwFhjKId8B5uwoBBAizUL6w3csdLQVmJWkpePuMBKQh6Wf+PiQUTdcsstxsfmEJLBPRUrVnQWsg4dOhhtR8Sw0ohAXgTJtdde64KbiUvCRUZ+Ap6D+7UVgfQRUC4REIGsJhB6gYLgwOrBmzhv/dEAcQO89957xoRFnuAax0yA5X0Xxueff25MyMQnsOw1mLwJruQtnsBZ6gjuZYJDeETXxdv9iSeeaLgOyMekyzEfScNKwfJg3voJtiVwl8BS8mElIR+xLxwHifO0hVUvfI8EywdLiBFbiCusKkHe5FusPwQII2aY6LFC4MLBlcJSYARC0HbqYdJmEidw+O2333bfP2HVEaKI65QPR9oJI45JMOEcDDkmUR9sYMR1zpGKFCnilnX/8MMPBiAPWAAAABAASURBVG/ytW3b1q2M4joJ1nyan30SIo22IRaxRNFvrDxYdxBrnrcr9oWVOgg+3GdYwfh+jOd59vTTTxuiE5HDvXxptk6dOoZ1CRbUoSQCIiACIhC7BEIvUHBRYAEZMGCAC0BNjhoxwLc/CLYMrnmeZ0xWxDew4oOYDd62sTQEeZhUCcrEYkEdwXnqwnUQPcmxvJWy+OYG+XAjcYyLhDd+LBTUwba671YhDwlXDvmwknjergmX8yTEAUt+uSe4lz5Gr6QhX0qJtmFxoGzupY8woB7EQfQ9BKsygUfXQ/+ihQdWDMriY2nBvTDhHAHJwTn6zb1YS6Lr8TzPiRHqoC3cx5JqhFxwL986QZAEx2yxtJA/OmGJ4lqQGCcEJmWTWPbMNfqFFYlz3M/2gw8+MMQW13NaUn9FQAREIGwEQi9QPM9zy34JjMTqkdIAMGFj5Uh+DYsAb/zHH3+8K8Pz9ogEz/OMt3cCST1vz3nKobzourBoYAUJJmWuccwkzjmsA1hiqC+6DVwjH5Ns9Plgn3KY9FmRRBnUE1zb19bzdq0Yom9YJpiwU7sHawfLhqmHLcfReekH7YwWFJ7nuVVP0W2nvbCBm+ftYUZZnucZ1h3ag5vL85Je556UxAPtxvLEfcnHgnJJ1EtgNOIEppwj0Q/qxLqGVSf6GteVREAEREAEYpdA6AVK7KJVyzKOgEoSAREQARHIaQQkUHLaiGdhf1l5RCwNK3iCuJcsrF5ViYAIiIAIhJiABEoWDF5OrYLVRriXcLHgbsmpHNRvERABERCB/ScggbL/zHSHCIiACIiACIhAJhNIh0DJ5BaoeBEQAREQAREQARFIRkACJRkQHYqACIiACIhAlhBQJWkSkEBJE48uioAIiIAIiIAIZAcBCZTsoK46RUAERCD8BNQDEchUAhIomYpXhYuACIiACIiACBwIAQmUA6Gme0RABMJPQD0QARGIaQISKDE9PGqcCIiACIiACORMAhIoOXPc1evwE1APREAERCCuCcS9QNm5c6cpiYGeAT0Degb0DMTbMxDX6sTvXFwKlO3bt9vmzVts48ZNftqstDEGGahNei71DOgZ0DNw0M8Acx1znj+fx93fuBIoqOMNG3aJkq1bt9n27Ttsxw4lMdAzoGdAz4Cegfh7BhAmzHUbfaHH3MccGE8qJW4ECgPFIPEfYRYMkKoQAREQAREQgZghwNzHHMiLecw06iAbEhcCJRgYtgfJQ7eLgAiIgAiIQCgJMAdu3LjJeQ5C2QHX6D0/oRcoO3eabd68dU+PtCcCIiACIiACOZjAli3xMSeGXqCgGHHv5OBnUV0XAREQARGIEQKx0Ixt27bHhRUl9AKFAKFYeCDUBhEQAREQARGIFQLxMDeGXqBs27YtVp4HtUMEREAEQk5AzY8XAvEwN4ZaoOzYsTNeniX1QwREQAREQAQyjADxmWFfdhxqgZJhI6mCREAE4oKAOiECIhA/BCRQ4mcs1RMREAEREAERiBsCEihxM5TqSPgJqAciIAIiIAIBAQmUgESyLUuXd+zYkexs7B0SCLV161Zjmx3+xuyqN/ZGQi0SAREQARHISAISKKnQfPrpp23EiBGpXM3+02vWrLEePT6022671erWrWPXXXetvfbaq7Z8+bIsa1xiYqI1a9bEJk6c4OrUjwiIgAiIgAhkFAEJlFRIMukuXLgglavZf7pLl/fsueees+uvv94+/rif3XPPvTZw4EC7447bbePGjVnSwM2bN9v3339vy5ZlnSjKko6pEhEQAREQgWwnIIESGYJ97/z333/2ww+jbfToUfbvv//udcPKlSvtxx9/dJP2vHnzLHC58D9vmjx5chLhsGXLFuNcdCFLly51948cOdLmzPk7+tJe+8OHD7euXbtZvXr1rWzZslazZk177733rGDBgvbPP/9E8mNp+fnncfbtt9/aH3/8YbiugouLFv1jCxcutNWrE23MmDF+v0YbbQiuB9uVK1fY2LFjbdSo723evLmRfgXXd+zYaTNnzrTvvvvOfvlloiFcgmts4TB37lwbOfI7GzdunK1du5bTLm3atMmmTp3qrDCIwj1pYlx8CdF1Uj8iIAIiIAL7TUACJZ3I5s6dYw0bNrB7773HWrdubZddVsuGDBkSuXvGjOlWu3Yte/DBB6xdu2esfv2rbMKE8e76pk0b7a677vSFw0J3zM+KFSv8c3ew6xKCp1Gjhtaq1f321FNP+vfXs2HDhrlrKf3s2LHdmNyjr5122mnWpcsHdvTRR7vT1H/ppZfYnXfe6bfpaaP8d955213j57PPPrN33nnH79fVfp9a2e23N7MmTW619evXcdklxEPDhlf7Zdzu2tagQX377LNP3bXgZ+TIb+2GG663Rx55yG666UZ7+OGHkrStb9++1qBBPXceC0+tWjVt9uxZ7vbFixfb/fffZzfeeEOSdPPNNxmxNS6TfkRABERABMJL4ABbLoGSDnC4MK688gpfgNTx3/Qn2c8/j7e7725pL730gi1YsMCwhrz88st20kkn+daTUTZq1Ghr2bKl9ejxkW9t2OGnnc5qgCUlqG7Hjh3uXHB833332AknnGg//TTOt2T84Mr/7rtvk0z0QV62jRpd50TFSy+96KwbWE12+JaMIkWKWK5cudzk/s0339iZZ57lWy6+9y0zP1mHDi/aG290iggl2v3ll1/Yo48+5ls+Jrm6OdelSxeqcGU880xbO/vsc/w+T7Bff53ii4lW9tZbbyWxkixevMSGDx/h2Lz+eif7+usR9ttv01wZP/44xtq2fcrat3/WJk2a7NjA6ZlnnrENGzbYUUcdZSNGfO1bUX5z6csvh1qFChV9kdbW8uXL58rQjwiIgAiIQM4jIIGSjjH/znddENfxwAMPuEmTifOOO+507pRZs2bZzp073WTO5M6+53nWtGkz69ixk3le+hCvW7feuTS4P0+ePEb5zz77nOXPnz/FFjZv3tx38XT3LRGzrUWLO511pHXrVoYbihsoo3XrBwzBULp0aU7Zscce68qbP3++O+bnwgsv9IXXZeZ5npUuXcYuuaSmEzxcmzBhgosvadWqlQXC55ZbbvWtNO9bQsKefjVocLWVKVPWnatb9wpXzrJly11/BgwY4NxPV11VjyL9a6XtlVdesz///MMF9Hqe59qEawqr0COPPGxVq1b1LTE3ufz6EQEREIFsJqDqs4nAnlkmmxoQhmoXLJhvWD9wO9Srd5WRrr66gS1ZssRNsgiWu+66y+bNm2c1alT3XTd32tChQ5NYGfbVz5dffsX++usvu+CC8/z77/DvH+IsDKndV6BAAatWrZp169bddyX94rtXHrU5c+Y4oYK7CKFD7MhHH3X3XTfN3UofVtysXr3a9SUot0SJEsGuEykIIpYOc3Ly5F+tVKlSVqxYcQ5dQviceOKJxtad8H+KFi3i/+7663me5c2b17Zt2+r6T0zL5MmTDV5wIzVt2sRZnbZs2brrJv93y5bN9vLLLxntu/fe+5zY8U/rrwiIgAiIQA4lkJBD+71f3c6dO7cVKlTQuUJwhwSJeI/q1au7sqpVq24DBgy0Tp3esHPPPce3MnTxhUEzNxG7DCn8ICKC06eeeqr973+f2ptvvm3nnHOub/noaA899KAlJiYGWVLdIlYaNrzGdyn1dMG7v//+uxM3DzzQ2saPn+CLlkb27LPPO8tFiRIlUy0n+YX8+Qs4MbPDd0clv5aeY6wsuXPnsrPOOnMvdh980M0OPfTQSDHDhw937jEEV/ny5SPntSMCInCQBHS7CISUgASKP3Cffz7Qf3t/ObLKhlUofE8ksC5UrlzZVq1aZUcccYRv4bjApSpVqvjuilJWvHgJfxLf7laxFC5cyHCZNG9+hz3gu4PGjx9v//yzyBAQO3fusLVr1xh/dvouoYULF/jHazl0rhBWwXie58q+/fY7XLzI5MlTnOBwmaJ+sNyccEJlmzt3btRZ891MW1xZCIPNmzcZ7qcPP/zI6tS53M4++2znpgmsI0luTOXg4osv9q1Ei/0+/BPJgWB69913bN26XW2PXEhhB0tKxYpHOTZnnnmG69sFF1xgBPOWLVvGucu4bcaMGdamzYN+amOVKlXilJIIiIAIiEAOJyCB4j8AxxxzrH3ySV976603bdiwr4xVNKwgOeWUU/yrZhdddLGfLvIn0AdsyJAvjWXG7do9Y02a3OYLiCVO2Dz11BN23333+laA7/3ro61///5GueXKlXVBq1WqVLW2bdta9+7dfSvL674AeT4yQVMXq4MeeqiNu5eYl+7du/mC6HC3hNg1IurnkEMO8a0s5/iuoDvto48+NJYl9+7dy7fYNLcTTjjBFwCn+m6WfHbYYYcZH5xjCfHQoUNcvdErdKKKTHH3uOOO8/t9sT355BM2ePAgVw/9JAi2QIGCKd4TfdLzPCNmJTEx0S/jSfvhhx98vsPszjvvsPbt2zluiK0HfEsPYhDXVI8eH/mWIFKPdFmPouvTflwSUKdEQARyKAEJFH/gca+8+OLLvoulv1tG/NNPY10AauXKJ/hXzVke+vf/1Cr61gAm02bNmhp53n77XatQoaIVLlzYOnd+y59QV/sioZn7uioxGEOGDPVdQ4VcGXxUjdU1L77YwSZOnOi7W171y6vorhHDMmjQYGf9aN68qS887rDVqxN9MfORlSyZskumc+c37dRTT7MXX3zB1fn8888ZsSGffjrASpUq7dr03HPP2/DhX9ltt93ilj/XqFHDrTTCskHFxYoVMxL7QSpatKiVKVMmOPSF1AsuuJbl03fc0dwWLvzHFzqdnejC9YUIyp8skLdcuXKW33cPUQiBud9+O9K/b6E1bXqb3X//vZz2XVhvuDauWrXSd4Ntdlaobt26OpGIUHz77beMpdgus35EQAREQARyHIGEHNfjVDpcp04dt5R20qRf/Tf9H91KkuisnufZq6++5pbaTpw4yZh0zzrrrEgWrBqIjEmTJrug1V69+jhhE2Q48sgKvvVlqE2b9pv17dvPt3Sc6FskRgWX3YqgPn0+tl9++dVPk2zgwEHGRB/JkGwHi8Nrr71mU6ZMs7Fjx7klvK+99rpzJwVZzzrrbNeWcePG+/X+bs2b3+4Llq8jfbvzzrvs8cefCLK7Le6l7t0/dPv8IL46dnzdLQGm34MHf2EsDeYaAbQ//zzBata8lMNI6tfvE6tdu3bkmHz9+//P9Yv+ffxxX989VtpdP/FElmaPdu2HXZB++WWSb4E6xuUJ9Y8aLwIiIAIicEAEJFCisGERIKYES0fU6SS7LLfFqkGcR5IL/oHneVa8eHHfglHKrYjxTyX563meL0QKpXiNjJ636/7ixUukmod80YnluYgjhET0+WCfPiF0sNIE5w5kS/n0+0Du5R54EaCLxcbzPE4piYAIiIAIiECqBCRQUkWjC2YmCCIgAiIgAiKQLQQkULIFuyoVAREQAREQARFdueTHAAAQAElEQVRIi0B8C5S0eq5rIiACIiACIiACMUtAAiVmh0YNEwEREAEREIHYJJAVrZJAyQrKqkMEREAEREAERGC/CEig7BcuZRYBERABEQg/AfUgDAQkUMIwSmqjCIiACIiACOQwAhIoOWzA1V0REIHwE1APRCAnEJBAyQmjrD6KgAiIgAiIQMgIhFqgeJ6+SBqy503NFQEzEwQREIGsIOB54Z4jQy5QzP1P67JioFWHCIiACIiACISFQFr/y5aw9CHUAgXIefLkYqMkAllGQBWJgAiIQKwTyJMnd6w3cZ/tC71AQSXyP6LbZ0+VQQREQAREQARyAIFcuRJ870Lop3cLfQ88z7O8efPkgEcuo7qockRABERABOKZQJ48eczzvNB3MSH0PfA7kDt3LsuXL4/pjwiIgAiIgAjkZAL58uU15sR4YBA6gZIa9Dy+YsyfP29cqMbU+qjzIiACIiACIpASgYQEz/Lnz2d58uRO6XIoz8WNQIF+7ty5rUCBfM7lk5AQV10z/REBERABERCB5ASY6/Ag5M+f/2AtJ8mLzvbjuJvFGSxiUgoWzG+FChVwggXRopRPLHzxqudAz4GeAT0D8fEM5HdzHHNdHt+DkOBbULJdUWRwA+JOoETz8TzPcuXKpSQGegb0DOgZiPdnIMf1LyHuQxoSTH9EQAREQAREQAREIMYISKDE2ICoOSIgAjmSgDotAiKQjIAESjIgOhQBERABERABEch+AhIo2T8GaoEIhJ+AeiACIiACGUxAAiWDgao4ERABERABERCBgycggXLwDFVC+AmoByIgAiIgAjFGQAIlxgZEzREBERABERABEbDw/88CNYhmJggiIAIiIAIiEGcEZEGJswFVd0RABERABEQgHgjEgkCJB47qgwiIgAiIgAiIQAYSkEDJQJgqSgREQAREQARih0C4WyKBEu7xU+tFQAREQAREIC4JSKDE5bCqUyIgAiIQfgLqQc4mIIGSs8dfvRcBERABERCBmCQggRKTw6JGiYAIhJ+AeiACInAwBCRQDoae7hUBERABERABEcgUAhIomYJVhYpA+AmoByIgAiKQnQTiSqAkJibahx9+aA8//LA9++yzNm7cONuxY0eE786dO+3HH3+0Tz75xMgbubB7Z/Lkye7asmXL3JmZM2da7969k6QvvvjCVq1a5a4HPynl++6772z79u1BFm1FQAREQAREQAT2g0BcCBREyODBg+2CCy6wRx991L766ivr1auXXX755XbLLbfYwoULjT8IFATM/fffb4sWLeJUkjRkyBBr3bq1zZkzx51HzLRo0cKefPJJe+GFF+z555+322+/3c4880zr2bOnUR4Zx4wZY+Rr165dJN/1119vJ510kn399ddJRBL5lbKCgOoQAREQAREIM4G4EChDhw615s2bW4kSJZw44XjYsGH29NNPO4Hw4IMP2rp16w5onHLnzm0PPfSQKxfh8+2339qxxx5rbdq0sSlTpiQps0uXLpF8ffr0sdWrV7s2JLe4JLlJByIgAiIgAiIgAnsRCL1A2bhxo/Xo0cM8z7PXX3/dzjnnHKtYsaJVqlTJsJRcddVVNm3aNJs1a9ZenU/viTJlythRRx1lxxxzjJ166ql2zz33OPcNbpzoMo444ohIvjp16jhhM336dPvvv/+is6VrX5lEQAREQAREICcTCL1ASUxMdAIE987ZZ5+dZCyxfhCLglsHgZHk4kEc5M+f33LlymVbtmxJs5RDDz3UuXfWr1+fZj5dFAEREAEREAERSEogkwRK0koy82jTpk1GUGu1atUsIWHv7hx++OEuNqV48eIH3AzcQytWrDDS4sWLbdCgQU6cnHXWWSmWSWwK7p2ePXtaqVKl7JBDDkkxn06KgAiIgAiIgAikTGDvGT3lfDF7FjHAapl8+fJlShspu1OnTlavXj3DXVSzZk0bMGCAi0FhP7rS5557zrl/WrZsaY0aNbKxY8fatddea7iIovNpXwREQAREQAQOiEAOuin0AiVPnjxWpEgR++uvv1IcNgTG5s2bnaslxQxRJxE7HHqex8Ylz/NcXMm5555rRx55pGFBufrqq93KHlxILtPuH2JSPv/8c2NFEdaWzp0726uvvmqZJZ52V6uNCIiACIiACMQdgdALFMQJAbGs3Pn333/3GqCuXbvazTffbH/88YcLpC1QoIATKytXrkySl6XKBNIieEjBRdxG3I8V5YMPPrBTTjnFRo4caX///XeQJbJlSfHcuXONNGnSJGvWrFmKbqfIDdoRAREQgZxFQL0VgXQTCL1AKVasmF1yySWGOMFagdAIev/nn3+6lT3z5s2z0qVLO4HCKh9W/vTv3z/yHRPy//777+4jbsSLkDiXPBUtWtR9CG7p0qXWoUOH5Jctb968zlqCxcTz9lhh9sqoEyIgAiIgAiIgAmkSCL1A8TzPWrVqZbhdevTo4cTKvffea02bNrW6des6EcL3UMqVK+dAEBNCPEnfvn2NpcB8I4WYkYYNG9q2bduMD7UFed0NyX6OO+444yNsuHJGjRqV7KoORUAE4pqAOicCIpBlBEIvUCDFCh1cOR999BGHhnUE8dCgQQPjw2pXXnmlO89PoUKFrHv37taxY0fDEsJ9n376qVWtWtW++eYba9y4sbO0kLds2bJG7AnWF46DxFdjWTXEh9tYRRTkw30U5NFWBERABERABETgwAnEhUCh+3ybBMsIwoRlx8SB8OG2ChUqRAQH+UgFCxZ0Fhb+3ztr1651y5T58mvlypWTxIwgbBAttWrV4rZIYnkxn8V/5ZVXjHpZ3fP9998bdUUyaUcEYo+AWiQCIiACoSEQNwIlNMTVUBEQAREQAREQgX0SkEDZJyJliBkCaogIiIAIiECOISCBkmOGWh0VAREQAREQgfAQkEDJurFSTSIgAiIgAiIgAukkIIGSTlDKJgIiIAIiIAIikHUE0i9Qsq5NqkkEREAEREAERCCHE5BAyeEPgLovAiIgAiKQvQRUe8oEJFBS5qKzIiACIiACIiAC2UhAAiUb4atqERABEQg/AfVABDKHgARK5nBVqSIgAiIgAiIgAgdBQALlIODpVhEQgfATUA9EQARik4AESmyOi1olAiIgAiIgAjmagARKjh5+dT78BNQDERABEYhPAnEvUHbu3GlKYqBnQM+AngE9A/H2DMSnLNnTq7gTKDyA27dvt02bNtu6dRts/fqNSjHMQOOj51PPgJ4BPQMH+gxscHMdcx5z356pPT724kqgMEgIk40bN9u2bdvjY4TUCxEQAREQARFIgYDvIHBzHXMecx9zYArZQnsqbgTKjh07divJHVk4GKpKBERABERABLKfwPbtu+ZA5sLsb03GtCAuBAqqcePGTYaazBgsKkUEREAEREAEwkWAOXCj70FgTgxXy1NorX8q9AIFv9uWLVslTvzB1F8REAEREIGcTWDXnLgtLubE0AsUzFqknP1IqvciIAIiIAIxRCBbm4IFZceO8Mdhhl6gbNu2LVsfBFUuAiIgAiIgArFGYOtWCZRsH5NtWq2T7WOgBoiACMQZAXUn9AS2xcHLe6gtKDt27Az9Q6QOiIAIiIAIiEBmECAeJTPKzaoyQy1QsgqS6hEBEQgVATVWBEQgDghIoMTBIKoLIiACIiACIhBvBCRQ4m1E1Z/wE1APREAEREAETAJFD4EIiIAIiIAIiEDMEZBAiRqSLVu22L///mvz58+3BQvm24oVKyytICPyrlmzJqqEPbuJiYm2ePFiSyuSmnuXLFlimzZtcjdu3brV1c99ydPq1atdnuCHexcsWODaunTp0iT1rF271tWdvAyOV65cGRTh+ka5QTnLli2zHTvS/l8FrF+/3pUdtDlSmL8DvyVLFtu8efNcns2bN/tnk/6lfLjCF87scy7IRftoR3AcvaWtMGeN//LlyyylfIzXsmVLbfny5Y4JfOERXU6wDzfKpN3//rvE6FtwLdjSB7itW7fOXaf+lMaUMshH2xibYD8oJ9hSH2Uw1rST/tPm4HqwXbVqldE+2Czzx4V8wbVgyzXycC2lMoJ82oqACIhAGAlIoOweNSaNRx99xK666gq78cbGdvXVDaxhw6vtjTfeMCap3dkim0WLFlnt2rWsTZsHI+eCHSaO11571WrWrGE//TQ2OJ1kyyT30ksvujLGjfvJXfv779nWoEE9u/zyy+zKK+smSe+/38Xl4Wf69Ol28803Wd26deyGG663evWuNOoLJtj//a9/knuDsmrXvtSeeeZpinBpxozpdtttt7g6r7/+Wtf3Tz/9n9F+lyHZD5Nvq1b3u36NHz8+yVX6067dM36b6tqtt95sV1xR1x5//DFfKCxLku+zzz51bBs3buxzvsHfr28DBw6I5Bk1apTPvYEvEBdEzrFD+bff3sxeffVVNx6dOnWy665r5Oebz+VImjnzL//+hta16wcu3zPPtLUHH3xgrz5NmzbN9fuXXyY6IXDrrbfac889awiNoLCdO3da//6f2KWXXmK//fabIXYaNWpoX3wxOMgS2b766ivWrFlTV+eoUd9bnTq1beTIkZHr7CByHnqojd11153G/oABA+zaaxsZoozrQULENG58vTHmCJmXX37J7+u1ewmy6dN/d/z69v3Yic3gfm1FQAREIB4ISKDsHsW33nrTxowZY71797GxY8fZhAm/2E033WSdOnW0YcOG7c61Z/Phh91t1aqVNmLEcGct2HNl1x5igYmHyYyJfdfZPb+89X777TeujGBS3LZtu3+8yp544kn79dcpSdIjjzzqbl6xYrk/+V9uxYoVs4kTJ/kC6Gd75ZXXrFu3bkZ5ZGre/PYk91LWL7/8ahUrVrTDDjuMLEabbr+9uZUrV86V8/PPE3yxc4O1b9/OVq9OdHmif5is//e//7n+Yj0J2hzkefHFDvbVV19Z37597YcffrSPP+5rgwcP9o/7BVls48aN9tRTTxrt++mncT7nn3wxc5sxaS9cuNDlq1OnjpUtW9ZatLjTt4Bsdeeou1On12369Bn+vc2tYMGCdv/9rXxxssCv52OXJ/jp3buXE0X33HOvFSpUyOX74YfRTmhQDvkQnE2a3GpHH320nX/+BXb44Yf7YulGGzToc5s6dSpZXMLy8v7779sll9S08847z4499lhr1Ohae+SRh/06lrs8/Iwf/7O9887b7nmhbZdfXtcOPfRQe/vtN32Wq8ni0s8/j7Phw4dZu3btrUSJEnb77XdYnjx5XHmBKKSNHTo8b//996+rK1++fHbHHXfYX3/96fe1T0SIkO+DD9633Llz+6zutoSEBFeHfkRABEQgXgjoX7XdIzl27I/+RPGoVa58gjuTK1cuf2K40+68s4U/CeRy54KfVb75fcSIEf6kdpNVqnScffTRh8GlJNujjjrKfvxxrHMVJbngH4wc+Z3/tr5rAvYP0/33+++/dy6hxx57zAoUKODuu/jii61169bW0GzeHwAAEABJREFUvXt3d5zSz8CBnzlLwU033ewuDxw40LksWrd+0OgrJ++55z476aSTfFHWicMkCYvR+74Vp1Wr1lahQoUk17AsfPbZZ7415lafX2V37cQTT7QOHV6wfv14u9/hzmGtKFmypNWvX98d81O79mV2yCGH+EJrl6WJCb516wdsypQpvqjo7yZkLAW9evV0vI877jhuc8LqjTc6G9aiP/74w50bO3asLzIGW+fOb1nRokXdueOOO94aN77Bt7y8Yn///bcrD3GJa+S++1pFGN5yy61WvXoNw1qB+EIwdOjwnOXPn89efPElVxY/1113nRN5WIsQXLhzXn+9o5155lm+cLySLE50dOnygWGVG7jbOgSjtm2fsqZNm9kZZ5zh8iEu6OsIX+R++eUXrm2TJv1iQ4cO8cXLnRGWxx9f2Z599jmfZV/7559/3L1DhnzpC9Lv7PnnX3D1uZP6EQEREIEYJrC/TZNA2U0sf/78Nm/e3N1Huzae5/nWjCciE8+us+ab+6f5VpNF/tv87f6kVt2+/nqE/6acGFyObC++uJr/tl/AtxT8GDkX7HTs+Npe5QbX0toy6fH2zMQbne+0004zJjcm1+jz7CcmrvLdF885S0BgQfnuu+98S0U5ZxUgD4kJ87zzzneTPsfRqVevHs7i0KRJ0+jTbn/27FmGteHSS2ub5+15pM4//3znyvj77zkuX4UKFZ0oYvJ3J/yfjRs32IYNG33BUd4/2vX3wgsvclYBBNGGDRt861BXJzgeeughXyzm3pXJ/0XcnHXW2f6kf5svvv7z77nTWTqqVavmX931N2/evL6r6QnzPM969PjIb89a69LlPXv44Ufs3HPP3ZXJ/0WkPfhgGydi3nvvXX/y/9a3WHzsl3m3FSlSxM+x6++hhx7mi4IOvogYapMn/2qjR4/2xdVPvjvmfUN87cplVrFiRbvHt+K0b9/eZs2a5QuM9r5FaJsvPG4PsrjtZZdd5rv5LnNtWr16tS8OX3fCpGXLlq7NLpP/c/PNt/hiuJK1bNnCtxzNtyeffMJ3tV1iVatW9a/qrwiIgAjEH4E9s0n89W2/esRk0rt3b190NPUnpj6+i+RXfzJbZ5jOPc9LUtaPP/7oWxpOtuP8t3lM/ryNT58+PUkeDjzPc/EQb731lotN4BwJMz8xCBdddBGHeyXe9MePH29BmjRpkmsLGREYnufZ77//zmEkMVFu27bNxUlETu7eGTJkiC8CNvgTeTPXH9w7ixcvsiOOOHKvt+9y5cobVoHVq/cIrlGjRjlrBm4Vz0vKgiqWL1/hW4O2OFcJx0EqUCC/c2XQH/P/HHnkkXbllVfZ3Xe3cIw/+aSfMYHXqFHDoll4nmePPfa4EyX33nuvLwC/ttdee923ZuT3S9nzF/dHq1atnLvl+uuv911ImwwLD+f35DJ335tvvu2LiiFGeUceWcHuuqtFEgFAflw4zZs3t3fffcfatXvaEEpXXHEll5Kkiy662G6++WZ75plnfJfVE4awOeyww5Pk4YB7TznlFPdMfe9bvh544EGjbq4FiecLS9CmTZv9ch6wKVOmWtu2T7txCvKwRWi1bHmvc0G1aHGXs3o9/PCje40feZVEQAQyg4DKzGoCEii7idete4V98cUXVrp0Gd818bwRNEqw6tChQ3fn2LNhwm/R4m53onLlyoY7A9HiTiT7YTJDDDBBcYmgR2I5Tj/9dMOdwrnkCcvBTTfdYEG666473Js9+WrWrGnly5d3E+i8efOc8HjjjU6Gm4l4Bn9uJ1skYa3o06e3e5tHUHGBNiBmEBAcR6e8efO4w40bN7kt4ovgUYTYqaee6s4l/8Fqg1WncOHCSS4lJOTyJ9C8fhvXR84f5bu9fvrpJ2dReOaZp33rw1g7+eST3IQbyeTvMCHXq1ffhg//yud7kjHR+6f3+nvyyaf4Fog6RsDvFVdckSpTeOOOw51St+7lTrQkLywhIcGJuE2bNjnejz76mG8BK5g8mzuGx6JF/7hYHiw57mSyn1KlStltt91mf/31lxNq11/fOFmOXYe4o66++mr76quhrp+Vd7sZd13d84u1BFcSgrWx77ZK7mrbk1N7IiACIhB+AhIou8cwV65cdtRRR9vLL7/im+6n+m6F7nbmmWfb/fffZ4MGDdqdy+z770f67oSltnLlCn/yHOaCRpkoiOlg0o9k3L1z0kkn+5PmyW6lChM5omLKlMm+FeGevSbl3be4N+jx4yf6FpRd6euvv/XLOMldLlq0mA0e/IUVLlzEGjSo55v4qzg3AxaHYsWK+26GUi5f8EMMxGrfddCkSdOIxQAhky9fXl84bAiyRba0kQMCTNmyqgchg5WACZxzyRNxGlwjMDj6GpaaLVs2W758+dxp3Eq4T959911fUPxpf/zxl+/SeMM6d+68l1sJK84nn3xil1xyiU2f/rtNnDjBlZH8Z+LEifbll4N9kXOKDRjwmbN8Jc/D8fjxP9uff/5huN0GDBjorEScj06MH/EkBQoUdO4s3Ci0IzoP+4g+XF5lypR1Lifq5XzyxFJo+oswIriZGCHuTZ4Ptx19rV69uu8+/M3vw6TkWdzx974VZsKE8Xa6L24/+ugjmzlzpjuvHxFIDwHlEYGwEZBASWHEmFCrVatur776qmFZGTFimMvF5PL666878zsrKDp06OBbWzrYuHE/u5iUUaO+d/mif4jraNOmjf3yyy/GG/ePP47xXStH+O6DC6OzJdkn5oG37yAR20A5QSZiOd5//wNf9Axy4qlnz16+u+l43/pT2hcue6wYK1asMCbZ+vUbOHdJcD9i7Ejf3ULA5caNG4PTbrtkyWJjFU1h3xqyfPlye8O3zhQvXsKImXn22fa+q+VVJ9Bwz/Tq1dNgUrJkKd9Sksdmz57tygh+sETQhsBS9PLLLzqBcPnldZ04Q9RgJSHuhcBVBEJwL+1OSPDs7bffcW6hNm0e3CvYGEFE+yr7ViwYHOa7WTp3fmMv4YUAYKXQNddca++8845/fb2LyQnqCrYImP79+/uuljYuMHbKlMlO9ATXgy2BuSNGjPDH/gXfEvSc9e7dy4hHCa4H2379+vnPxWIndhs0uNq6dHl3L1GBiLv//nt9C0tx19cLLjjfF6htk7gEKY+VR507d/KtRbXtvffeN0Rjx46vuoBpriuJgAiIQLwRkEDxR5RJ+corr/Df1Kf7R3v+MoFu27bFFyS53ElM9bzNP/300zZmzFg//ejS99+Psmq+oGHyi55k3U3+z/nnX+Am/a+//tp69uxh1157nZug/Uv7/Xfs2B+tfv16buJjmezRRx/j3BCsAsHaEBSIywXrB+4c3BH0JbjGtmbNS42Pk/35558cusQkiKuqYcOGztqCeGHyX7060VkwJvpWDCbtDRs2+hPtXwYP6sF1hIgZPnyYc3m4wvwfViqVLFnSKlSo6B+ZEzM7dmx3+8EP98OMiRqxw/GwYV8ZbSdOpESJkta0aTP/3p2+YHzF6E9wL8ua+Z5J167dXfxLly5dfKvTz/bNN98EWVxsDEugEXh86wQXXvPmd1ifPr2SfKeEvr7wwgu+JeZku/POO6169RrGyp7u3bu5pd9BgQsWLDCsLDVq1HRBtpdcUtOqVKlq9957jy+glgfZbO7cub6QeNeeeqqtwfDxx59wIg4hRj+DjFhfxo0bZ/fdd78vMMv45dznj8u/vmXpdRdUSz6YdOvW1Re4i3yh2MmOPvpoe+mll43YoNS+s8N98ZXUGxEQgZxGQALFH/Hy5Q9xb6StW7ey0aNHuQlpzpw5bkLkTbm6b3r3sxnWDybT2rVrcxhJ+fPnNwI9Z8yYYbNmpWx2b9y4sbNG4DJgQovcvJ87uAvmzPnbf3t/3ndZ/OkmQiwbY8b84L6bERSHdeHzzwe6VSjHHHNMcDqyveyyOm6iI77kt9+mGYGsTz/d1gXZtmjR0uXj+yCffz7YolPPnr0Nl9aTT7Z11gOsMVhcmNSxqmBd4CuqxNl07NjRfefEFeb/3Hvvfb4o+N66du1qTPR8+wRRgei64YabjLgT2v3222/bpZdealddVc+/y4wJnmDYQYM+t2nTprpzv//+mz399FPWrFkzq1ixojt3xhln2o033uhbIJ70ucxx51jaPHz4cHvmmXYun+d5xlJh8r799lvG6iMyEvdDmQ899DCHLj322ONO/D3wQGtDQHGSfOy3bdvWtRdLE+4vrFF8A4Y8q1ev9l14LeyUU071xWQDTvkWkhL+mL1gxC8Ra8LJDRs2+Badt+2GG270+1uLU4a16ZZbbnFBxMTVcBIR0rHja75wust34ZXklG9JucywPmFp4ns77qR+REAERCCOCEig+IPpeZ772BmTDStMzj77TLvsslruLb5VqwesYcNrjLfY6dOnu/2yZcv5dyX9W69ePV/kFLDgmxyUhasmyMWKkEMOOdSqVj3fAsGAVaN06dL+RLcrRoO3/FKlSqcYwBmUU7ZsWRs+/Gv755+FRgwKXyxFRD3/fAc3uQX5fv31V996sNVat37AWUOC88EWN9Zbb73jLBJ8zbRu3Tq+ePjO2rd/zll7yOd5nouxoF1BIn4Fq0iBAgUiViDP85wQuvba633XyAtWrdrF9txz7d2kixWCskgNGlxtd911ly9QPrBatWq6ZbI9e35kLVveYwgN8iCq+M4MVhGEH+fg1NS3orAsmPgV4mQ++ugjg2d0+eRt0qSZm8S7d+/u+sYXdmvXvswt6fY8jyxu2XDXrt2cSMJiNG/ePCccrr76GjvzzDNdHn74mNodd9zplm9jrfj779ku5ogP4zEOtvsP9/AhPeJ9sEJhAcIqh1WE54BspAsuuNCq+2L3zTc7G6ICi1u+fPl95s86zuTJlSu3tWnzkBOBH3/8sXPh9OvX1ypWPNr4ho3n7eqD53nGh94YR0QTzyf3K4mACIhAvBCQQNk9kqwu+eST/ta//6fWo0cv6927jz9pfWW8uWMl8DzPTfYsAd19S5JN6dJl7LPPBviTczXfJZRg99xzj/EF0CAT5Xfv/qE/GbV31zlf2hcn1HfOOWdzaOTp2bOXP4nVcMep/bDU+LPPBrqvtPbt28996bZWraRWneOPP9569erli5+8qRWzexLsa/369fff2PvZ0KHDrE6dOqnm50LRokV9F0cnO+usszhMkp544gmfwUDffdLHBg783M/3uhNt0ZmYtFkt1adPX7/OvjZo0BfOvRHkYdUTcSAIoOBcsO3UqbP7fgnH9913n8GqTJkyHEYS1h3GD/ZYu1544SXfctEhcj3YgeGAAQOcqCtdupRvyXjXFwZtImMT5Ktfv4HfpwG+NeQUw43Vv///7OKLLw4uR7Z33nmX8XE2rCuIkE8/HWDnn39+5Do79OnZZ5+zt99+1xAWDRo0sB49euwlSBGBH33U039+7nTCBQtN//6fJIkvMv9PpUqV/Pt7OgtMtNvIv6S/IkZGlT0AABAASURBVCACIhB6AhIoUUPIpMFyVr7JUbXqee5z5VGX/bfYikbgavS56H2+o1HKt4BwrrzvNipXrjy7LiFyECDREypWCYRE4cJFXB7qZ9LhM/buRBo/vN2feeZZxofKSpZMunKH2/iEPd85YT+thODgy6Znn312xHKyd/49Z4J+FC68Jxg3uMrESjwKLixcUZ63620/uM7W8zw7/PAj7JxzznEJoYCFhGsk3DWptRv2uHtwBVWseJQLNuae5KlixYq++KroxBH5ixYtljyLO65QoaIRLFzY5884FPXFl7sQ9UNdxx9f2bGh/mOOOdbFkkRlcbv0nTL4Ei5jD4fofrlM/g+ilGuskmKs+fCb5+3NieeE54ln5OijjzFWDPm3J/lL+RV9DhX9/jIuSS7qQAREQARCTkACJeQDqOaLgAiIgAiIQDwSyBECJR4HTn0SAREQAREQgXgmIIESz6OrvomACIiACIhA5hHI1JIlUDIVrwoXAREQAREQARE4EAISKAdCTfeIgAiIgAiEn4B6ENMEJFBienjUOBEQAREQARHImQQkUHLmuKvXIiAC4SegHohAXBOQQInr4VXnREAEREAERCCcBEItUFL4vlU4R0GtFoGcSEB9FgERyFQCnrf3RyAztcIMLjzkAsWzXLlC3QXTHxEQAREQARHIaAK5c+fK6CKzvLzQz+558+bJcmiqUATMTBBEQAREIGYJ5MmTO2bblt6GhV6gJCQkyIqS3tFWPhEQAREQgbgngGeBuTHsHQ29QPE8L8X/eVvYBybT268KREAEREAE4pIA/5NTzwt3/AkDE3qBQidy+762fPnymueFf0Doj5IIiIAIiIAI7C8Bz/Msf/58ceNVCKtA2Wvc8LcxMJ4nkbIXHJ0QAREQARGIawKet0uc8MIeLx2NG4HCgOB3K1gwv2FNYZDwwXme5ywrnqet54mB54mB54mB54mB54mB54WbAXMccx1zHnMfcyBz4cGl2Lk7rgQKWD2PmJTczsxVoEA+Y9AKFMhvSmKgZ0DPgJ4BPQPx8gzsmtvyubkOD4LneRZvfxLirUPR/fE8z1lPEhI8UxIDPQN6BvQMxP8zkFPG2PN2zW8Wx3/iWqDE8bipayIgAiIgAiIQ1wQkUOJ6eNU5ERCBcBFQa0VABAICEigBCW1FQAREQAREQARihoAESswMhRoiAuEnoB6IgAiIQEYRkEDJKJIqRwREQAREQAREIMMISKBkGEoVFH4C6oEIiIAIiECsEJBAiZWRUDtEQAREQAREQAQiBCRQIijCv6MeiIAIiIAIiEC8EJBAiZeRVD9EQAREQAREII4IxJBAiSOq6ooIiIAIiIAIiMBBEZBAOSh8ulkEREAEREAEYpxASJsngRLSgVOzRUAEREAERCCeCUigxPPoqm8iIAIiEH4C6kEOJSCBkkMHXt0WAREQAREQgVgmIIESy6OjtomACISfgHogAiJwQAQkUA4Im24SAREQAREQARHITAKhFyjbt2+3TZs2pZm2bduWLoZbtmyxzZs3286dO/fKz7nnnnvOLrjgAlu0aFGS6zt27LB//vnH+vbta999912SazoQgZATUPNFQAREIFsIhF6gjBw50i677LI003vvvZcuuE899ZTdcssttnDhwr3yz5s3zz766CNr0aKFHXbYYUmuf/HFF3b++efbgw8+aM8//3ySazoQAREQAREQARHYfwKhFyhFixa1SpUqRdLkyZNt7ty5VrFixci5MmXKpIvMrFmzbNq0ac4ak/wGxEutWrWscePGyS8ZAsjzPJs5c6Z9/fXXe13XiWwkoKpFQAREQARCSSD0AqVKlSrWrVu3SMqTJ48dddRR9uabb0bOBaICV8z8+fNt/Pjx9ueff1p6XT/Lly+3Bx54wO655x7bunVrZKBxLc2ePdtWrFhh5cqVsyVLlhh5Ixn8HdxBEyZMsN9//902btzon9nzNzEx0f766y9bs2aNS4irKVOm2IYNG/Zk2r2Hi4myJk6caFOnTrX169fvvqKNCIiACIiACMQfgdALlP0ZkmeffdaqV69uDRo0MKwh1apVM1w3aZXx1VdfGfmuuuoqu/zyy+2cc86x0aNHu1uwmFxzzTWG5QWhcemll9qLL77orhEb065dOxezUr9+fatTp47VrFnTZsyY4a7z8+WXX7rzH374oV100UV2xRVXWN26de3GG2+0ZcuWkcUlYmM6dOjgyqpXr57LwxZLkcugHxEQAREQARGIMwI5QqBgKSE2BKtK7dq17a233rKWLVu6WJP7778/VYvF4MGDnVg49thj7bXXXrMnn3zScCndd999TtgQi9K2bVsXk3LEEUfYSy+9ZNdff70LsqWujh07Ghae119/3Vq1auVExw033GBz5sxxjxEBuVhcevXq5cTJ008/7WJZvv32W/vggw9cHn569OhhlEGcyyuvvOKsOf/++68TWQsWLCCLkgiIgAiIgAjEFYHMFSgxgoqg108++cQuvPBC69SpkzVq1Mgee+wx5wb64YcfXOxI8qbiQsGyUapUKevSpYvddNNNTtR89tlnzpXz+eefG9coq0SJElayZEmXh1U+CCJEB66mrl27GqKkTZs29swzzzhxMmLEiEh1uG6wnGAhIQD3/+zdBYAVVd/H8f8sS3eohIGi2IH1YCKiqBiACiggCioomFiAQYrdLRZgJ2CDKIqdoIKiYqPSXQssz/kduMvusiyb996Z+/Vlbsw9c+acz7nvMz/OzFwURnT9zOuvv+7LzJs3z2LBRe3RRbyXX365D0s6taQgozp8YR4QQAABBBCIiEBKBBTNUmjGoXr16vb888+bQsDw4cP9tSO6pkTXiOQez4ULF5pOodSoUcMUKLSNlnHjxpnq+fTTT3NvkvVe15bo2hSFGs246IO0tDTT6SBdI6NrYLROi9Y3btzYgiDQW6tSpYptvfXWWdeYTJkyxRYvXmxHHnmkVahQwZfRg041VapUyXQtjWZitI4FAQQQQACBqAiklWxHkrM2hRAtulBVMyCxRbMgzZs3N4WQ3C3XLIgO/JqliJWPPe+yyy7+DqHc28Te66JXXZBbr1692Cr/XLFiRatataotWbLEv489lClTJvZyo2cFJa3M3UbVo+3URl3vojIsCCCAAAIIREUgJQKKZh4UDnSx6muvvWaxRRepvvTSS9a+ffuNxrN8+fL+epPtttvO9DsnsW30rKCiH22zTfyn25rLlStnuiMne5FZs2b5u3xyB5fsZXK/1nUuQRD462Wyf6YZIV08q+CifWX/jNcIIIAAAhETSMHupERA0SkTXQ8yatQof9pG46zrNp566inr2rWr5XWhqa4p2XPPPe2HH36wCRMmaBO/aBZG14Ho7h6/Io8HnXrRxbHPPPNMVkjRTMdNN91kChPN3axNHpvluWq33Xazvfbay5+amj59elYZBSvdjqw7g3TaKOsDXiCAAAIIIBABgZQIKFtuuaVdccUV/ufojzjiCOvRo4e/vVcXpc6fP99f4Jp7LBUkdCGtZl40w9K5c2d/R48ugtWPue288865N8l6n56ebhdccIEpBOkCWF0kq2tI9Hstup1YdxJlFd7MC83k3Hnnnf6aFN3Fo7aoDt0lpDp1nctmquBjBBBAINEC7B+BQgtELqAofOjOGh3Ys2ucfPLJphmUdu3amS5iVWjRXTW6C0YXpqqsfuukS5cuWdek6OJV/ZS+bhGOXeeh4KGZkUaNGmkTvyg0qF7/Zv2Dfs9EsxyabdH1KPq1W90iPHz4cH8hrIrtvvvudv7551vusNO2bVt/R5DKaNl///1NdyEpJAVBYLrL55ZbbjHNADF7IiEWBBBAAIGoCUQuoAwdOtT0OyW67iT3YOk2Y/2eiQ72ug1Ysyr6/ZJYuW7dulm/fv1M4SW2TkFEv3WifwhQgUC3A++7775Zd92onAKM9qnXsUV352i2Rb+Nov3p3/FReNItybEyBx10kOm0z3777Rdb5Z9V7sorr/Sv9aC6mjZtavpdFdWltnfv3t0qV66sj1kQQKC0BagfAQTiLhC5gFIQwSAIcgSM0tomVm8QFH5/sW1zPwdBydWVu27eI4AAAgggkCwCKRlQkgWfdiAQJwF2gwACCIROgIASuiGjwQgggAACCERfgIAS/TEOfw/pAQIIIIBAygkQUFJuyOkwAggggAACyS9AQCn9MWIPCCCAAAIIIFBIAQJKIcEojgACCCCAAAKlL7D5gFL6bWAPCCCAAAIIIIBADgECSg4O3iCAAAIIIBAfAfaSvwABJX8fPkUAAQQQQACBBAgQUBKAzi4RQACB8AvQAwRKV4CAUrq+1I4AAggggAACRRAgoBQBjU0QQCD8AvQAAQSSWyCyAWXt2rWWmZlpa9asYcGA7wDfAb4DfAci9x3QMU7HuuSOGUVvXSQDSkbGKlu+fIVbVtqKFSv98/LlPGMQpe8AfeH7zHcglb8DG45tK0zHvKLHgOTdMlIBZfXqNbZs2XI/WJmZa03J0k2kJK8+LUMAAQQQQKAIAjq26RinY50Cio59OgYWoaqk3SQyAWXVqtW2cmWGO62zNmmxadgGAV4hgAACCJScgIKKjoE6FpZcrYmtKRIBRalRA6M0mVhO9o4AAggggEBiBHQM1LFQ114mpgUlu9fQBxQNiKa3SpZlc7XxOQIIIIAAAskpoGOijo3J2bqCtyr0AWXNmkx3Wiez4D2mJAIIIIAAAhEW0HFRSyi7mK3RoQ8oq1atytYdXiKAAAIIIIBAFK5FCX1AiUJK5P+VEEAAAQQiIZA0nYjCdSihDii6ajlpvg00BAEEEEAAgSQSCPt1KKEOKEn0PaApCCCAQPgF6AECSSRAQEmiwaApCCCAAAIIILBOgICyzoFHBBAIvwA9QACBCAkQULIN5urVq23atGn2xRef26+/Tje9z/axf6lzer/88ot9/vnnNn36psv8+uuvrsxn9vPPP/l/oMpvnO0hMzPT/vjjD1fmc/vxxx/zLfPll1/Y1KlTbeXKldlqWPdS9fz991/25Zdf2nfffWdLlixZ90GOx7X277//2ldffWWTJ0+2RYsW5fg09mbOnDm+zDfffG0LFy6Irc7xvGDBAvvmm2/c8rXNnz8/x2exN4sWLbRJkybZ119/ZXPnzo2tzvG8ePFi3xa1adasWTk+4w0CCCCAAAIElPXfgWXLllnfvlfZaad1sO7du1v79u3siSceX//puicFhL59+7oy7e3CC3u5MqfanXfese7D9Y9r12ba9dcPsQ4d2tlFF13kynawPn2u3CjsPPLIMGvX7lS74IKe1qnT6Xbeed1t6dKl62tZ9/TKKy/7erp3P9eX6dGjuylErPt03ePbb7/tynSws8/uamec0cnOP7+HzZw5c92H6x/HjRvn26oynTt3NNWjwLL+Y//08ccfWdu2bdbXc4adc87ZG9WjoHTKKW3dZ92sW7eu1rlzJ5sxY4bfPvbqXhywAAAQAElEQVSg8CbDbt3O8o6nnnqyCyKTYh/7Z/Wha9czrUuXzq4t55rKjBs31n+W0g90HgEEEEAgS4CAsp7ihRdesPHj37WHH37Y/c3/G+vff4ApfGg2ZX0Re/nll2zUqJft5ptvsU8++cxuuulme+yxR+3ZZ5+JFXFlXrZhwx62667r78p8anfccae9+eabft1a/etOruR7771nQ4cOtSuvvMrNoHzp9jnMPv30U7vvvnuzfnROMyZ9+lxlPXte4NozyZ577gU/0/LIIw+7Gtb9URC55pp+LgSd5mY0Jtvo0a/6AHPPPXevK+AeNaMycOBAa9XqePvssy/snXfG+9maG24Y6v8xRVfENCsyePAga9r0IJs48SPXps+tQoUKLjz1stjvzMybN8/16Vpr3HhnGzduvH300Se29dZbmwKLZkNi9Vx88YVWq1ZtGzt2nH3wwUTbe+99XBA5IyvsrFixwoegIEizd9+d4PfXrNkRdtVVV9mff/6palgQQAABBBAwAsr6L8EzzzztZjr62AEHHGhBENhxx7WyFi2Osv79rzOdRlG4GD16lPXqdYEdeWQLS0tLs+bNj7TWrdvY8OFP+NkPHXxffXWMm63oYCeccKKv57DDDrezzupqY8aM8adEMjIybOTIEXbYYYfaSSedZPpvv/32twEDBrrwMM50sNe+7r77Tttrr73dLEs7FXHBoLELO3e4EDLat0cr7733Htt++x2sa9duvj3bbbedDR48xN544w3fHpV5/vnnXGCoaRdffImVL1/ettqqrl1xxRU2YcIEd4rqFxVxweVTP8MzZMgQq1q1qlWqVNl6977cnTL61n+mQlOnTrHZs+f4UFarVi1XppKv5++//3bBbryK2Pfff+fqnO7L1KmzhS9z7bXX+ba89967voxOD3377bcunF1ptWvXtooVKzr3vla5cmWbOHGiL8MDAggggAACBBT3HVi8eJH99deftv/+B7h36/6kp6fboYcearqWRKdDFBqmTv3BnU45bV0B91imTBk3M9HK/vvvP3+Nx/Lly13539yMwZk+nLgi/rl9+w7u8398QFm4cKG/9qRNm7ZWrlw5FfGL3s+Y8Y8/mOsakalTp9rhhzfzB3BfwD3suedePpxo5kSh6e2337I999zTqlSp4j5d92e77Rpa9erV3azL137F6NGjbZ99muSop2HD7X1oef/9D3yZsWPHmkKSAoxf4R522WUXq1atmn344Ufunbmg8pkrs59f51e4hx133Mm22WZb+/bbye6dmU7vaLsGDRr493pQCGnWrJn98MMPeuvK/OxCUDUfBP0K96Bw0rx586w2u1X8QQABBBBIcQECivsC/PnnX1bVzRzotIZ7m/Wnbt16fmZBp0AUUNzEij/1kVXAvdh2221NMyeLFy/2p0Pmz59nO+20k/tkw59tttnGVq7MsOXLl7lluS1Zsth0cN9Qwkxhp2rVKj6g6PMVK1aa6s5dppY7faILeVVG16zoNEv2Mgo9VV1fdHGu1ut5iy228EFJ77Xoc4WCf/5Zd/3Ib7/9anXr1tVHWYtmNrTdzJn/+nX//PPPRu3RB7vttpvp9I9+tVBltnMBSeuzLzvt1NjNvsz2p5Rmz57tZn22z/6xfy2PmTP/8695QAABBBBAgIDivgPL3cxHmTLp/jSJe5v1p2zZdP86M3ONf9ZpHYUU/2b9Q4UKFf2BV2UUYnSgrlChwvpP1z0FQeACgrnZj7Xry67dKOioZHp6WX99SGbmunLp6WW0OseS7mZ2dEGv/p0F7a9s2bI5Pg+CwPdDp5LM/ac7kRRa3MusP6ojLa2MqR6t1MW/6W7fep19KVu2nGVkrPKrlrtwlbtf+qBKlcquX5m+X2pTumuf1mdfKlQo78Ob1umaFoUfvc6+lHGzUWvWrM6+itcIIIAAAhEQKGoXCChOrn79+m5mY1nWQdSt8n90qiUtLc1fS6EVmZmZ/mCs17FFp3cUEnTw1kFWMxMzc91FEwsC5cqVtXVly/tTPrE6Ys8KAZUqVfLXipQtm26auYl9pmftXzMnOoWi0zoKA5q90GexZc2aNW62ZqXVrFnLr6pVq9ZG9Sx3gUyhpE6dOr5MnTpbmG4N9m/WP2hfCxbMtxo1avg1OlWju2/8m2wPf/01w4Wt8j4UVa9ebaN9qahOkel0kV7rWWZ6nX1RP6pUqZp9Fa8RQAABBFJYgIDiBl8BRQf2xYtz/j6Irpso62YR6tWr72ZAAnfQr2lTp667lsJt5v9MnjzJX+BZy5160TUcOlUyYcIE/1ns4fPPP3MH+pqmUytV3WmcmjVr2ieffBL72D/HbtetVKmi1XKhQgdy/ZaIZftv9epV/lTJHnvs4UNMo0Y72rRpOX9DZbE71aRAcMABB/gtdWeOfm9FMyl+hXtQ0Jg/f76/w8a9tX32aWI///yzXmYt+m0Sldl11138ur322sdyt2flyhU2efI3tu22DX1A2WGHHUy3IvsNsj18+OGHptNcQRBYvXr1bPr0XzYKMtqucePG2bbiJQIIIJAMArQhUQIElPXyRx55lN1++21uJmW5X6MD9JtvvmGdOnX2MyhBEJjuyBk6dIi/5kKFdKB/7rln/cW1W221lS+nC23vvfduf+Gsyuggf99999kee+xumqnQLMHBBx9iL730ounaD5XRrcC6XbhJk31Nn2tm5LTTTreJEz9wweEnFfGzIro1eR8XJjSro5Xdu/cw3RXz88/rymjW45VXXvIhQGHB3H/nnnuu6QfTYmXcKtNvjpQvX8FfBKz3J554gr/QVSFB77W89dZb/rRNixZH6a01adLEzfr8a6+//ppfr9NLugBX19boIlgV2mWXXX2Qe/LJketPVWWaDHWnz//+11RF/IW2NWrUsMcff8zPWKmejz76yP84XtOm68r4gjwggAACCKS0QFpK9z5b57t16+p//6NNm5NMtxbr9z108Ozdu7cvFQSBvzvnl1+mW7t2p9jAgQOsQ4f2/qCtW3sVGnSKp0eP8/ytwqeffpoNGNDf9DxlyvfWp09f0wxLEAT+VuWqVau5+s6wIUMGW8eOp7nQMM569uzlTpdU8Pvr2LGTNW68s3Xu3Nn//kinTh3thReet3POOdeHABVq2bKlDw5qR58+fVzZjvbAAw/YpZeua7PK7Lbb7i6IHGYnn9zWrrjicjvrrC522223ufZclbWvhg23t2OOOca19XS76KILXTvO9z8217//ABd26qsaf2HrKaecYhdffJHpx+V6977Urrnmardc68LXHr7Mjjvu6PrWy+R3wQW97LLLeru2XGLdup1tBx54oC+z9dbb2KBBQ+zee+9xZXv6NvXoca41b36kK/M/X4YHBBAoOQFqQiCsAmlhbXhJt1u38D7zzHP+IDljxt92/PEnuL/lD886iGt/ujtn7Nhx/oD/559/mmYORo0a40/96HMtOsUzduw71qJFC/vrr79Mp1pef/1N22GHRvrYL1WrVrVXXhnlfyvlt99+8wf4CRM+sH333dd/rody5cq5g/h9ppmUGTNmuIDQ0AWUl+yII47Qx35RILrxxpvsvPPOtzlzZlvduvXsoYcetqOOOsp/rocgCGzAgIF2ySWX2KJFi61atep29913+9950edaNGNz3XUDXLDobxkZGVpld911t7Vp09a/1oP21bdvPxdchuqtv3Ppxhtvth49emQFJoW0c8/t4Wai7rT09DL+Ilztu78LOtpeGwZBYG3btvU/TqfAplNS+sE67U/vVYYFAQQQQACBNAg2COy+++7+h84efvgRN8PQ13RtyoZP173StRQDBw6yYcMecTMb/S33rcAqteWWW/qZhYcfHubr23777bU6x1LDnea46qo+vp7rr7/BNPuQo4B7ozKXXnqpL3Pzzbf60yNudY4/1avXsPPP7+kP+LfddrsLTUf460GyF6pSpYoLEufbgw8+6ILHPW625FiLBYZYuQoVKrgZmDPsgQcetPvuu9//vkvuMnrfocNpLjjdb/ff/4CblTk5K5zE6tFz69atXQi619elgKV1uRedOrr77nt8mS5dznSBJj13Ed4jYGYgIIBAqgoQUPIYec0E5LE6x6qClNEBPcdGebxRPUEQ5PHJhlUlVSYIAhcoNtSb16sgUJkgr4+y1gVB4OoJst7n9SIIgo2CkuX6LwiCzZYx/kMAAQQQSEkBAkpKDjudjpcA+0EAAQQQKJoAAaVobmyFAAIIIIAAAqUoQEApRdzwV00PEEAAAQQQSIwAASUx7uwVAQQQQAABBPIRiHRAyafffIQAAggggAACSSxAQEniwaFpCCCAAAIIJKFAXJpEQIkLMztBAAEEEEAAgcIIEFAKo0VZBBBAAIHwC9CDUAgQUEIxTDQSAQQQQACB1BIIdUBJS8v/10xTayjpLQIIpIgA3URgswJBEGz2F783W0mCC4Q6oMhO/yidnlkQQAABBBBAYJ1AQf6plXUlk/cx9AGlbFn+kbnk/XrRMgTyEGAVAgiUukC5cuE/NoY+oOgf0ktPL1Pqg80OEEAAAQQQCIOAjolBEPrDu4W+B0EQWLlyZS0IgjB8b2hj+AXoAQIIIJC0AkEQOyYmbRML3LC0ApdM4oKaRalYsQIhJYnHiKYhgAACCJSugG4cqVSpgumYWLp7ik/tkQgootLAVKxY3jS1pfcsmxBgNQIIIIBA5AR07KtQoXyk/qIemYCib5tSowZICVKD5Wa6tJoFAQQQQACByAnoGKcbRSpVqmg69ukYGKVOhi2gFMheg6TBqly5klWuXNE0eCw48B3gO8B3gO9AVL4DOrbpGFe+fDl3Siea12BGMqBkTzFBEPjB0ykgFiz4DvAd4DvAdyAK34EgKOlQYkn3X+QDStKJ0yAEEEAAAQQQ2KwAAWWzRBRAAAEEEEh2AdoXPQECSvTGlB4hgAACCCAQegECSuiHkA4ggED4BegBAgjkFiCg5BbhPQIIIIAAAggkXICAkvAhoAEIhF+AHiCAAAIlLUBAKWlR6kMAAQQQQACBYgsQUIpNSAXhF6AHCCCAAALJJkBASbYRoT0IIIAAAgggYASUCHwJ6AICCCCAAAJREyCgRG1E6Q8CCCCAAAIREEiCgBIBRbqAAAIIIIAAAiUqQEApUU4qQwABBBBAIEkEQt4MAkrIB5DmI4AAAgggEEUBAkoUR5U+IYAAAuEXoAcpLkBASfEvQGl3f8WKFTZr1ixbtmxZae+K+hFAAAEEIiQQuYCyePFi+/rrr+2bb74xvY7CWM2fP99mz56d5xI78GdkZPjPV65cmTRdXrt2rQ0bNszat29vU6ZMKXS7vvrqKxsyZIjNmTOn0NuyAQIJF6ABCCBQLIHIBJQFCxbYtddea9tss40ddthhduihh1rjxo3t+uuvt4ULFxYLKdEbt27d2ho2bJjncu+99/rmvfXWW/7zd955x78vyYd///3Xfv/9d1MIKky9ClVP1TqJhAAAEABJREFUP/20bbfddrbvvvsWZlNTuHn00UfthhtusFdeeaVQ21IYAQQQQCD8ApEIKDqF0LFjR9PB+sQTT7Q777zTL4cffrjdfPPNdt5559ncuXNDPVpbbrml3XbbbRstRx11VKn366qrrrLjjjvOfv7550Lta968eda8eXO75557rEyZMoXaNggC6969u9166612/PHHF2pbCpeIAJUggAACCRUIfUDJzMz0weSDDz6wSy+91EaMGGHnnnuuX/S395NPPtlef/11e//993NA69oIhZYZM2bYokWLbPXq1Tk+X7JkiWnR+pkzZ2YdnHXaSOtXrVrlT6n89ttvWduprGZy/vzzTx+I8jrdovYuXbrUNCvx33//mV5rXVYlm3hRo0YNH7QUtrIv+c1MaBZCp4AU4P7++2/fn7z2pZkRWajdar/6FmuG+ior9UV9l5XqXbNmjZ+ZUp9VZtq0ad5R2+lz7bdWrVp2wQUXWFpamqm8Postqmf58uWmfekUjtqn+rVtrMwuu+xiCp4KZ7F1+lxm8vvnn398n7Qu9rme9V77VxmNr8rn1W+VZUEAAQQQSE6B0AcUnb6ZMGGC1axZ04eSIAiypPW39sGDB1u7du1ynJ6YOHGitWnTxnbYYQfbddddba+99rLevXv7UBHbWKdVTjnlFLvkkktszz33tP32289/dMIJJ9ixxx5rF110ke2xxx520kkn+fUKG1qnuvbee2/TwVXbf/LJJ/5zPeggrdmEQw45xHbaaSfbeeed7eCDDzadyijpA6jqe/XVV+3II4/0bdl9993tgAMO8KdMFEjUHi1Tp071IUAOsaVLly5ZgUwBT6ePFHI0i6JTZ7om5qeffvJ+Dz30kB1xxBHe59lnn1WV9txzz1mLFi2sUaNGvo/777+/3XTTTf60jS/gHnQa7sorr7SLL77Yj4G8DjroIHviiSeyyt11111+Hx9++KHbwnyYUQBVG2SnU3jaRnUrQKmQ+vbwww/bEa5Nsf6ojGZiFFRUhgUBBBBAIPkFQh9Q9Lf3X3/91Zo1a2b16tXbSHzrrbf2F2p26NDBf6a/qStU/PXXX/bRRx/5mYwePXr4kKDrHXwh96ADnT7/+OOP7ZlnnrHx48e7tesOkpMnT7bPPvvMdEDWolmAfv36+fd61sH8pZdess8//9z69OljCxYsMP2nGZ2rr77aH7g186J6FKwuu+wyyx5kVLa4i2YPLrzwQn+h8KeffmoKUApWOpg/8sgjvnq1SwHhvffes6FDh5qCx3XXXWdvvPGGDRgwwHTQV9g4+uijbYsttjAFHs1EaTZHsxSaWbnmmmt8SPviiy/8qRhd2KoZLH2uC5V///13O/DAA339999/v9+vHlT3yJEjTUFK2+i1ZlB0HdEvv/yiIn5WS/tQGa3QWOh0k2Zk5K9xV0hR29VmldE4qU0VK1a0SZMmmYKUwqDKvPjiiyrCggACCCAQAoHQBxTNSmg6f9ttt90ktw5oQRD4v5k//vjj/lkHMc2AVK5c2fr27evvNHnsscdMwSVWkU5RvPvuu342QLMPsfW1a9f2YUTXV2hmQtvob/maddHBuWzZsqbrXx544AF/kJw+fbo//aHZBl3Eq+tidMBv2LChvfzyyz5Y6fRU7EBsZrFdZT3rYKwDbe5FpzCyCmV7oetx9Fbt0kFcB2z1WfvURacKAz/88IO/20kBrVu3blauXDnTa4WWXdzpFQUvBajy5cv70zQKJnovT9WtpXPnzqZQo9mKunXr+hkaldFM0Y477miyevDBB/1FsgMHDvSnhbSdFo3ZHXfcYXqWXZs2bUyB5I8//tDHGy0KihpvhULtT6d+FDw6derkyyoUPf/88z7YaBZFfVWb7rvvPqtWrZofM1+QBwQQQACBpBcIfUAJgsBfgKkDrm3mPx1wf/zxR9MBt0mTJjlKawZGf6vX3+ZjHyhM6KAcex971kG3evXqsbf+1JCuh1AQ0ekRHTC16ICqazR0i61mVXStRf369U0HztjGVatWtX322cd0qkUXlcbW537WPhUwci/Z25F9G52WUeDRNSBqixadgtI+dL2JTo1phkHXgShkxEKHnjV7opmgKlWqZK8yz9dyi32gOjUzpD5uv/32sdVWoUIFfwpIp1hisyP6UKdpFJz0WvvVdgoZGgety71oBkWn0BTSYp+pDoUxBZwgCOy7776z3Xbbzd/BFSujkKLA+O2338ZW8YwAAgggkOQCpRNQ4thphQ3NRmjKX6dlcu9a63QKQxdx6uCnv4EHQeBDSvayOogGQZDjWpUg2HA9S/ayQZBzvfYRq1uBJLboGhhds6JTTwoLKqP26mAcqy8IAn8A12faLrY+97OCyJlnnmm5l02FCB3kY3Wq3tii6190/YfaoZkn7ScWEvRai9qntuv15haVjZWRrfqpbTWLFFuvZ63Ts6z0rCUIcjoGQc73KpN90exK7rbqc9Uda4faoFmxIMhZl2ZQZKDyLAgggAACyS+QlvxNzL+FOp2gGQjdAqs7eXKXHjNmjJ122mn29ttvmw6aderU8acAcp8a0fY6oDd0p11y17G59woPCgotW7Y0XUuRe9EFo5opqVSpkv/RMV3rEatTB02d0tD2OqUUW1/cZ53WUbtyt0XvdcGoHHQKRvvRtTJ6ji3ff/+9v34me5iIfZbfs/ancKBrWzRLEyurPmqGSe81S6Lnoiy66FYzTQohse01A6Rxj83MKAxqFkVhJlZGzwqwxdm36mBBAAEEEi2QSvsPfUDRTMDZZ59t6enpptMSumZEpxl0ceZrr71mOiWi0yMKD/pbtu5E0ameJ5980nT7sC6y1dT/U0895e/Wye+23U19MXRQ1PUsugg2dgDVbbS6C0X704W5Os3QtGlTU9t0DYhOh+h0i17rYlLdRaRrQDa1D7VZfcq9qI68tunataspFOhaEO1LB3UduPW7KfrxOoUPBTuditGFszoNJQtduKs262LV2EFeoUNBQG2XWV770zq1X78aq/D3wgsv+FNfCiu6a0oX1x5zzDGmH21T2aIsuitK/b3xxhv9z+erbl3X06pVK9NYq07tQ6eSbr/9dlNZlRk+fLi/WJbfU5EQCwIIIBAOgdAHFDE3b97c34Wjg5FuKdaPtelOHR2kdapDB+nYdQsKKldccYXpjg6V0bULWnSaQNcyKOiozsIsmvnQBaA6ZaK7hVSvFv1Muy4A1WxFEAQ2aNAg0ykWBSl9rkXXiGiGpVevXvnuUiFH/cq9xO7Iyb2xDtS67kTt0n606DdFNNOgW5sVJnSHk+4gUvA49dRT/d04ar+Ciq5X0ayP6lXoUN90Ia/CYH7X+5xzzjl2+umn+x/I0z61nHHGGf524ex38ajewi5t27b1FyzrB+tUrxaFFV1PpH2qPvVZngoo+lyL7vzRtStqu8qwIIBAogTYLwIFF4hEQNHMiA5EusVU4UN31uhCSd2do4tedcBSABGLTvPoVl/d7aFTBjq1ogO3fsxNv9ehMloUdHRg1uvsi04XadHpmtj6IAj8T+vrVIkO8LqeRTMTCkb6t2hiZXWtjGZZ9NssmtXRzItCjE67qB2x+nI/qy36VVXNbORedLeNyus3XRRyYjMUasOdd95pmmHQ6R71WzMQuh1YIS0IAn9xcdeuXU3X6Oj3UlRGwUb/lpFmG4Jg3XUcus1Yt/FqO909o9kchS7tT4aW7T/1VTNHunNHAUj9VNjR3UqaRYoV1cXE6kvsvZ7lr7uIZKf3uj1Z+9DFynqvunQHj+6C0qk4vdcM2YQJE2yrrbZSEVO7NCulu4MaNGhgCo/6HqiPsXp9QR4QQAABBJJaIBIBJSasA5l+d0S/3aEDmU6b6AAV+zz2HASB/wEzhYXRo0f7f69HB7zY53rWQVWLXmdftO7yyy+32OxC9s8UODRLot8L0SkjHYRzz8joAK6woQO2ToOcf/75plMo2evJ/Vq/Z6KDcl6LgpnK6xSTPtez3mvRvjWzoFMcChi6JVcHbX2WfdGpHt2Kq+t0FC7yOpBr1kUzILfccos/6OsWX+1PP0qXvS691uyMQpXGQWFBY6Jwps9ii2aRFI5i7/WskKQ2KlzqvYKR9hGb/dI6hSjN0mh8VbdmoGLhU5/HFs3aaP+jRo3yPwanNsU+4xmBogqwHQIIxE8gUgElfmzsCQEEEEAAAQRKU4CAUpq61I1AUgnQGAQQQCA8AgSU8IwVLUUAAQQQQCBlBAgoKTPU4e8oPUAAAQQQSB0BAkrqjDU9RQABBBBAIDQCBJS4DRU7QgABBBBAAIGCChBQCipFOQQQQAABBBCIm0CBA0rcWsSOEEAAAQQQQCDlBQgoKf8VAAABBBBAIIEC7HoTAgSUTcCwGgEEEEAAAQQSJ0BASZw9e0YAAQTCL0APECglAQJKKcFSLQIIIIAAAggUXYCAUnQ7tkQAgfAL0AMEEEhSgUgHlLVr19qaNZksGPAd4DvAd4DvQOS+AzrGJWm2KJFmRS6gKJCsXLnKli1bbkuXLrfly1ewYBDd7wBjy9jyHUjZ74COccuWrTAd8zIzM0skFCRTJZEKKKtWrfZf1FWrVllm5tpkcqYtCCCAAAIIlLhApgsmOuYpqOgYWOI7SGCFkQkoGRmrXYrMSCAluy6CAJsggAACCJSQQEZGhmVkrCqh2hJfTSQCilJjhhuYxHPSAgQQQAABBBIjsNadOMhwAUXHxMS0oGT3GvqAoouEEjYYJTsW1IYAAggggECxBXRM1LGx2BUluILQB5TVq9eYzsEl2JHdI4AAAgggkBQCOibqhpGkaEwRG6HNQh9QlBTVERYEEEAAAQQQWCegC2fXvQrvY6gDis63KSmGl5+WI4AAAghETyDxPWIGJcFjEIVzbAkmZPcIIIAAAhEVCPsxMtQzKBH9TtEtBBBAIKEC7ByBZBAgoCTDKNAGBBBAAAEEEMghQEDJwcEbBBAIvwA9QACBKAgQUKIwivQBAQQQQACBiAkQUIoxoI8++qg99NCDm6xh5cqV9u+//9pff/1lCxcutLBfsLTJjvJBiQpQGQIIIICAGQGlGN+CCRPetbFjx25Uw4IFC+yaa662gw8+yI4+uoUde2xLa9bsMOva9Sz7+uuvNyrPCgQQQAABBBDIKUBAyelRqHePPz7cnnvu+axt1qxZY6NGjfJhZO7cuTZo0CB7+eVR9sYbb9o999xr2223rV166SX2yCPDSv3Xb9esWe3atdYtG/5oBqf0fzdmw/54hQACCCCAQFEFCCjr5S67rLf9/vvvdvvtt9nxx7dyQeJimzFjhs2ePcu/PuaYljZ48CDLyPaPEj755Eh76qmn1tdg9u23k23IkEF2111325133uXqOcEaN27sgklDO+yww23AgEF2xx132siRI+355zcEG1Uwd+4c69u3j7Vqdax16XKGTZjwnlbnWN56600744zOprZohkanjWIFZs2aZZdffrl99tmnbv4rHKgAABAASURBVD/XWZs2rW3y5G/tjz/+sKuv7mc//vijnXvuOda5c6fYJjZt2o924YUX2HHHHeOff/nl56zPYi+++eZrO++87q7Msb6M6ol9tqnn+fPnOavBri/H+f29/vprtsaFt+zlJ078wM48s4szamVXXXWlPw0W+3zp0iX+s3HjxvrxOOGEVtaz5/n2zz8z3PKPG49L/HYymDNnTmwznhFAAAEEIiSQFqG+FKsrCgT9+19rU6ZMsX333dc++eRTd8C/zB0oz3T1Brbffvvaiy++4A+OmolwK+37779zB/4f9NL0s8L9+vW1du3a2xFHNHdBZqWNHj3Kzj+/h11wQS974YXn7YknnvB1n3322XbLLTeZQoU2/umnn+zII5vbpEmT3GmhQ6xSpYrWrVtXe/zxx/xMy+rVq+2222719VSrVs0OP/xwf6qoefNm9vPPP6sKW7ZsmU2c+L4rd5tNmTLVDjjgQKtcuZK/9uXVV8fY2Wd3syAw23nnxv5aGAWZU0452RSMFJ70fPTRR9kHH7zvPje3rHUzP69Zx46nm66lOfTQQ23mzJl28slt3H4+8PvM60GBrkOH9q7M+/a///3PatSo4R2HDXvYF9evGz7pgl2PHt2tSpUq1rTpQT4oKVB99923voz++YK3337Lh5OpU6dakyb7eZtOnTr6sFSuXFnbfffd7dVXX7Ubbhjqt+EBAQQQQCBaAgSUbOO59dbb2IMPPuj+9j/E7r77bvv000/cjEUXd9C/3YYOvdHNIFzkDopjbMmSJdm2Wvdy8uTJNn36dDe7cawPFffcc4/dd9991rLlMS6wHGH33nuP3XnnHb7wqae2c4FmtQsSU/zMgg7e9es3sBEjRto111zr9n2v39e4ceNs/vwF/kLbESOGuwP2HX525uqrr3FlR7gDfFX3/k4XhjJ8vXrYeuutbfjwEXbddf1txx130ipbvHix3XTTTa5vD1v//gNt3rx5NnDgQGvduo09+ujj1q/f1f75tNM62rBhw2z16lV+pmLAgAHWvn0Hv532+cQTw93MxQmufXf7enM/6PTRDTfc4PqU6cLYCOvff4A/tTV48PX23nvveZeffprmQ0XPnr1c2++2a6+91vXlSdt7773tgQceyKpSIXC33XZ36x504zHY+d3ngsw069Sps+vLLXbzzbe455tdoNp0WMqqjBcIIIAAAokWKPT+CSjZyI47rpWVLVvOr9lyy63cDERla9asmaWlrWOqV6+eP8guWrTIl8n+oL/9V6xY0bbffnsfGN58801/fUrbtiebAskVV1yRVU+lSpVshx12cDMoM11QWWWff/6ZO83Rx7bYYgtfZbly5dxMTW97+ulnrHbtWvbVV19ZrVq17aSTWlt6erovU6fOFm52pqebxfneFixYYLH/jjnmGDcDUyn21j/XrVvP9tmniZUpU8a/nzHjb3c66zdr27atm0GZa3///bd/1izGlCnf+zbpVM6sWbPtrLO6Wvny5f12areCxddff+X6uNKvy/4wb95cf4qpdevWVr9+ff9REASu/6d6CzlOcTNUCkwdO3bK6otmhXr16mUT/Gmttab/giDwoaVs2bJ660+VyXfnnXfx7/Wwxx57uPC1SC9ZEEAAAQQiJrDuyBuxThW1Ozp1UNRt582b7w+4OtjOmjXL9KwDeqw+BQodYGPvFUL0WrMO8+fPt1122XDg1frsiwJFgwYNsq/yr3feeWd3amepDxR+RQEfli9fbitWrHAh6BI3I9Exa9E1LLGAtnjxIj+Tsu222+aoVX2oWrWqzZkzN8d6vVm8eImvN/c2+iy2LFy4wM38VHGBq1ZslX+uXr2GCz2r/Okkv8I9BEHgHjf8CYLAn6basIZXCCCAQJwE2E3cBQgoJUSu2QFVpVMTuoZEIUCvtU6LriPJfqGoAkD58hXcATcwHfR1fYfKxRZtq230XLNmTdOBPfZZ7HnmzP9MQSc2MxJbv7lnzcJoeeWVUfb++x9kLRMnfuhmQD73MzAVKlT0My7z58/LUZ2utVm+fIUvk+MD90YzLenpZW327NnuXc4/6ovWVKhQwc16LHahasNpKa3XdS5paYGVdyZ6z4IAAgggkNoCaand/ZLrfYMG9f0MwNy5c626mw0IgsAmTpzod7B2baa9++677lTMfFNI0UFfp1Xq1q3rTimVtb322tt095AO0n4D9/Daa6/6azUWL15s++67n/3+++82adI37pN1f1R2xIgR7lRRI6tevfq6lQV81OmXLbfc0p599jl/MWxsM526eeON1/1prEaNGvmZjhdffDFHGbVrm222sRo1avjN5rvZH90ppDc6RbXTTjuZrp3JfhpMp6gGDx7s69lll119qBozZox/r+3k8+STI2y//fbXWxYEECh5AWpEIHQCBJQSGrIDD/yfLVmy2KZOneJP9bRr187OPPMMa9nyaGvatKkLKOPdngI766wubv2ZplkRXRianp5uHTqc5g7qY+2KKy63X3/91d8tdOWVV9h8N3uhU0W6XuWQQw6xU089xUaPHm2//fab9evXx818TLBzzjnXz8C4ygv8p169+qYLYm+77RYXjG61P//801544QU7+eS2rs73fT0KGrpORHcPDR/+hG/XLbfcbNdfP8TOPfdcX0anp9S/005r769h0fUiuuD2008/tT59rrJp06aZbo1u3/5Uf7pIG+233352wgkn2oAB/W3MmNH2yy+/uL70s+eee87OPvtsFWFBAAEEEECAX5KNfQeaNTvCh4bYe10/0rz5kabTFrF1W221lQscx5hOU2id7jLZdddd9dIaNmxoRx7Zws1KPOtnIM5xwWHkyCf9wVgXgI4aNcYeeeRR0zYtWqjc81nBQu8fe+xxW7p0qb+N9umnn3YhoLsNGjTE163TONdff4MPI0888ZjpFt1Fi5b4i2h1y7EKqb2HHdYs60JbrdNSrVpVO+yww3xo0vvY0rNnTzdDc6OblZns6j3bnnnmKfd8jgtJV2ZdzNunT18XHq62N998w7dLv/Nyyy23Wps2bX01QRCYbk1WGypUWHch7W677ebDhmaKLrroQtNdUbLo3fsyfzpLG9522+2uD+fZk0+OtF69zvd3Kd19970mb32uoHPMMceaZmr0XouCXIsWR1m1ahtmizQOsW1UhiXCAnQNAQRSTiAt5Xq8iQ7feONN1qjRjlmf6nTFrbfeluNiTp1qeeCBB7PWdelypmmWIbbR4MFDTHfzXHBBT3+xqA6oF110kalcjRo1fFDo27efXXzxJVl3uWjbIAjs2GOP87fUvvTSK+7A/ZRdcsml/hSLPtdSu3Ztf6fPU089Yy+//LK/hfmII5rrI7+ovUOHDrV99mni38cetttuOxsy5PqsUBVbr2tmNHOj0KT6nnzyabv66mutTp06sSL+GhTdxfPEEyNM7Ro27FE7/fSOWaEtCAIfogYPvt4qV66Std1BBx3sby9+6aWXfYhS0FH7YwUUNnr27GUjRjzp633ooYddkDvB709lKleubA8/PMx5Ha63flEYufvue6xhw4b+vR5Up34QT69ZEEAAAQSiJZAWre4UvTeapdBBO1ZDEAT+QBwEQWyVn1nQjEoQrFunA62WWAFd23HXXffYrFmzrXXrE10wGOxmVJ5xp2VG2eOPP+bvmnn22WdjxTd6Vht0h4xmQ7K3JVYwCAJ/cWqVKlX9dRyx9XoOgsCvy71dEKT59SqTewmCwPdR9WmfQRDkLmJBEPiZHrVLISF3AfVf7c69XuuqVKni2xsEG9erduriYJWRae7ttS73xb9aFwQb6gqCde3PvW0SvqdJCCCAAAKFFEgrZHmKb0ZA11joh9LuuOMu23LLLezLL7+wd955x1/kqlNAzZtvmPXYTFV8jAACCCCAQMoKEFBKYeg1K7DXXntZ9+7n2a233u5PdwwcOMhOPPFE03UspbDL0q2S2hFAAAEEEIizAAElzuDsDgEEEEAAAQQ2L5AKAWXzCpRAAAEEEEAAgaQSIKAk1XDQGAQQQAABBMIiULrtJKCUri+1I4AAAggggEARBAgoRUBjEwQQQACB8AvQg+QWCHVACTb8JEZyK9M6BBBAAAEEECiUQMgDSmCElEKNN4URQCAyAnQEgU0LBIGOj8GmC4Tgk1AHFPnql0z1zIIAAggggAAC6wTS08usexHix0gEFBcUQzwENB2B1BSg1wggUDoCOiaWLZteOpXHsdbQB5QyZdKy/pG5OLqxKwQQQAABBJJSoEyZMpaWlpaUbStMo8LfA9fbcuXKusEI97k21w3+hEqAxiKAAALJJ5CWFli5cuWSr2FFaFFaEbZJuk2UFCtUKO9CSiS6k3S+NAgBBBBAIPkFNhwLo/EX9sgc0TUwFSuWt/T0MhYE0Ric0vx/B+pGAAEEEIiGQBAE7tiXbjoG6lhoEfkvMgFF4xEEgWkmRYNUvnw5P2BlyqQZCwZ8B/gO8B3gOxC174DuYtWxTse8ChXKRe4v5yENKIojm17S0tJMVzBrwCpWrOBSJQsOfAf4DvAd4DsQre+AjnE61umYZxH8L5IBJYLjRJcQQAABBBAofYEk2gMBJYkGg6YggAACCCCAwDoBAso6Bx4RQAABBMIvQA8iJEBAidBg0hUEEEAAAQSiIkBAicpI0g8EEAi/AD1AAIEsAQJKFgUvEEAAAQQQQCBZBAgoyTIStAOB8AvQAwQQQKDEBAgoJUZJRQgggAACCCBQUgIElJKSpJ7wC9ADBBBAAIGkESCgJM1Q0BAEEEAAAQQQiAkQUGIS4X+mBwgggAACCERGgIASmaGkIwgggAACCERHIHkCSnRM6QkCCCCAAAIIFFOAgFJMQDZHAAEEEEAgmQXC2ra4BZQyZcpYZmZmWJ1oNwIIIIAAAiktoGN4EARxM4hbQElPT7c1a9bErWPsCAEEEEAgCgL0IVkEdAwvW7Zs3JoTt4BSvnx5W716ddw6xo4QQAABBBBAoOQEdAzXsbzkasy/prgHFE0R5d8kPkUAAQSiI0BPEIiCgGZPtEQyoOgaFJ3mWbJkSRTGij4ggAACCCCQMgI6dusYnpYWt3kNi9uegiCwcuXK2bJly7hYNmW+0nQ0/AL0AAEEUl1AMyfLly83zZ4EQQQvktUAV6xY0dauXetDit6zIIAAAggggEByCyic6NhdoUKFuDY0LZ5709W/lStXNnVWiSye+2ZfqSlArxFAAAEEii6gY7XOfOjYrWN40Wsq/JZxDShqXtWqVS0IAlu4cKGfTdE6FgQQQAABBBBILgHd1LJgwQLTNaQ6dse7dXEPKEEQmDqakZFhixYtIqTkO+J8iAACCCCAQPwFdEpHx+hVq1ZZlSpV/MRCvFsR94CiDupCm2rVqtmKFSts8eLFhBShsCCAAAIIIJAEAgonOjavXLnSqlev7i+OTUSzSjWg5NehSpUq+ZkUndvSFJJA8ivPZwgggAACCCBQugI6rTMRXZJ/AAAQAElEQVR//nx/M4smEnRzS+nucdO1JyygqEkKKTVq1PC/MDt37lx/8SxBRTIsCCCAAAIIbFKgxD/QsVc3sMybN8//szQ6NicynKiDCQ0oaoBuW6pVq5a/CEczKQoqOvWjz1gQQAABBBBAoPQEFEx0KmfOnDmmY7AuiNUxWcfm0ttrwWpOeEBRMwVSs2ZN06JfqdMdPrNmzfJ3+ugUkPB0US1LhmGAAd8BvgOh/w5kMIaJHEMdU3Vs1bF29uzZPpjoV2IVTHQc1jFZx+ZEL0kRUGIISmzCqV27tr9qWP8wka4i1vkwTTvpmWW+YYAB3wG+A3wH+A4U5TsQO5bq2KpjrO7Q0TFXp3R0A0vseJwMz0kVUAQSBIEpyen6FKFttdVWVqdOHVOyEyBLDatRowYLBnwHEvcdwB770H4HdCzdYostrG7duqZjrI61OuYGQfx+wl7H+oIsSRdQcjc6CNYFFv07Pkp3LOX9LV844MB3gO8A3wG+A4X9DuhYmiyncHIf73O/T/qAkrvBvEcAgWIKsDkCCCAQAgECSggGiSYigAACCCCQagIElFQb8fD3lx4ggAACCKSAAAElBQaZLiKAAAIIIBA2AQJKvEeM/SGAAAIIIIDAZgUIKJslogACCCCAAAIIxFugsAEl3u1jfwgggAACCCCQggIElBQcdLqMAAIIIJBsArQntwABJbcI7xFAAAEEEEAg4QIElIQPAQ1AAAEEwi9ADxAoaQECSkmLUh8CCCCAAAIIFFuAgFJsQipAAIHwC9ADBBBINgECSrKNCO1BAAEEEEAAASOg8CVAIAICdAEBBBCImgABJWojSn8QQAABBBCIgAABJQKDGP4u0AMEEEAAAQRyChBQcnrwDgEEEEAAAQSSQICAUgKDQBUIIIAAAgggULICBJSS9aQ2BBBAAAEEECgBgTSzEqiFKhBAAAEEEEAAgRIUYAalBDGpCgEEEEAAgSwBXhRLgIBSLD42RgABBBBAAIHSECCglIYqdSKAAALhF6AHCCRUgICSUH52jgACCCCAAAJ5CRBQ8lJhHQIIhF+AHiCAQKgFCCihHj4ajwACCCCAQDQFCCjRHFd6FX4BeoAAAgiktAABJaWHn84jgAACCCCQnAIElOQcl/C3ih4ggAACCCBQDAECSjHw2BQBBBBAAAEESkeAgJK3K2sRQAABBBBAIIECBJQE4rNrBBBAAAEEUkug4L0loBTcipIIIIAAAgggECcBAkqcoNkNAggggED4BehB/AQIKPGzZk8IIIAAAgggUEABAkoBoSiGAAIIhF+AHiAQHgECSnjGipYigAACCCCQMgIElJQZajqKQPgF6AECCKSOAAEldcaaniKAAAIIIBAaAQJKaIaKhoZfgB4ggAACCBRUgIBSUCnKIYAAAggggEDcBAgocaMO/47oAQIIIIAAAvESIKDES5r9IIAAAggggECBBVIooBTYhIIIIIAAAgggkGABAkqCB4DdI4AAAgggEGqBUmo8AaWUYKkWAQQQQAABBIouQEApuh1bIoAAAgiEX4AeJKkAASVJB4ZmIYAAAgggkMoCBJRUHn36jgAC4RegBwhEVICAEtGBpVsIIIAAAgiEWYCAEubRo+0IhF+AHiCAAAJ5ChBQ8mRhJQIIIIAAAggkUoCAkkh99h1+AXqAAAIIIFAqAgSUUmGlUgQQQAABBBAojgABpTh64d+WHiCAAAIIIJCUAgSUpBwWGoUAAggggEBqC4Q7oKT22NF7BBBAAAEEIitAQIns0NIxBBBAAAEEiiaQDFsRUJJhFGgDAggggAACCOQQIKDk4OANAggggED4BehBFAQIKFEYRfqAAAIIIIBAxAQIKBEbULqDAALhF6AHCCBgRkDhW4AAAggggAACSSdAQEm6IaFBCIRdgPYjgAACxRcgoBTfkBoQQAABBBBAoIQFCCglDEp14RegBwgggAACiRcgoCR+DGgBAggggAACCOQSIKDkAgn/W3qAAAIIIIBA+AUIKOEfQ3qAAAIIIIBA5ASSLqBETpgOIYAAAggggEChBQgohSZjAwQQQAABBEInELoGE1BCN2Q0GAEEEEAAgegLEFCiP8b0EAEEEAi/AD1IOQECSsoNOR1GAAEEEEAg+QUIKMk/RrQQAQTCL0APEECgkAIElEKCURwBBBBAAAEESl+AgFL6xuwBgfAL0AMEEEAgzgIElDiDszsEEEAAAQQQ2LwAAWXzRpQIvwA9QAABBBAImQABJWQDRnMRQAABBBBIBQECShhGmTYigAACCCCQYgIElBQbcLqLAAIIIIBAGATiEVDC4EAbEUAAAQQQQCCJBAgoSTQYNAUBBBBAAIGCC0S7JAEl2uNL7xBAAAEEEAilAAEllMNGoxFAAIHwC9ADBPITIKDkp8NnCCCAAAIIIJAQAQJKQtjZKQIIhF+AHiCAQGkKEFBKU5e6EUAAAQQQQKBIAgSUIrGxEQLhF6AHCCCAQDILEFCSeXRoGwIIIIAAAikqQEBJ0YEPf7fpAQIIIIBAlAUIKFEeXfqGAAIIIIBASAUIKAkaOHaLAAIIIIAAApsWIKBs2oZPEEAAAQQQQCBBAkUMKAlqLbtFAAEEEEAAgZQQIKCkxDDTSQQQQACBUAjQyCwBAkoWBS8QQAABBBBAIFkECCjJMhK0AwEEEAi/AD1AoMQECCglRklFCCCAAAIIIFBSAgSUkpKkHgQQCL8APUAAgaQRIKAkzVDQEAQQQAABBBCICRBQYhI8IxB+AXqAAAIIREaAgBKZoaQjCCCAAAIIREeAgBKdsQx/T+gBAggggAAC6wUIKOsheEIAAQQQQACB5BEgoJTcWFATAggggAACCJSQAAGlhCCpBgEEEEAAAQRKTmBDQCm5OqkJAQQQQAABBBAolgABpVh8bIwAAggggED+AnxaNAECStHc2AoBBBBAAAEESlGAgFKKuFSNAAIIhF+AHiCQGAECSmLc2SsCCCCAAAII5CNAQMkHh48QQCD8AvQAAQTCKUBACee40WoEEEAAAQQiLUBAifTw0rnwC9ADBBBAIDUFCCipOe70GgEEEEAAgaQWIKAk9fCEv3H0AAEEEEAAgaIIEFCKosY2CCCAAAIIIFCqAgSUfHn5EAEEEEAAAQQSIUBASYQ6+0QAAQQQQCCVBQrQdwJKAZAoggACCCCAAALxFSCgxNebvSGAAAIIhF+AHsRBgIASB2R2gQACCCCAAAKFEyCgFM6L0ggggED4BegBAiEQIKCEYJBoIgIIIIAAAqkmQEBJtRGnvwiEX4AeIIBACggQUFJgkOkiAggggAACYRMgoIRtxGhv+AXoAQIIIIDAZgUIKJslogACCCCAAAIIxFuAgBJv8fDvjx4ggAACCCBQ6gIElFInZgcIIIAAAgggUFiB1AsohRWiPAIIIIAAAgjEXYCAEndydogAAggggED0BEq6RwSUkhalPgQQQAABBBAotgABpdiEVIAAAgggEH4BepBsAgSUZBsR2oMAAggggAACRkDhS4AAAghEQIAuIBA1AQJK1EaU/iCAAAIIIBABAQJKBAaRLiAQfgF6gAACCOQUIKDk9OAdAggggAACCCSBAAElCQaBJoRfgB4ggAACCJSsAAGlZD2pDQEEEEAAAQRKQICAUgKI4a+CHiCAAAIIIJBcAgSU5BoPWoMAAggggAACTiASAcX1gz8IIIAAAgggECEBAkqEBpOuIIAAAgggUIICCa2KgJJQfnaOAAIIIIAAAnkJEFDyUmEdAggggED4BehBqAUIKKEePhqPAAIIIIBANAUIKNEcV3qFAALhF6AHCKS0AAElpYefziOAAAIIIJCcAgSU5BwXWoVA+AXoAQIIIFAMAQJKMfDYFAEEEEAAAQRKR4CAUjqu1Bp+AXqAAAIIIJBAAQJKAvHZNQIIIIAAAgjkLUBAydsl/GvpAQIIIIAAAiEWIKCEePBoOgIIIIAAAlEVSNaAElVv+oUAAggggAACBRAgoBQAiSIIIIAAAghEQyA8vSCghGesaCkCCCCAAAIpI0BASZmhpqMIIIBA+AXoQeoIEFBSZ6zpKQIIIIAAAqERIKCEZqhoKAIIhF+AHiCAQEEFCCgFlaIcAggggAACCMRNgIASN2p2hED4BegBAgggEC8BAkq8pNkPAggggAACCBRYgIBSYCoKhl+AHiCAAAIIhEWAgBKWkaKdCCCAAAIIpJAAASVEg01TEUAAAQQQSBUBAkqqjDT9RAABBBBAIEQCcQwoIVKhqQgggAACCCCQUAECSkL52TkCCCCAAALFFIjo5gSUiA4s3UIAAQQQQCDMAgSUMI8ebUcAAQTCL0APEMhTgICSJwsrEUAAAQQQQCCRAgSUROqzbwQQCL8APUAAgVIRIKCUCiuVIoAAAggggEBxBAgoxdFjWwTCL0APEEAAgaQUIKAk5bDQKAQQQAABBFJbgICS2uMf/t7TAwQQQACBSAoQUCI5rHQKAQQQQACBcAsQUBI7fuwdAQQQQAABBPIQIKDkgcIqBBBAAAEEEEisQPECSmLbzt4RQAABBBBAIKICBJSIDizdQgABBBAIrwAtNyOg8C1AAAEEEEAAgaQTIKAk3ZDQIAQQQCDsArQfgeILEFCKb0gNCCCAAAIIIFDCAgSUEgalOgQQCL8APUAAgcQLEFASPwa0AAEEEEAAAQRyCRBQcoHwFoHwC9ADBBBAIPwCBJTwjyE9QAABBBBAIHICBJTIDWn4O0QPEEAAAQQQIKDwHUAAAQQQQACBpBMgoJT4kFAhAggggAACCBRXgIBSXEG2RwABBBBAAIESF9gooJT4HqgQAQQQQAABBBAopAABpZBgFEcAAQQQQKAIAmxSSAECSiHBKI4AAggggAACpS9AQCl9Y/aAAAIIhF+AHiAQZwECSpzB2R0CCCCAAAIIbF6AgLJ5I0oggED4BegBAgiETICAErIBo7kIIIAAAgikggABJRVGmT6GX4AeIIAAAikmQEBJsQGnuwgggAACCIRBgIAShlEKfxvpAQIIIIAAAoUSIKAUiovCCCCAAAIIIBAPAQJKQZQpgwACCCCAAAJxFSCgxJWbnSGAAAIIIIBATCC/ZwJKfjp8hgACCCCAAAIJESCgJISdnSKAAAIIhF+AHpSmAAGlNHWpGwEEEEAAAQSKJEBAKRIbGyGAAALhF6AHCCSzAAElmUeHtiGAAAIIIJCiAgSUFB14uo1A+AXoAQIIRFmAgBLl0aVvCCCAAAIIhFSAgBLSgaPZ4RegBwgggAACmxYgoGzahk8QQAABBBBAIEECBJQEwYd/t/QAAQQQQACB0hMgoJSeLTUjgAACCCCAQBEFUjagFNGLzRBAAAEEEEAgDgIElDggswsEEEAAAQRSRKDEuklAKTFKKkIAAQQQQACBkhIgoJSUJPUggAACCIRfgB4kjQABJWmGgoYggAACCCCAQEyAgBKT4BkBBBAIvwA9QCAyAgSUyAwlHUEAAQQQ0uaIBAAAEABJREFUQCA6AgSU6IwlPUEg/AL0AAEEEFgvQEBZD8ETAggggAACCCSPAAElecaCloRfgB4ggAACCJSQAAGlhCCpBgEEEEAAAQRKToCAUnKW4a+JHiCAAAIIIJAkAgSUJBkImoEAAggggAACGwSiFFA29IpXCCCAAAIIIBBqAQJKqIePxiOAAAIIIFDaAompn4CSGHf2igACCCCAAAL5CBBQ8sHhIwQQQACB8AvQg3AKEFDCOW60GgEEEEAAgUgLEFAiPbx0DgEEwi9ADxBITQECSmqOO71GAAEEEEAgqQUIKEk9PDQOgfAL0AMEEECgKAIElKKosQ0CCCCAAAIIlKoAAaVUeak8/AL0AAEEEEAgEQIElESos08EEEAAAQQQyFeAgJIvT/g/pAcIIIAAAgiEUYCAEsZRo80IIIAAAghEXCDJA0rE9ekeAggggAACCOQpQEDJk4WVCCCAAAIIRFggBF0joIRgkGgiAggggAACqSZAQEm1Eae/CCCAQPgF6EEKCBBQUmCQ6SICCCCAAAJhEyCghG3EaC8CCIRfgB4ggMBmBQgomyWiAAIIIIAAAgjEW4CAEm9x9odA+AXoAQIIIFDqAgSUUidmBwgggAACCCBQWAECSmHFKB9+AXqAAAIIIJD0AgSUpB8iGogAAggggEDqCRBQwjfmtBgBBBBAAIHICxBQIj/EdBABBBBAAIHwCcQ/oITPiBYjgAACCCCAQJwFCChxBmd3CCCAAAIIlIZA1OokoERtROkPAggggAACERAgoERgEOkCAgggEH4BeoBATgECSk4P3iGAAAIIIIBAEggQUJJgEGgCAgiEX4AeIIBAyQoQUErWk9oQQAABBBBAoAQECCglgEgVCIRfgB4ggAACySVAQEmu8aA1CCCAAAIIIOAECCgOgT/hF6AHCCCAAALREiCgRGs86Q0CCCCAAAKRECCgJMUw0ggEEEAAAQQQyC5AQMmuwWsEEEAAAQQQSAqBEgkoSdETGoEAAggggAACkREgoERmKOkIAggggEDEBFK6OwSUlB5+Oo8AAggggEByChBQknNcaBUCCCAQfgF6gEAxBAgoxcBjUwQQQAABBBAoHQECSum4UisCCIRfgB4ggEACBQgoCcRn1wgggAACCCCQtwABJW8X1iIQfgF6gAACCIRYgIAS4sGj6QgggAACCERVgIAS1ZENf7/oAQIIIIBACgsQUFJ48Ok6AggggAACySpAQCmtkaFeBBBAAAEEECiyAAGlyHRsiAACCCCAAAKlJbCpgFJa+6NeBBBAAAEEEEBgswIElM0SUQABBBBAAIGSEqCeggoQUAoqRTkEEEAAAQQQiJsAASVu1OwIAQQQCL8APUAgXgIElHhJsx8EEEAAAQQQKLAAAaXAVBREAIHwC9ADBBAIiwABJSwjRTsRQAABBBBIIQECSgoNNl0NvwA9QAABBFJFgICSKiNNPxFAAAEEEAiRAAElRIMV/qbSAwQQQAABBAomQEApmBOlEEAAAQQQQCCOAgSUQmBTFAEEEEAAAQTiI0BAiY8ze0EAAQQQQACBvAXyXEtAyZOFlQgggAACCCCQSAECSiL12TcCCCCAQPgF6EGpCBBQSoWVShFAAAEEEECgOAIElOLosS0CCCAQfgF6gEBSChBQknJYaBQCCCCAAAKpLUBASe3xp/cIhF+AHiCAQCQFCCiRHFY6hQACCCCAQLgFCCjhHj9aH34BeoAAAgggkIcAASUPFFYhgAACCCCAQGIFCCiJ9Q//3ukBAggggAACpSBAQCkFVKpEAAEEEEAAgeIJpHpAKZ4eWyOAAAIIIIBAqQgQUEqFlUoRQAABBBBIZYHi952AUnxDakAAAQQQQACBEhYgoJQwKNUhgAACCIRfgB4kXoCAkvgxoAUIIIAAAgggkEuAgJILhLcIIIBA+AXoAQLhFyCghH8M6QECCCCAAAKREyCgRG5I6RAC4RegBwgggAABhe8AAggggAACCCSdAAEl6YaEBoVfgB4ggAACCBRXgIBSXEG2RwABBBBAAIESFyCglDhp+CukBwgggAACCCRagICS6BFg/wgggAACCCCwkUAEA8pGfWQFAggggAACCIRMgIASsgGjuQgggAACCCREIM47JaDEGZzdIYAAAggggMDmBQgomzeiBAIIIIBA+AXoQcgECCghGzCaiwACCCCAQCoIEFBSYZTpIwIIhF+AHiCQYgIElBQbcLqLAAIIIIBAGAQIKGEYJdqIQPgF6AECCCBQKAECSqG4KIwAAggggAAC8RAgoMRDmX2EX4AeIIAAAgjEVYCAEldudoYAAggggAACBREgoBREKfxl6AECCCCAAAKhEiCghGq4aCwCCCCAAAKpIRCOgJIaY0EvEUAAAQQQQGC9AAFlPQRPCCCAAAIIpJpAMveXgJLMo0PbEEAAAQQQSFEBAkqKDjzdRgABBMIvQA+iLEBAifLo0jcEEEAAAQRCKkBACenA0WwEEAi/AD1AAIFNCxBQNm3DJwgggAACCCCQIAECSoLg2S0C4RegBwgggEDpCRBQSs+WmhFAAAEEEECgiAIElCLCsVn4BegBAggggEDyChBQkndsaBkCCCCAAAIpK0BACe3Q03AEEEAAAQSiK1CogLJyZYZNn/6bDRp4s+2/3xFWuVJ9Sy9ThwUDvgN8B/gO8B3gO8B3IMd3QBnhoKYtbej1t9mvv/5uGRkZhUpTBQ4oU6f8aOeec5ELJs1t0KCbbdKk702BxYr4H5shgAACCCCAQHQFlBG++OJru+66G+zAA1vY+eddZtOm/VLgDhcooEya9J21bHmyPf30i7Z48ZICV05BBBBAAAEEEIirQFLubMH8hTZ8+DN2VIs29t23UwvUxs0GlB9//MnO6NzD/vtvVoEqpBACCCCAAAIIIJCXwL///medXabQ5SJ5fZ59Xb4BZfmy5dahfTf74Yefsm/DawQQQAABBEpHgFojLzBlyg/W8fRzN3tNSr4B5a23x9v0X3+PPBYdRAABBBBAAIH4CUyd+qO98ca4fHeYb0B5/bWxtmL5inwr4EMEEEAAgSwBXiCAQAEElrts8dab4/MtmW9A+eSTL/LdmA8RQAABBBBAAIGiCHz++Vf5bpZvQPnjj7/y3ZgPEUAgYgJ0BwEEEIiTwOYyRr4BZcUKTu/EaZzYDQIIIIAAAiklkJGxKt/+5htQ8t2SDxFIPgFahAACCCAQEQECSkQGkm4ggAACCCAQJQECSjKNJm1BAAEEEEAAAS9AQPEMPCCAAAIIIIBAMgmUZEBJpn7RFgQSJhAEgVWuXMmqVKlsQRAkpB21atW0o49ubpUqVUzI/tkpAgggUFwBAkpxBdkegWwChx9+sH3y6Tj7979p9s+/P9iHH71pzZodEtegkpaWZldf3dvGvPqMnXdet2ytC+fL449vad9P+cQHrrx6sNNOjezzL971ZVROy+RvP7T77r/Vtt66fl6bsA6BkAmkZnMJKKk57vS6hAXKlStrg4dcbe++N8Zq165pb7/9ro1/5wOrV6+uCwpPWz8XGIKgdGZThj1yl3300VtZPVq7dq19/PHn9u6779vXX0/OWh/WF9VrVLdddtnJKleplGcXKlQob40bN7IaNarZzz9Pt2nTfrZ//51p7dq1to8/GesDYp4bshIBBJJagICS1MND48IicNhhB9tll/WyiRM/sSObn2SdO3W3008/xw5qerR98P4nbkbjMmve/LBS6U79+vVs++23y6pbAeWVV16zdqd2tfff/yhrfdRffPXlZDvrzJ7WqWN3O+XkLnbqKWda2bJl7d57b3anuipFvftJ3T8ah0BRBAgoRVFjGwSyCZQpU8Zuu32IzZkzz9q26WR//TXDVq5cafqhw5kzZ9vAgTfZ1KnT7MQTj83aarvttrEBA/rYd99/7E4H/Wjj3nnFOnY81cqXL+/LVK5c2R586A4bM+YZa9e+jT9V9NffU2zC+69Zq1ZHm/a5zTYNbNTop+x//9vPatWuZZ+6U0sDB/X123fu3MHNoIw2nXLSitNPP8V/fuyxR9nIkQ/an399b5MmT7SLLurhr5VRmW223dptM8auv/5aS09P1yq/dO9+lt9W19RohU4hnXbayTZ27Mv2x5/f2Q8/fm733XeLm8XYUR/7pXfvnvbWWy/aQQcfaO9/8LrvY/YQ5QutfzjooANs5JMP2fRfv7Hf//jWXn55hB1zbAvTftYXKdDTmszMLPelS5faV19Nsm+//d623HILk5Uq2XXXxnb33Te600Ef298zptj4d8fYGV065OhvvXpb2SDn+P0UlZlq97iA06zZod6gZcsjVY1fVO76odfa1B8+dZ7fubpGW4cObXPU5QvygAACRRIgoBSJjY0Q2CDQqFFD2333XWz8+PdtwYJFGz5Y/2ry5O+t9Ukd7cYb7/Rrqlat4g96Ou0z1p0KuurKAbZmTaYNe+Ru631ZT3+9Spkyaf60xlFHN7PevXvZmNFv2bPPvmQHHXSgDwO1XSBZtGixvfD8KPvnn/9s+fLl9vjjT7nZmo/9Praqu6Xtf0ATq+FOj2iFDtJ6P+T6q232nLl2910PWbly5ezGmwZYmzbHq4hVcOGoyb572Y47bu/b4Fe6h3r1t/J1paWt+5+L9u4g/PCwOy1IC+zKK/vbA/c/au3bt7XhIx6wWJltXQA79LCD7KmnHjb9nPUjw0bY0qXLXG05/zRpsqe99PJIO/DAfe36Ibe5maYh1qTJ3vboo/dYnS1q5yxcrHdr3WxKuj087C4759wurl0v2kUXXmVLliy2Bx643RS4VL0uKr7p5oHWp++lNnXKNOvXd5DVqVPbbrlloDeoXWddmzSGL7z4hPXqdY699OIYGzjgZu+p+s8+5wxVxYIAAsUUWPe/OMWshM0RSGWBBg3q+wP6H7/n/W9XrVq1ymbM+NdmzpzlmZq6GYNjjmlh11071J0WusZGjHjWzuxynjuQ/2mdO7e37Bd2rlyZYX37DLSbb77Lrrj8Ohs86GbTTMeee+5mCxcucgfaF/yMzfJly+2hh57wIcnvZBMPb7893i6/7Bq79dZ7rOf5l7mDalk7zAWJTRTPc/XsWXNsyOBb7fhWHey5Z192MxIP2WOPPWkHuECUfZZE14aoXJczzrNrXV9nzZq9UX0KLXfcfp91aN/N1/HUk8/bWWf1tLouYDU7/JCNyue3Ij29jGnmSTM9NWvW8P2Sk+w1q6VZoZdeGmMnnnCa3TD0djdT85oPFgp6rdu08lVrLE844Rgf9Dp37uHH5uxuF9riJUv857GHs87qaPvv38SPofr26KMj7bBDj7NJk75zYzXQttiiTqwozwggUEQBAkoR4dgMgZhAbNYgCGJr8n9u1661LVu2zO6668GsgjPdqaCXX37VGjbczrbaasus9Tp4Tpv2S9b7N94Y51/Xrl3TPxfkIXuZsW+/Z5mZa/0qnQLRi8pVKuupwItmiu644+Hq7fsAAAtUSURBVAHbeecd/emnK6+62I5u2dxvX61aVf+sB4Wr4cOf0ctNLj/9NN2FpXtt/vwFdoI7Bdaz59mmRRtUrly460Z0quvlV0baq689a6+9/pw9MfwB19dM69HjUue93M0yrbA7XbsVIlq0ONzOcTMdvXqdbZoNqeJOqWmfmkFSH2644Q7LyMjQKrftMnv4oeH+tR7KuFN6zY88zLV5oX0w8WOtylredONTqVIla9p0/6x1vEAAgaIJEFCK5sZWCGQJ6G/nujBVf/vOWpnthf7mXsedGoidbtm6QQNT8Fi+POc/xjl9+u9Wvnw5d8DcEBgyMzOzDpTm/lu9eo17LPqfjGz/OJdOK6mmAuYqFfXL3nvvYV999Z5N/PBNu/32If5AX6VKFf9Z9oc1a9a4U1f5t3crN1PyugsT3373kZsBut16X9bLtt6mQfZqCvy6vDtlVadOLdvCWSs0vvDCKDv0kOPsiy++9nXolNYttw6yv2dMtaeeHmb9rr7MDjm0qZ/98gXcQ80a1d2j2a+//u6fYw8a49jrsmXT3RhVMc2MLVm8NLbaP+v0WWbmGqvj2uBX8IAAAkUWSCvylmyIQFwEkn8nv/32h/344892pPtbuU4t5G7x3nvvbqNHP2WaadBnM/75x2rUqGa63kHvY8suuzT2f8tftCjn6YTY5/F6DtLSchy0Y7ML2n9lN9Pw2uvP2lr3f6eddrY1b36SHXhACxcuHtfHhVoUInRB7sGH/M/697/Bjj6qremup04dzy1UPbHC7773oe237xG2xx4H+3ouvOBK+/33P2Mf+4uLL7ywh9vXjXbcse18eGnfrqvNmTM3q4yu59Ebnb7Rc2zRGMZeK+QtXLDIFIiqV98wY6TPY+Eoe51az4IAAoUXSCv8JmyBAALZBfQ36SuvuM7q169r+nE0XZCqv2WXLVvWari/kQ8eco3tt38Tm/DeRL+ZLqqsWLGiXdq7l6Wnl/Hr9Dfu1q1b2R/ugJrXtRq+0CYe1rpTNull0/31JDrob6LYZlfrQlvN2Oii3y23rOPalm61atWwU049KWvb6tWr+d92+fLLyfbOuPfsl59/9adA9ttvn6wyBX1R1rV5m23qu1MlC+zll1413ek0b94CO8k5FLSOwpTbe589/F0+jz4y0r755lv799//rEGDeq6PG06X6fSPwoUuJtZnmtHS3Tqa2YntS0bjXN9r1Kxuhx1+sL+jSp/pmpsTTzrWz6x8/PFnWsWCAALFEEgrxrZsWgABiqSGwPjxH9htt95rumV24sQ37Ikn7rcRIx6wz78YbwcffKANHnyzjR37nsf48MNP7bXX3rar3SkG3Urcv/9V9tzzj9m22zawBx983P75519frqAPH3/ymWnm5umnH7FOndsVdLONymn2YNSo122vvXb37Xn0sXts7LhXbPr037LKzp49xz795Es77rijbNDgq+3yyy+wkSMfsv33L3xA0TUq+p0WXXMzdOi1dvHF59kddwy1Ll06ZO2vJF+88fpYX93IkQ/a5Vdc6H9Yb+Cgvm62yK/2D//9N8vuuushNxbb2DvjR9kLLw6319943j755Av/eezhqadesNdfG2v9+vW2+x+41Y1vP9Mt37vuurOde87FNnfu/FhRnhFAoIgCBJQiwrEZAtkFMjIy7JprrremTY+yBQsXmW7FPfmUE13Y+M/atO5kQ6+/Pav4kiVL7XR3ekS33p56amu79rorbJttGtgJx3ew++57xHRtSKabFZnpDpYz/v7Hvd9wHceaNavdLMtftnTp8qz6Hrj/MXvyyefthBOPsdYntfLrF7k2/PG7yq27RmLx4sV+O/02iy+w/kFl9PstepuZmekOrhf5kKRbffXDcv2vu8FefGG033bNmjV+dqBly5PdDMRku8Id5AcO6me/uVmfwYNu8WXkoLrmzZtvf/7xl17mu9ww9A4bOvR2O/Gk40zXh+y00w7WunVHX5eu09HGy5Yt9++XLtn4NmV9npGxyv76c4bNmjnbMp2b1uW1fPnlJOt96dWmU0o33tjfOp5+qt14w532zdffmYKJttFs2I033OECV3PTxcALFyy0vn0Hme4u0uexZYkbw86du9uwYSPszDNPt74uqOzmwonuWHr66RdjxXhGAIFiCGwmoBSjZjZFIMUEdKHsl19Msv8d2MKqV9vWL0c0O8EmTPjQ9Fl2Ds0eXHTRVbbVljtZndo72M6ND7B3352YVW7JkiXWoUM3O/TQ42yBO0jGtp0y5Udr1KiJvf7627FV/hRJ17N6WaWK9a1du7P8et1yrHLvvPO+f//YY0/57XRqw69wD8uWLfPrLr64j3u37o8O8Lp2o0rlBrbtNnu4/Yy1WF1L1/+OibY7vlUH1+5GtkWdHa3PVQPcLMpzvi61TzUNGnizvxZEr/Nb5DJk8C1Wr+7Ovq5WrdrbjL//9XXpriZtO+qV1/x7nVbR+9zLtGk/2557HmznnXdpjguKc5fTvnQ78JZbyLyR7bjjvqZ9HH54K+vatZcvrlNku+22sz9ddkGvK+2MM86zt98a7wLk1n5s5s6Z48vpYZkLTlf3G2yVKzWwWjW3d7Mue/qZMe1Hn7MggEDxBAgoxfNjawTyFNDBa8WKlXl+ln2lgsqCBYv8wS/7+qK8znQzICV1cFRdm2uDfodlmQs5mytXkM+XuYO96iup9ue3zww326XQl1cfa9WqaY89dq//FdxOndr5YKLfphk0uJ/9/tuf9tNP0zeqWjNLsdmejT5kBQKbEmD9ZgUIKJslogACCKSKwNy580x3FE11M1U3uNNA3373od1w43X+HyC89NJ+pl/FTRUL+olAogUIKIkeAfaPAAJJI6AZnLfcKZ02bTrbEc2Ot4MPamnNDj/BX0f02mtvl8hMV9J0tngNYWsESl2AgFLqxOwAAQTCJqDTTb/++of98MNP/kfb9D5sfaC9CIRdgIAS9hGk/QggUHgBtkAAgaQXIKAk/RDRQAQQQAABBFJPIN+Aon9DJPVI6DECSS9AAxFAAIHQC5Qpk28EsXw/rV27VugB6AACCCCAAAIIJJ+AbuvPr1X5BpQmTfbKb1s+Q6BoAmyFAAIIIJDyAnvtvXu+BvkGlBZHHW5BEORbAR8igAACCCCAAAKFEUhLS7Ojj26e7yb5BpRWrVqa/iXPfGtIvQ/pMQIIIIAAAggUQ2Drretby5bFCCiNGzeym24aUIwmsCkCCCCAAAIIIJBT4PY7rrcdd9wh50rL+TbfGZQgCOz0jqfawEF9rVKlijm35B0CCCCAAAIIIFAIAWWJwUOutjZtjt/sJST5BpTYPi+//AK7664brWrVKrFVPCOAAAIIIIBANgFe5i+gcHL/A7da79498y+4/tMCBZTy5ctb126d7PPPx/vn3XffxXR7UNmyZddXwxMCCCCAAAIIILBBQL+lpp8r2WOPXe3c7mfapMkTrXPnDqZMsaHUpl8VKKDENt+pcSN78MHb7c03X7Cx41628eNH2fh3R7NgwHeA7wDfgdB/B/jfco5nJfwdcBlBWeENlxnuvfdm22GHhrE4UaDnQgUU1VimTBmr36Ce7bPPnnbwIf+zZs0OYcGA7wDfAb4DfAf4DvAdyPEdOOTQprb33ntY/fp1TdlBGaIwS6EDSmEqpywCCCAQLwH2gwAC0RIgoERrPOkNAggggAACkRAgoERiGOlE+AXoAQIIIIBAdgECSnYNXiOAAAIIIIBAUggQUJJiGMLfCHqAAAIIIIBASQoQUEpSk7oQQAABBBBAoEQECCiekQcEEEAAAQQQSCYBAkoyjQZtQQABBBBAIEoCxegLAaUYeGyKAAIIIIAAAqUjQEApHVdqRQABBBAIvwA9SKDA/wEAAP//vJIJnAAAAAZJREFUAwATlpUtRLl1dwAAAABJRU5ErkJggg==;" vertex="1" parent="1">
          <mxGeometry x="128" y="12" width="206.08" height="448" as="geometry" />
        </mxCell>
        <mxCell id="8-Jn06f8nxEGg-OneQiQ-11" value="" style="endArrow=open;startArrow=none;endFill=0;startFill=0;endSize=8;html=1;verticalAlign=bottom;dashed=1;labelBackgroundColor=none;rounded=0;entryX=0;entryY=0.5;entryDx=0;entryDy=0;fillColor=#e1d5e7;strokeColor=#9673a6;" edge="1" parent="1" target="8-Jn06f8nxEGg-OneQiQ-24">
          <mxGeometry width="160" relative="1" as="geometry">
            <mxPoint x="200" y="170" as="sourcePoint" />
            <mxPoint x="615" y="267" as="targetPoint" />
            <Array as="points">
              <mxPoint x="360" y="170" />
              <mxPoint x="360" y="124" />
            </Array>
          </mxGeometry>
        </mxCell>
        <mxCell id="8-Jn06f8nxEGg-OneQiQ-12" value="&lt;span style=&quot;caret-color: rgba(0, 0, 0, 0);&quot;&gt;&amp;lt;&amp;lt;trace&amp;gt;&amp;gt;&lt;/span&gt;" style="edgeLabel;html=1;align=center;verticalAlign=middle;resizable=0;points=[];labelBackgroundColor=none;" connectable="0" vertex="1" parent="8-Jn06f8nxEGg-OneQiQ-11">
          <mxGeometry x="-0.075" y="-1" relative="1" as="geometry">
            <mxPoint x="-61" y="-13" as="offset" />
          </mxGeometry>
        </mxCell>
        <mxCell id="8-Jn06f8nxEGg-OneQiQ-30" value="" style="endArrow=open;startArrow=none;endFill=0;startFill=0;endSize=8;html=1;verticalAlign=bottom;dashed=1;labelBackgroundColor=none;rounded=0;exitX=0.349;exitY=0.442;exitDx=0;exitDy=0;exitPerimeter=0;fillColor=#dae8fc;strokeColor=#6c8ebf;" edge="1" parent="1" source="8-Jn06f8nxEGg-OneQiQ-15">
          <mxGeometry width="160" relative="1" as="geometry">
            <mxPoint x="210" y="190" as="sourcePoint" />
            <mxPoint x="451" y="328" as="targetPoint" />
            <Array as="points">
              <mxPoint x="390" y="210" />
              <mxPoint x="390" y="328" />
            </Array>
          </mxGeometry>
        </mxCell>
        <mxCell id="8-Jn06f8nxEGg-OneQiQ-31" value="&lt;span style=&quot;caret-color: rgba(0, 0, 0, 0);&quot;&gt;&amp;lt;&amp;lt;trace&amp;gt;&amp;gt;&lt;/span&gt;" style="edgeLabel;html=1;align=center;verticalAlign=middle;resizable=0;points=[];labelBackgroundColor=none;" connectable="0" vertex="1" parent="8-Jn06f8nxEGg-OneQiQ-30">
          <mxGeometry x="-0.075" y="-1" relative="1" as="geometry">
            <mxPoint x="-81" y="-11" as="offset" />
          </mxGeometry>
        </mxCell>
        <mxCell id="8-Jn06f8nxEGg-OneQiQ-32" value="" style="endArrow=open;startArrow=none;endFill=0;startFill=0;endSize=8;html=1;verticalAlign=bottom;dashed=1;labelBackgroundColor=none;rounded=0;entryX=0;entryY=0.5;entryDx=0;entryDy=0;fillColor=#ffe6cc;strokeColor=#d79b00;" edge="1" parent="1" target="8-Jn06f8nxEGg-OneQiQ-18">
          <mxGeometry width="160" relative="1" as="geometry">
            <mxPoint x="180" y="240" as="sourcePoint" />
            <mxPoint x="461" y="338" as="targetPoint" />
            <Array as="points">
              <mxPoint x="360" y="240" />
              <mxPoint x="360" y="360" />
            </Array>
          </mxGeometry>
        </mxCell>
        <mxCell id="8-Jn06f8nxEGg-OneQiQ-33" value="&lt;span style=&quot;caret-color: rgba(0, 0, 0, 0);&quot;&gt;&amp;lt;&amp;lt;trace&amp;gt;&amp;gt;&lt;/span&gt;" style="edgeLabel;html=1;align=center;verticalAlign=middle;resizable=0;points=[];labelBackgroundColor=none;" connectable="0" vertex="1" parent="8-Jn06f8nxEGg-OneQiQ-32">
          <mxGeometry x="-0.075" y="-1" relative="1" as="geometry">
            <mxPoint x="-69" y="-14" as="offset" />
          </mxGeometry>
        </mxCell>
        <mxCell id="8-Jn06f8nxEGg-OneQiQ-36" value="" style="endArrow=open;startArrow=none;endFill=0;startFill=0;endSize=8;html=1;verticalAlign=bottom;dashed=1;labelBackgroundColor=none;rounded=0;entryX=0;entryY=0.5;entryDx=0;entryDy=0;exitX=0.058;exitY=0.576;exitDx=0;exitDy=0;exitPerimeter=0;fillColor=#f8cecc;strokeColor=#b85450;" edge="1" parent="1" source="8-Jn06f8nxEGg-OneQiQ-15" target="8-Jn06f8nxEGg-OneQiQ-25">
          <mxGeometry width="160" relative="1" as="geometry">
            <mxPoint x="100" y="280" as="sourcePoint" />
            <mxPoint x="461" y="370" as="targetPoint" />
            <Array as="points">
              <mxPoint x="110" y="270" />
              <mxPoint x="110" y="190" />
              <mxPoint x="350" y="190" />
              <mxPoint x="440" y="190" />
              <mxPoint x="440" y="160" />
            </Array>
          </mxGeometry>
        </mxCell>
        <mxCell id="8-Jn06f8nxEGg-OneQiQ-37" value="&lt;span style=&quot;caret-color: rgba(0, 0, 0, 0);&quot;&gt;&amp;lt;&amp;lt;trace&amp;gt;&amp;gt;&lt;/span&gt;" style="edgeLabel;html=1;align=center;verticalAlign=middle;resizable=0;points=[];labelBackgroundColor=none;rotation=0;" connectable="0" vertex="1" parent="8-Jn06f8nxEGg-OneQiQ-36">
          <mxGeometry x="-0.075" y="-1" relative="1" as="geometry">
            <mxPoint x="54" y="-10" as="offset" />
          </mxGeometry>
        </mxCell>
      </root>
    </mxGraphModel>
  </diagram>
</mxfile>
